M48
; DRILL file {KiCad 7.0.5} date Wed Sep  6 16:02:51 2023
; FORMAT={-:-/ absolute / inch / decimal}
; #@! TF.CreationDate,2023-09-06T16:02:51+08:00
; #@! TF.GenerationSoftware,Kicad,Pcbnew,7.0.5
; #@! TF.FileFunction,NonPlated,1,2,NPTH
FMAT,2
INCH
; #@! TA.AperFunction,NonPlated,NPTH,ComponentDrill
T1C0.0315
; #@! TA.AperFunction,NonPlated,NPTH,ComponentDrill
T2C0.0669
; #@! TA.AperFunction,NonPlated,NPTH,ComponentDrill
T3C0.1181
; #@! TA.AperFunction,NonPlated,NPTH,ComponentDrill
T4C0.1260
; #@! TA.AperFunction,NonPlated,NPTH,ComponentDrill
T5C0.1575
%
G90
G05
T1
X8.1072Y-5.0695
X8.3734Y-5.1408
T2
X3.7126Y-2.9294
X3.7126Y-3.6775
X3.7126Y-4.4255
X4.1126Y-2.9294
X4.1126Y-3.6775
X4.1126Y-4.4255
X4.4607Y-2.772
X4.4607Y-3.52
X4.4607Y-4.268
X4.8607Y-2.772
X4.8607Y-3.52
X4.8607Y-4.268
X5.2087Y-2.6535
X5.2087Y-3.4015
X5.2087Y-4.1495
X5.6087Y-2.6535
X5.6087Y-3.4015
X5.6087Y-4.1495
X5.9567Y-2.772
X5.9567Y-3.52
X5.9567Y-4.2681
X6.2903Y-5.1447
X6.3567Y-2.772
X6.3567Y-3.52
X6.3567Y-4.2681
X6.6766Y-5.2482
X6.7047Y-2.8901
X6.7047Y-3.6381
X6.7047Y-4.3862
X7.0132Y-5.3728
X7.1047Y-2.8901
X7.1047Y-3.6381
X7.1047Y-4.3862
X7.3995Y-5.4763
X7.7628Y-5.4994
X8.1492Y-5.6029
T3
X3.7626Y-2.8294
X3.7626Y-3.5775
X3.7626Y-4.3255
X3.8126Y-2.7294
X3.8126Y-3.4775
X3.8126Y-4.2255
X4.0126Y-2.7294
X4.0126Y-3.4775
X4.0126Y-4.2255
X4.0626Y-2.8294
X4.0626Y-3.5775
X4.0626Y-4.3255
X4.5107Y-2.672
X4.5107Y-3.42
X4.5107Y-4.168
X4.5607Y-2.572
X4.5607Y-3.32
X4.5607Y-4.068
X4.7607Y-2.572
X4.7607Y-3.32
X4.7607Y-4.068
X4.8107Y-2.672
X4.8107Y-3.42
X4.8107Y-4.168
X5.2587Y-2.5535
X5.2587Y-3.3015
X5.2587Y-4.0495
X5.3087Y-2.4535
X5.3087Y-3.2015
X5.3087Y-3.9495
X5.5087Y-2.4535
X5.5087Y-3.2015
X5.5087Y-3.9495
X5.5587Y-2.5535
X5.5587Y-3.3015
X5.5587Y-4.0495
X6.0067Y-2.672
X6.0067Y-3.42
X6.0067Y-4.1681
X6.0567Y-2.572
X6.0567Y-3.32
X6.0567Y-4.0681
X6.2567Y-2.572
X6.2567Y-3.32
X6.2567Y-4.0681
X6.3067Y-2.672
X6.3067Y-3.42
X6.3067Y-4.1681
X6.3644Y-5.061
X6.4386Y-4.9773
X6.6318Y-5.0291
X6.6542Y-5.1386
X6.7547Y-2.7901
X6.7547Y-3.5381
X6.7547Y-4.2862
X6.8047Y-2.6901
X6.8047Y-3.4381
X6.8047Y-4.1862
X7.0047Y-2.6901
X7.0047Y-3.4381
X7.0047Y-4.1862
X7.0547Y-2.7901
X7.0547Y-3.5381
X7.0547Y-4.2862
X7.0873Y-5.2891
X7.1615Y-5.2055
X7.3547Y-5.2573
X7.3771Y-5.3668
X7.837Y-5.4158
X7.9112Y-5.3321
X8.1043Y-5.3839
X8.1268Y-5.4934
T4
X4.2162Y-2.4351
X4.3562Y-4.7151
X4.6622Y-5.5091
X6.4642Y-4.711
X6.5977Y-2.4496
X7.5242Y-5.8991
T5
X3.9126Y-2.9294
X3.9126Y-3.6775
X3.9126Y-4.4255
X4.6607Y-2.772
X4.6607Y-3.52
X4.6607Y-4.268
X5.4087Y-2.6535
X5.4087Y-3.4015
X5.4087Y-4.1495
X6.1567Y-2.772
X6.1567Y-3.52
X6.1567Y-4.2681
X6.4834Y-5.1964
X6.9047Y-2.8901
X6.9047Y-3.6381
X6.9047Y-4.3862
X7.2063Y-5.4246
X7.956Y-5.5512
T0
M30
