G04 #@! TF.GenerationSoftware,KiCad,Pcbnew,7.0.5*
G04 #@! TF.CreationDate,2023-09-06T16:02:53+08:00*
G04 #@! TF.ProjectId,thrfv,74687266-762e-46b6-9963-61645f706362,rev?*
G04 #@! TF.SameCoordinates,Original*
G04 #@! TF.FileFunction,Legend,Bot*
G04 #@! TF.FilePolarity,Positive*
%FSLAX46Y46*%
G04 Gerber Fmt 4.6, Leading zero omitted, Abs format (unit mm)*
G04 Created by KiCad (PCBNEW 7.0.5) date 2023-09-06 16:02:53*
%MOMM*%
%LPD*%
G01*
G04 APERTURE LIST*
G04 Aperture macros list*
%AMRoundRect*
0 Rectangle with rounded corners*
0 $1 Rounding radius*
0 $2 $3 $4 $5 $6 $7 $8 $9 X,Y pos of 4 corners*
0 Add a 4 corners polygon primitive as box body*
4,1,4,$2,$3,$4,$5,$6,$7,$8,$9,$2,$3,0*
0 Add four circle primitives for the rounded corners*
1,1,$1+$1,$2,$3*
1,1,$1+$1,$4,$5*
1,1,$1+$1,$6,$7*
1,1,$1+$1,$8,$9*
0 Add four rect primitives between the rounded corners*
20,1,$1+$1,$2,$3,$4,$5,0*
20,1,$1+$1,$4,$5,$6,$7,0*
20,1,$1+$1,$6,$7,$8,$9,0*
20,1,$1+$1,$8,$9,$2,$3,0*%
%AMHorizOval*
0 Thick line with rounded ends*
0 $1 width*
0 $2 $3 position (X,Y) of the first rounded end (center of the circle)*
0 $4 $5 position (X,Y) of the second rounded end (center of the circle)*
0 Add line between two ends*
20,1,$1,$2,$3,$4,$5,0*
0 Add two circle primitives to create the rounded ends*
1,1,$1,$2,$3*
1,1,$1,$4,$5*%
%AMFreePoly0*
4,1,37,1.228070,1.434758,1.247030,1.430987,1.319133,1.401121,1.335206,1.390381,1.390381,1.335206,1.401121,1.319133,1.430987,1.247030,1.434758,1.228070,1.438600,1.189056,1.438600,-1.189056,1.434758,-1.228070,1.430987,-1.247030,1.401121,-1.319133,1.390381,-1.335206,1.335206,-1.390381,1.319133,-1.401121,1.247030,-1.430987,1.228070,-1.434758,1.189056,-1.438600,-0.743160,-1.438600,
-0.829937,-1.418794,-0.884581,-1.380021,-1.380021,-0.884581,-1.427377,-0.809216,-1.438600,-0.743160,-1.438600,1.189056,-1.434758,1.228070,-1.430987,1.247030,-1.401121,1.319133,-1.390381,1.335206,-1.335206,1.390381,-1.319133,1.401121,-1.247030,1.430987,-1.228070,1.434758,-1.189056,1.438600,1.189056,1.438600,1.228070,1.434758,1.228070,1.434758,$1*%
%AMFreePoly1*
4,1,37,0.846237,1.424794,0.900881,1.386021,1.398721,0.888181,1.446077,0.812816,1.457300,0.746760,1.457300,-1.194816,1.453456,-1.233837,1.449666,-1.252889,1.419808,-1.324977,1.409017,-1.341128,1.353828,-1.396317,1.337677,-1.407108,1.265589,-1.436966,1.246537,-1.440756,1.207516,-1.444600,-1.207516,-1.444600,-1.246537,-1.440756,-1.265589,-1.436966,-1.337677,-1.407108,-1.353828,-1.396317,
-1.409017,-1.341128,-1.419808,-1.324977,-1.449666,-1.252889,-1.453456,-1.233837,-1.457300,-1.194816,-1.457300,1.194816,-1.453456,1.233837,-1.449666,1.252889,-1.419808,1.324977,-1.409017,1.341128,-1.353828,1.396317,-1.337677,1.407108,-1.265589,1.436966,-1.246537,1.440756,-1.207516,1.444600,0.759460,1.444600,0.846237,1.424794,0.846237,1.424794,$1*%
%AMFreePoly2*
4,1,22,0.106406,0.569345,0.141421,0.541421,0.741421,-0.058579,0.788777,-0.133944,0.800000,-0.200000,0.800000,-0.400000,0.780194,-0.486777,0.724698,-0.556366,0.644504,-0.594986,0.600000,-0.600000,-0.600000,-0.600000,-0.686777,-0.580194,-0.756366,-0.524698,-0.794986,-0.444504,-0.800000,-0.400000,-0.800000,-0.200000,-0.780194,-0.113223,-0.741421,-0.058579,-0.141421,0.541421,-0.066056,0.588777,
0.022393,0.598742,0.106406,0.569345,0.106406,0.569345,$1*%
%AMFreePoly3*
4,1,26,0.686777,0.430194,0.756366,0.374698,0.794986,0.294504,0.800000,0.250000,0.800000,-1.000000,0.780194,-1.086777,0.724698,-1.156366,0.644504,-1.194986,0.555496,-1.194986,0.475302,-1.156366,0.458579,-1.141421,0.000000,-0.682842,-0.458579,-1.141421,-0.533944,-1.188777,-0.622393,-1.198742,-0.706406,-1.169345,-0.769345,-1.106406,-0.798742,-1.022393,-0.800000,-1.000000,-0.800000,0.250000,
-0.780194,0.336777,-0.724698,0.406366,-0.644504,0.444986,-0.600000,0.450000,0.600000,0.450000,0.686777,0.430194,0.686777,0.430194,$1*%
G04 Aperture macros list end*
%ADD10C,0.120000*%
%ADD11C,0.150000*%
%ADD12C,0.200000*%
%ADD13C,0.100000*%
%ADD14C,2.100000*%
%ADD15C,3.400000*%
%ADD16C,4.400000*%
%ADD17RoundRect,0.200000X-1.244600X-1.244600X1.244600X-1.244600X1.244600X1.244600X-1.244600X1.244600X0*%
%ADD18FreePoly0,0.000000*%
%ADD19C,2.400000*%
%ADD20RoundRect,0.200000X0.551815X-1.804300X1.380036X1.286662X-0.551815X1.804300X-1.380036X-1.286662X0*%
%ADD21C,3.600000*%
%ADD22RoundRect,0.200000X-0.700000X0.600000X-0.700000X-0.600000X0.700000X-0.600000X0.700000X0.600000X0*%
%ADD23RoundRect,0.200000X0.700000X-0.600000X0.700000X0.600000X-0.700000X0.600000X-0.700000X-0.600000X0*%
%ADD24RoundRect,0.200000X-1.524317X-0.880065X0.880065X-1.524317X1.524317X0.880065X-0.880065X1.524317X0*%
%ADD25FreePoly0,345.000000*%
%ADD26C,1.200000*%
%ADD27HorizOval,2.000000X-0.193185X0.051764X0.193185X-0.051764X0*%
%ADD28FreePoly1,180.000000*%
%ADD29RoundRect,0.200000X1.244597X1.244597X-1.244597X1.244597X-1.244597X-1.244597X1.244597X-1.244597X0*%
%ADD30C,2.000000*%
%ADD31FreePoly2,180.000000*%
%ADD32FreePoly2,0.000000*%
%ADD33FreePoly3,0.000000*%
%ADD34FreePoly3,180.000000*%
%ADD35RoundRect,0.425000X0.340272X0.400580X-0.094394X0.517049X-0.340272X-0.400580X0.094394X-0.517049X0*%
%ADD36HorizOval,1.300000X0.064705X0.241481X-0.064705X-0.241481X0*%
%ADD37C,1.100000*%
G04 APERTURE END LIST*
D10*
X108761719Y-132727382D02*
X108793862Y-132755954D01*
X108793862Y-132755954D02*
X108883147Y-132784525D01*
X108883147Y-132784525D02*
X108940290Y-132784525D01*
X108940290Y-132784525D02*
X109022433Y-132755954D01*
X109022433Y-132755954D02*
X109072433Y-132698811D01*
X109072433Y-132698811D02*
X109093862Y-132641668D01*
X109093862Y-132641668D02*
X109108147Y-132527382D01*
X109108147Y-132527382D02*
X109097433Y-132441668D01*
X109097433Y-132441668D02*
X109054576Y-132327382D01*
X109054576Y-132327382D02*
X109018862Y-132270239D01*
X109018862Y-132270239D02*
X108954576Y-132213096D01*
X108954576Y-132213096D02*
X108865290Y-132184525D01*
X108865290Y-132184525D02*
X108808147Y-132184525D01*
X108808147Y-132184525D02*
X108726005Y-132213096D01*
X108726005Y-132213096D02*
X108701005Y-132241668D01*
X108426005Y-132784525D02*
X108479576Y-132755954D01*
X108479576Y-132755954D02*
X108504576Y-132727382D01*
X108504576Y-132727382D02*
X108526005Y-132670239D01*
X108526005Y-132670239D02*
X108504576Y-132498811D01*
X108504576Y-132498811D02*
X108468862Y-132441668D01*
X108468862Y-132441668D02*
X108436719Y-132413096D01*
X108436719Y-132413096D02*
X108376005Y-132384525D01*
X108376005Y-132384525D02*
X108290290Y-132384525D01*
X108290290Y-132384525D02*
X108236719Y-132413096D01*
X108236719Y-132413096D02*
X108211719Y-132441668D01*
X108211719Y-132441668D02*
X108190290Y-132498811D01*
X108190290Y-132498811D02*
X108211719Y-132670239D01*
X108211719Y-132670239D02*
X108247433Y-132727382D01*
X108247433Y-132727382D02*
X108279576Y-132755954D01*
X108279576Y-132755954D02*
X108340290Y-132784525D01*
X108340290Y-132784525D02*
X108426005Y-132784525D01*
X107968862Y-132784525D02*
X107918862Y-132384525D01*
X107926005Y-132441668D02*
X107893862Y-132413096D01*
X107893862Y-132413096D02*
X107833148Y-132384525D01*
X107833148Y-132384525D02*
X107747433Y-132384525D01*
X107747433Y-132384525D02*
X107693862Y-132413096D01*
X107693862Y-132413096D02*
X107672433Y-132470239D01*
X107672433Y-132470239D02*
X107711719Y-132784525D01*
X107672433Y-132470239D02*
X107636719Y-132413096D01*
X107636719Y-132413096D02*
X107576005Y-132384525D01*
X107576005Y-132384525D02*
X107490290Y-132384525D01*
X107490290Y-132384525D02*
X107436719Y-132413096D01*
X107436719Y-132413096D02*
X107415290Y-132470239D01*
X107415290Y-132470239D02*
X107454576Y-132784525D01*
X107118862Y-132384525D02*
X107193862Y-132984525D01*
X107122433Y-132413096D02*
X107061719Y-132384525D01*
X107061719Y-132384525D02*
X106947433Y-132384525D01*
X106947433Y-132384525D02*
X106893862Y-132413096D01*
X106893862Y-132413096D02*
X106868862Y-132441668D01*
X106868862Y-132441668D02*
X106847433Y-132498811D01*
X106847433Y-132498811D02*
X106868862Y-132670239D01*
X106868862Y-132670239D02*
X106904576Y-132727382D01*
X106904576Y-132727382D02*
X106936719Y-132755954D01*
X106936719Y-132755954D02*
X106997433Y-132784525D01*
X106997433Y-132784525D02*
X107111719Y-132784525D01*
X107111719Y-132784525D02*
X107165290Y-132755954D01*
X106540291Y-132784525D02*
X106593862Y-132755954D01*
X106593862Y-132755954D02*
X106618862Y-132727382D01*
X106618862Y-132727382D02*
X106640291Y-132670239D01*
X106640291Y-132670239D02*
X106618862Y-132498811D01*
X106618862Y-132498811D02*
X106583148Y-132441668D01*
X106583148Y-132441668D02*
X106551005Y-132413096D01*
X106551005Y-132413096D02*
X106490291Y-132384525D01*
X106490291Y-132384525D02*
X106404576Y-132384525D01*
X106404576Y-132384525D02*
X106351005Y-132413096D01*
X106351005Y-132413096D02*
X106326005Y-132441668D01*
X106326005Y-132441668D02*
X106304576Y-132498811D01*
X106304576Y-132498811D02*
X106326005Y-132670239D01*
X106326005Y-132670239D02*
X106361719Y-132727382D01*
X106361719Y-132727382D02*
X106393862Y-132755954D01*
X106393862Y-132755954D02*
X106454576Y-132784525D01*
X106454576Y-132784525D02*
X106540291Y-132784525D01*
X106033148Y-132384525D02*
X106083148Y-132784525D01*
X106040291Y-132441668D02*
X106008148Y-132413096D01*
X106008148Y-132413096D02*
X105947434Y-132384525D01*
X105947434Y-132384525D02*
X105861719Y-132384525D01*
X105861719Y-132384525D02*
X105808148Y-132413096D01*
X105808148Y-132413096D02*
X105786719Y-132470239D01*
X105786719Y-132470239D02*
X105826005Y-132784525D01*
X105308148Y-132755954D02*
X105368862Y-132784525D01*
X105368862Y-132784525D02*
X105483148Y-132784525D01*
X105483148Y-132784525D02*
X105536719Y-132755954D01*
X105536719Y-132755954D02*
X105558148Y-132698811D01*
X105558148Y-132698811D02*
X105529577Y-132470239D01*
X105529577Y-132470239D02*
X105493862Y-132413096D01*
X105493862Y-132413096D02*
X105433148Y-132384525D01*
X105433148Y-132384525D02*
X105318862Y-132384525D01*
X105318862Y-132384525D02*
X105265291Y-132413096D01*
X105265291Y-132413096D02*
X105243862Y-132470239D01*
X105243862Y-132470239D02*
X105251005Y-132527382D01*
X105251005Y-132527382D02*
X105543862Y-132584525D01*
X104976005Y-132384525D02*
X105026005Y-132784525D01*
X104983148Y-132441668D02*
X104951005Y-132413096D01*
X104951005Y-132413096D02*
X104890291Y-132384525D01*
X104890291Y-132384525D02*
X104804576Y-132384525D01*
X104804576Y-132384525D02*
X104751005Y-132413096D01*
X104751005Y-132413096D02*
X104729576Y-132470239D01*
X104729576Y-132470239D02*
X104768862Y-132784525D01*
X104518862Y-132384525D02*
X104290291Y-132384525D01*
X104408148Y-132184525D02*
X104472434Y-132698811D01*
X104472434Y-132698811D02*
X104451005Y-132755954D01*
X104451005Y-132755954D02*
X104397434Y-132784525D01*
X104397434Y-132784525D02*
X104340291Y-132784525D01*
X104165291Y-132755954D02*
X104111719Y-132784525D01*
X104111719Y-132784525D02*
X103997434Y-132784525D01*
X103997434Y-132784525D02*
X103936719Y-132755954D01*
X103936719Y-132755954D02*
X103901005Y-132698811D01*
X103901005Y-132698811D02*
X103897434Y-132670239D01*
X103897434Y-132670239D02*
X103918862Y-132613096D01*
X103918862Y-132613096D02*
X103972434Y-132584525D01*
X103972434Y-132584525D02*
X104058148Y-132584525D01*
X104058148Y-132584525D02*
X104111719Y-132555954D01*
X104111719Y-132555954D02*
X104133148Y-132498811D01*
X104133148Y-132498811D02*
X104129577Y-132470239D01*
X104129577Y-132470239D02*
X104093862Y-132413096D01*
X104093862Y-132413096D02*
X104033148Y-132384525D01*
X104033148Y-132384525D02*
X103947434Y-132384525D01*
X103947434Y-132384525D02*
X103893862Y-132413096D01*
X103222434Y-132755954D02*
X103168862Y-132784525D01*
X103168862Y-132784525D02*
X103054577Y-132784525D01*
X103054577Y-132784525D02*
X102993862Y-132755954D01*
X102993862Y-132755954D02*
X102958148Y-132698811D01*
X102958148Y-132698811D02*
X102954577Y-132670239D01*
X102954577Y-132670239D02*
X102976005Y-132613096D01*
X102976005Y-132613096D02*
X103029577Y-132584525D01*
X103029577Y-132584525D02*
X103115291Y-132584525D01*
X103115291Y-132584525D02*
X103168862Y-132555954D01*
X103168862Y-132555954D02*
X103190291Y-132498811D01*
X103190291Y-132498811D02*
X103186720Y-132470239D01*
X103186720Y-132470239D02*
X103151005Y-132413096D01*
X103151005Y-132413096D02*
X103090291Y-132384525D01*
X103090291Y-132384525D02*
X103004577Y-132384525D01*
X103004577Y-132384525D02*
X102951005Y-132413096D01*
X102711720Y-132784525D02*
X102661720Y-132384525D01*
X102636720Y-132184525D02*
X102668863Y-132213096D01*
X102668863Y-132213096D02*
X102643863Y-132241668D01*
X102643863Y-132241668D02*
X102611720Y-132213096D01*
X102611720Y-132213096D02*
X102636720Y-132184525D01*
X102636720Y-132184525D02*
X102643863Y-132241668D01*
X102168863Y-132784525D02*
X102093863Y-132184525D01*
X102165292Y-132755954D02*
X102226006Y-132784525D01*
X102226006Y-132784525D02*
X102340292Y-132784525D01*
X102340292Y-132784525D02*
X102393863Y-132755954D01*
X102393863Y-132755954D02*
X102418863Y-132727382D01*
X102418863Y-132727382D02*
X102440292Y-132670239D01*
X102440292Y-132670239D02*
X102418863Y-132498811D01*
X102418863Y-132498811D02*
X102383149Y-132441668D01*
X102383149Y-132441668D02*
X102351006Y-132413096D01*
X102351006Y-132413096D02*
X102290292Y-132384525D01*
X102290292Y-132384525D02*
X102176006Y-132384525D01*
X102176006Y-132384525D02*
X102122434Y-132413096D01*
X101651006Y-132755954D02*
X101711720Y-132784525D01*
X101711720Y-132784525D02*
X101826006Y-132784525D01*
X101826006Y-132784525D02*
X101879577Y-132755954D01*
X101879577Y-132755954D02*
X101901006Y-132698811D01*
X101901006Y-132698811D02*
X101872435Y-132470239D01*
X101872435Y-132470239D02*
X101836720Y-132413096D01*
X101836720Y-132413096D02*
X101776006Y-132384525D01*
X101776006Y-132384525D02*
X101661720Y-132384525D01*
X101661720Y-132384525D02*
X101608149Y-132413096D01*
X101608149Y-132413096D02*
X101586720Y-132470239D01*
X101586720Y-132470239D02*
X101593863Y-132527382D01*
X101593863Y-132527382D02*
X101886720Y-132584525D01*
X100604577Y-132384525D02*
X100654577Y-132784525D01*
X100861720Y-132384525D02*
X100901006Y-132698811D01*
X100901006Y-132698811D02*
X100879577Y-132755954D01*
X100879577Y-132755954D02*
X100826006Y-132784525D01*
X100826006Y-132784525D02*
X100740291Y-132784525D01*
X100740291Y-132784525D02*
X100679577Y-132755954D01*
X100679577Y-132755954D02*
X100647434Y-132727382D01*
X100318863Y-132384525D02*
X100393863Y-132984525D01*
X100322434Y-132413096D02*
X100261720Y-132384525D01*
X100261720Y-132384525D02*
X100147434Y-132384525D01*
X100147434Y-132384525D02*
X100093863Y-132413096D01*
X100093863Y-132413096D02*
X100068863Y-132441668D01*
X100068863Y-132441668D02*
X100047434Y-132498811D01*
X100047434Y-132498811D02*
X100068863Y-132670239D01*
X100068863Y-132670239D02*
X100104577Y-132727382D01*
X100104577Y-132727382D02*
X100136720Y-132755954D01*
X100136720Y-132755954D02*
X100197434Y-132784525D01*
X100197434Y-132784525D02*
X100311720Y-132784525D01*
X100311720Y-132784525D02*
X100365291Y-132755954D01*
X99818863Y-132727382D02*
X99793863Y-132755954D01*
X99793863Y-132755954D02*
X99826006Y-132784525D01*
X99826006Y-132784525D02*
X99851006Y-132755954D01*
X99851006Y-132755954D02*
X99818863Y-132727382D01*
X99818863Y-132727382D02*
X99826006Y-132784525D01*
X108761719Y-133693382D02*
X108793862Y-133721954D01*
X108793862Y-133721954D02*
X108883147Y-133750525D01*
X108883147Y-133750525D02*
X108940290Y-133750525D01*
X108940290Y-133750525D02*
X109022433Y-133721954D01*
X109022433Y-133721954D02*
X109072433Y-133664811D01*
X109072433Y-133664811D02*
X109093862Y-133607668D01*
X109093862Y-133607668D02*
X109108147Y-133493382D01*
X109108147Y-133493382D02*
X109097433Y-133407668D01*
X109097433Y-133407668D02*
X109054576Y-133293382D01*
X109054576Y-133293382D02*
X109018862Y-133236239D01*
X109018862Y-133236239D02*
X108954576Y-133179096D01*
X108954576Y-133179096D02*
X108865290Y-133150525D01*
X108865290Y-133150525D02*
X108808147Y-133150525D01*
X108808147Y-133150525D02*
X108726005Y-133179096D01*
X108726005Y-133179096D02*
X108701005Y-133207668D01*
X108426005Y-133750525D02*
X108479576Y-133721954D01*
X108479576Y-133721954D02*
X108501005Y-133664811D01*
X108501005Y-133664811D02*
X108436719Y-133150525D01*
X108111719Y-133750525D02*
X108165290Y-133721954D01*
X108165290Y-133721954D02*
X108190290Y-133693382D01*
X108190290Y-133693382D02*
X108211719Y-133636239D01*
X108211719Y-133636239D02*
X108190290Y-133464811D01*
X108190290Y-133464811D02*
X108154576Y-133407668D01*
X108154576Y-133407668D02*
X108122433Y-133379096D01*
X108122433Y-133379096D02*
X108061719Y-133350525D01*
X108061719Y-133350525D02*
X107976004Y-133350525D01*
X107976004Y-133350525D02*
X107922433Y-133379096D01*
X107922433Y-133379096D02*
X107897433Y-133407668D01*
X107897433Y-133407668D02*
X107876004Y-133464811D01*
X107876004Y-133464811D02*
X107897433Y-133636239D01*
X107897433Y-133636239D02*
X107933147Y-133693382D01*
X107933147Y-133693382D02*
X107965290Y-133721954D01*
X107965290Y-133721954D02*
X108026004Y-133750525D01*
X108026004Y-133750525D02*
X108111719Y-133750525D01*
X107679576Y-133721954D02*
X107626004Y-133750525D01*
X107626004Y-133750525D02*
X107511719Y-133750525D01*
X107511719Y-133750525D02*
X107451004Y-133721954D01*
X107451004Y-133721954D02*
X107415290Y-133664811D01*
X107415290Y-133664811D02*
X107411719Y-133636239D01*
X107411719Y-133636239D02*
X107433147Y-133579096D01*
X107433147Y-133579096D02*
X107486719Y-133550525D01*
X107486719Y-133550525D02*
X107572433Y-133550525D01*
X107572433Y-133550525D02*
X107626004Y-133521954D01*
X107626004Y-133521954D02*
X107647433Y-133464811D01*
X107647433Y-133464811D02*
X107643862Y-133436239D01*
X107643862Y-133436239D02*
X107608147Y-133379096D01*
X107608147Y-133379096D02*
X107547433Y-133350525D01*
X107547433Y-133350525D02*
X107461719Y-133350525D01*
X107461719Y-133350525D02*
X107408147Y-133379096D01*
X106936719Y-133721954D02*
X106997433Y-133750525D01*
X106997433Y-133750525D02*
X107111719Y-133750525D01*
X107111719Y-133750525D02*
X107165290Y-133721954D01*
X107165290Y-133721954D02*
X107186719Y-133664811D01*
X107186719Y-133664811D02*
X107158148Y-133436239D01*
X107158148Y-133436239D02*
X107122433Y-133379096D01*
X107122433Y-133379096D02*
X107061719Y-133350525D01*
X107061719Y-133350525D02*
X106947433Y-133350525D01*
X106947433Y-133350525D02*
X106893862Y-133379096D01*
X106893862Y-133379096D02*
X106872433Y-133436239D01*
X106872433Y-133436239D02*
X106879576Y-133493382D01*
X106879576Y-133493382D02*
X107172433Y-133550525D01*
X106147433Y-133350525D02*
X106211719Y-133864811D01*
X106211719Y-133864811D02*
X106247433Y-133921954D01*
X106247433Y-133921954D02*
X106308147Y-133950525D01*
X106308147Y-133950525D02*
X106336719Y-133950525D01*
X106122433Y-133150525D02*
X106154576Y-133179096D01*
X106154576Y-133179096D02*
X106129576Y-133207668D01*
X106129576Y-133207668D02*
X106097433Y-133179096D01*
X106097433Y-133179096D02*
X106122433Y-133150525D01*
X106122433Y-133150525D02*
X106129576Y-133207668D01*
X105604576Y-133350525D02*
X105654576Y-133750525D01*
X105861719Y-133350525D02*
X105901005Y-133664811D01*
X105901005Y-133664811D02*
X105879576Y-133721954D01*
X105879576Y-133721954D02*
X105826005Y-133750525D01*
X105826005Y-133750525D02*
X105740290Y-133750525D01*
X105740290Y-133750525D02*
X105679576Y-133721954D01*
X105679576Y-133721954D02*
X105647433Y-133693382D01*
X105368862Y-133750525D02*
X105318862Y-133350525D01*
X105326005Y-133407668D02*
X105293862Y-133379096D01*
X105293862Y-133379096D02*
X105233148Y-133350525D01*
X105233148Y-133350525D02*
X105147433Y-133350525D01*
X105147433Y-133350525D02*
X105093862Y-133379096D01*
X105093862Y-133379096D02*
X105072433Y-133436239D01*
X105072433Y-133436239D02*
X105111719Y-133750525D01*
X105072433Y-133436239D02*
X105036719Y-133379096D01*
X105036719Y-133379096D02*
X104976005Y-133350525D01*
X104976005Y-133350525D02*
X104890290Y-133350525D01*
X104890290Y-133350525D02*
X104836719Y-133379096D01*
X104836719Y-133379096D02*
X104815290Y-133436239D01*
X104815290Y-133436239D02*
X104854576Y-133750525D01*
X104518862Y-133350525D02*
X104593862Y-133950525D01*
X104522433Y-133379096D02*
X104461719Y-133350525D01*
X104461719Y-133350525D02*
X104347433Y-133350525D01*
X104347433Y-133350525D02*
X104293862Y-133379096D01*
X104293862Y-133379096D02*
X104268862Y-133407668D01*
X104268862Y-133407668D02*
X104247433Y-133464811D01*
X104247433Y-133464811D02*
X104268862Y-133636239D01*
X104268862Y-133636239D02*
X104304576Y-133693382D01*
X104304576Y-133693382D02*
X104336719Y-133721954D01*
X104336719Y-133721954D02*
X104397433Y-133750525D01*
X104397433Y-133750525D02*
X104511719Y-133750525D01*
X104511719Y-133750525D02*
X104565290Y-133721954D01*
X103793862Y-133721954D02*
X103854576Y-133750525D01*
X103854576Y-133750525D02*
X103968862Y-133750525D01*
X103968862Y-133750525D02*
X104022433Y-133721954D01*
X104022433Y-133721954D02*
X104043862Y-133664811D01*
X104043862Y-133664811D02*
X104015291Y-133436239D01*
X104015291Y-133436239D02*
X103979576Y-133379096D01*
X103979576Y-133379096D02*
X103918862Y-133350525D01*
X103918862Y-133350525D02*
X103804576Y-133350525D01*
X103804576Y-133350525D02*
X103751005Y-133379096D01*
X103751005Y-133379096D02*
X103729576Y-133436239D01*
X103729576Y-133436239D02*
X103736719Y-133493382D01*
X103736719Y-133493382D02*
X104029576Y-133550525D01*
X103511719Y-133750525D02*
X103461719Y-133350525D01*
X103476005Y-133464811D02*
X103440290Y-133407668D01*
X103440290Y-133407668D02*
X103408147Y-133379096D01*
X103408147Y-133379096D02*
X103347433Y-133350525D01*
X103347433Y-133350525D02*
X103290290Y-133350525D01*
X103111718Y-133521954D02*
X102654576Y-133521954D01*
X102347433Y-133350525D02*
X102422433Y-133950525D01*
X102351004Y-133379096D02*
X102290290Y-133350525D01*
X102290290Y-133350525D02*
X102176004Y-133350525D01*
X102176004Y-133350525D02*
X102122433Y-133379096D01*
X102122433Y-133379096D02*
X102097433Y-133407668D01*
X102097433Y-133407668D02*
X102076004Y-133464811D01*
X102076004Y-133464811D02*
X102097433Y-133636239D01*
X102097433Y-133636239D02*
X102133147Y-133693382D01*
X102133147Y-133693382D02*
X102165290Y-133721954D01*
X102165290Y-133721954D02*
X102226004Y-133750525D01*
X102226004Y-133750525D02*
X102340290Y-133750525D01*
X102340290Y-133750525D02*
X102393861Y-133721954D01*
X101597433Y-133750525D02*
X101558147Y-133436239D01*
X101558147Y-133436239D02*
X101579576Y-133379096D01*
X101579576Y-133379096D02*
X101633147Y-133350525D01*
X101633147Y-133350525D02*
X101747433Y-133350525D01*
X101747433Y-133350525D02*
X101808147Y-133379096D01*
X101593862Y-133721954D02*
X101654576Y-133750525D01*
X101654576Y-133750525D02*
X101797433Y-133750525D01*
X101797433Y-133750525D02*
X101851004Y-133721954D01*
X101851004Y-133721954D02*
X101872433Y-133664811D01*
X101872433Y-133664811D02*
X101865290Y-133607668D01*
X101865290Y-133607668D02*
X101829576Y-133550525D01*
X101829576Y-133550525D02*
X101768862Y-133521954D01*
X101768862Y-133521954D02*
X101626004Y-133521954D01*
X101626004Y-133521954D02*
X101565290Y-133493382D01*
X101054576Y-133750525D02*
X100979576Y-133150525D01*
X101051005Y-133721954D02*
X101111719Y-133750525D01*
X101111719Y-133750525D02*
X101226005Y-133750525D01*
X101226005Y-133750525D02*
X101279576Y-133721954D01*
X101279576Y-133721954D02*
X101304576Y-133693382D01*
X101304576Y-133693382D02*
X101326005Y-133636239D01*
X101326005Y-133636239D02*
X101304576Y-133464811D01*
X101304576Y-133464811D02*
X101268862Y-133407668D01*
X101268862Y-133407668D02*
X101236719Y-133379096D01*
X101236719Y-133379096D02*
X101176005Y-133350525D01*
X101176005Y-133350525D02*
X101061719Y-133350525D01*
X101061719Y-133350525D02*
X101008147Y-133379096D01*
X100793862Y-133721954D02*
X100740290Y-133750525D01*
X100740290Y-133750525D02*
X100626005Y-133750525D01*
X100626005Y-133750525D02*
X100565290Y-133721954D01*
X100565290Y-133721954D02*
X100529576Y-133664811D01*
X100529576Y-133664811D02*
X100526005Y-133636239D01*
X100526005Y-133636239D02*
X100547433Y-133579096D01*
X100547433Y-133579096D02*
X100601005Y-133550525D01*
X100601005Y-133550525D02*
X100686719Y-133550525D01*
X100686719Y-133550525D02*
X100740290Y-133521954D01*
X100740290Y-133521954D02*
X100761719Y-133464811D01*
X100761719Y-133464811D02*
X100758148Y-133436239D01*
X100758148Y-133436239D02*
X100722433Y-133379096D01*
X100722433Y-133379096D02*
X100661719Y-133350525D01*
X100661719Y-133350525D02*
X100576005Y-133350525D01*
X100576005Y-133350525D02*
X100522433Y-133379096D01*
X99740291Y-133750525D02*
X99793862Y-133721954D01*
X99793862Y-133721954D02*
X99818862Y-133693382D01*
X99818862Y-133693382D02*
X99840291Y-133636239D01*
X99840291Y-133636239D02*
X99818862Y-133464811D01*
X99818862Y-133464811D02*
X99783148Y-133407668D01*
X99783148Y-133407668D02*
X99751005Y-133379096D01*
X99751005Y-133379096D02*
X99690291Y-133350525D01*
X99690291Y-133350525D02*
X99604576Y-133350525D01*
X99604576Y-133350525D02*
X99551005Y-133379096D01*
X99551005Y-133379096D02*
X99526005Y-133407668D01*
X99526005Y-133407668D02*
X99504576Y-133464811D01*
X99504576Y-133464811D02*
X99526005Y-133636239D01*
X99526005Y-133636239D02*
X99561719Y-133693382D01*
X99561719Y-133693382D02*
X99593862Y-133721954D01*
X99593862Y-133721954D02*
X99654576Y-133750525D01*
X99654576Y-133750525D02*
X99740291Y-133750525D01*
X99233148Y-133350525D02*
X99283148Y-133750525D01*
X99240291Y-133407668D02*
X99208148Y-133379096D01*
X99208148Y-133379096D02*
X99147434Y-133350525D01*
X99147434Y-133350525D02*
X99061719Y-133350525D01*
X99061719Y-133350525D02*
X99008148Y-133379096D01*
X99008148Y-133379096D02*
X98986719Y-133436239D01*
X98986719Y-133436239D02*
X99026005Y-133750525D01*
X109147433Y-134316525D02*
X108918862Y-134316525D01*
X109036719Y-134116525D02*
X109101005Y-134630811D01*
X109101005Y-134630811D02*
X109079576Y-134687954D01*
X109079576Y-134687954D02*
X109026005Y-134716525D01*
X109026005Y-134716525D02*
X108968862Y-134716525D01*
X108768862Y-134716525D02*
X108693862Y-134116525D01*
X108511719Y-134716525D02*
X108472433Y-134402239D01*
X108472433Y-134402239D02*
X108493862Y-134345096D01*
X108493862Y-134345096D02*
X108547433Y-134316525D01*
X108547433Y-134316525D02*
X108633148Y-134316525D01*
X108633148Y-134316525D02*
X108693862Y-134345096D01*
X108693862Y-134345096D02*
X108726005Y-134373668D01*
X107993862Y-134687954D02*
X108054576Y-134716525D01*
X108054576Y-134716525D02*
X108168862Y-134716525D01*
X108168862Y-134716525D02*
X108222433Y-134687954D01*
X108222433Y-134687954D02*
X108243862Y-134630811D01*
X108243862Y-134630811D02*
X108215291Y-134402239D01*
X108215291Y-134402239D02*
X108179576Y-134345096D01*
X108179576Y-134345096D02*
X108118862Y-134316525D01*
X108118862Y-134316525D02*
X108004576Y-134316525D01*
X108004576Y-134316525D02*
X107951005Y-134345096D01*
X107951005Y-134345096D02*
X107929576Y-134402239D01*
X107929576Y-134402239D02*
X107936719Y-134459382D01*
X107936719Y-134459382D02*
X108229576Y-134516525D01*
X107168862Y-134716525D02*
X107222433Y-134687954D01*
X107222433Y-134687954D02*
X107247433Y-134659382D01*
X107247433Y-134659382D02*
X107268862Y-134602239D01*
X107268862Y-134602239D02*
X107247433Y-134430811D01*
X107247433Y-134430811D02*
X107211719Y-134373668D01*
X107211719Y-134373668D02*
X107179576Y-134345096D01*
X107179576Y-134345096D02*
X107118862Y-134316525D01*
X107118862Y-134316525D02*
X107033147Y-134316525D01*
X107033147Y-134316525D02*
X106979576Y-134345096D01*
X106979576Y-134345096D02*
X106954576Y-134373668D01*
X106954576Y-134373668D02*
X106933147Y-134430811D01*
X106933147Y-134430811D02*
X106954576Y-134602239D01*
X106954576Y-134602239D02*
X106990290Y-134659382D01*
X106990290Y-134659382D02*
X107022433Y-134687954D01*
X107022433Y-134687954D02*
X107083147Y-134716525D01*
X107083147Y-134716525D02*
X107168862Y-134716525D01*
X106747433Y-134316525D02*
X106518862Y-134316525D01*
X106636719Y-134116525D02*
X106701005Y-134630811D01*
X106701005Y-134630811D02*
X106679576Y-134687954D01*
X106679576Y-134687954D02*
X106626005Y-134716525D01*
X106626005Y-134716525D02*
X106568862Y-134716525D01*
X106368862Y-134716525D02*
X106293862Y-134116525D01*
X106111719Y-134716525D02*
X106072433Y-134402239D01*
X106072433Y-134402239D02*
X106093862Y-134345096D01*
X106093862Y-134345096D02*
X106147433Y-134316525D01*
X106147433Y-134316525D02*
X106233148Y-134316525D01*
X106233148Y-134316525D02*
X106293862Y-134345096D01*
X106293862Y-134345096D02*
X106326005Y-134373668D01*
X105593862Y-134687954D02*
X105654576Y-134716525D01*
X105654576Y-134716525D02*
X105768862Y-134716525D01*
X105768862Y-134716525D02*
X105822433Y-134687954D01*
X105822433Y-134687954D02*
X105843862Y-134630811D01*
X105843862Y-134630811D02*
X105815291Y-134402239D01*
X105815291Y-134402239D02*
X105779576Y-134345096D01*
X105779576Y-134345096D02*
X105718862Y-134316525D01*
X105718862Y-134316525D02*
X105604576Y-134316525D01*
X105604576Y-134316525D02*
X105551005Y-134345096D01*
X105551005Y-134345096D02*
X105529576Y-134402239D01*
X105529576Y-134402239D02*
X105536719Y-134459382D01*
X105536719Y-134459382D02*
X105829576Y-134516525D01*
X105311719Y-134716525D02*
X105261719Y-134316525D01*
X105276005Y-134430811D02*
X105240290Y-134373668D01*
X105240290Y-134373668D02*
X105208147Y-134345096D01*
X105208147Y-134345096D02*
X105147433Y-134316525D01*
X105147433Y-134316525D02*
X105090290Y-134316525D01*
X104508147Y-134687954D02*
X104454575Y-134716525D01*
X104454575Y-134716525D02*
X104340290Y-134716525D01*
X104340290Y-134716525D02*
X104279575Y-134687954D01*
X104279575Y-134687954D02*
X104243861Y-134630811D01*
X104243861Y-134630811D02*
X104240290Y-134602239D01*
X104240290Y-134602239D02*
X104261718Y-134545096D01*
X104261718Y-134545096D02*
X104315290Y-134516525D01*
X104315290Y-134516525D02*
X104401004Y-134516525D01*
X104401004Y-134516525D02*
X104454575Y-134487954D01*
X104454575Y-134487954D02*
X104476004Y-134430811D01*
X104476004Y-134430811D02*
X104472433Y-134402239D01*
X104472433Y-134402239D02*
X104436718Y-134345096D01*
X104436718Y-134345096D02*
X104376004Y-134316525D01*
X104376004Y-134316525D02*
X104290290Y-134316525D01*
X104290290Y-134316525D02*
X104236718Y-134345096D01*
X103997433Y-134716525D02*
X103947433Y-134316525D01*
X103922433Y-134116525D02*
X103954576Y-134145096D01*
X103954576Y-134145096D02*
X103929576Y-134173668D01*
X103929576Y-134173668D02*
X103897433Y-134145096D01*
X103897433Y-134145096D02*
X103922433Y-134116525D01*
X103922433Y-134116525D02*
X103929576Y-134173668D01*
X103454576Y-134716525D02*
X103379576Y-134116525D01*
X103451005Y-134687954D02*
X103511719Y-134716525D01*
X103511719Y-134716525D02*
X103626005Y-134716525D01*
X103626005Y-134716525D02*
X103679576Y-134687954D01*
X103679576Y-134687954D02*
X103704576Y-134659382D01*
X103704576Y-134659382D02*
X103726005Y-134602239D01*
X103726005Y-134602239D02*
X103704576Y-134430811D01*
X103704576Y-134430811D02*
X103668862Y-134373668D01*
X103668862Y-134373668D02*
X103636719Y-134345096D01*
X103636719Y-134345096D02*
X103576005Y-134316525D01*
X103576005Y-134316525D02*
X103461719Y-134316525D01*
X103461719Y-134316525D02*
X103408147Y-134345096D01*
X102936719Y-134687954D02*
X102997433Y-134716525D01*
X102997433Y-134716525D02*
X103111719Y-134716525D01*
X103111719Y-134716525D02*
X103165290Y-134687954D01*
X103165290Y-134687954D02*
X103186719Y-134630811D01*
X103186719Y-134630811D02*
X103158148Y-134402239D01*
X103158148Y-134402239D02*
X103122433Y-134345096D01*
X103122433Y-134345096D02*
X103061719Y-134316525D01*
X103061719Y-134316525D02*
X102947433Y-134316525D01*
X102947433Y-134316525D02*
X102893862Y-134345096D01*
X102893862Y-134345096D02*
X102872433Y-134402239D01*
X102872433Y-134402239D02*
X102879576Y-134459382D01*
X102879576Y-134459382D02*
X103172433Y-134516525D01*
X102647433Y-134659382D02*
X102622433Y-134687954D01*
X102622433Y-134687954D02*
X102654576Y-134716525D01*
X102654576Y-134716525D02*
X102679576Y-134687954D01*
X102679576Y-134687954D02*
X102647433Y-134659382D01*
X102647433Y-134659382D02*
X102654576Y-134716525D01*
D11*
X93570571Y-132777489D02*
X94380094Y-132777489D01*
X94380094Y-132777489D02*
X94475332Y-132825108D01*
X94475332Y-132825108D02*
X94522952Y-132872727D01*
X94522952Y-132872727D02*
X94570571Y-132967965D01*
X94570571Y-132967965D02*
X94570571Y-133158441D01*
X94570571Y-133158441D02*
X94522952Y-133253679D01*
X94522952Y-133253679D02*
X94475332Y-133301298D01*
X94475332Y-133301298D02*
X94380094Y-133348917D01*
X94380094Y-133348917D02*
X93570571Y-133348917D01*
X94570571Y-134348917D02*
X94570571Y-133777489D01*
X94570571Y-134063203D02*
X93570571Y-134063203D01*
X93570571Y-134063203D02*
X93713428Y-133967965D01*
X93713428Y-133967965D02*
X93808666Y-133872727D01*
X93808666Y-133872727D02*
X93856285Y-133777489D01*
X112294469Y-103539078D02*
X112294469Y-107484078D01*
X112294469Y-107493078D02*
X115904469Y-107493078D01*
X123194469Y-101585078D02*
X114569469Y-101585078D01*
X123194469Y-105493078D02*
X123194469Y-101585078D01*
X123194469Y-105539078D02*
X118144469Y-105585078D01*
X114569469Y-101585079D02*
G75*
G03*
X112305470Y-103469078I-190000J-2073999D01*
G01*
X118169469Y-105589079D02*
G75*
G03*
X115909470Y-107469077I-190001J-2069997D01*
G01*
X112294469Y-84539478D02*
X112294469Y-88484478D01*
X112294469Y-88493478D02*
X115904469Y-88493478D01*
X123194469Y-82585478D02*
X114569469Y-82585478D01*
X123194469Y-86493478D02*
X123194469Y-82585478D01*
X123194469Y-86539478D02*
X118144469Y-86585478D01*
X114569469Y-82585479D02*
G75*
G03*
X112305470Y-84469478I-190000J-2073999D01*
G01*
X118169469Y-86589479D02*
G75*
G03*
X115909470Y-88469477I-190001J-2069997D01*
G01*
D10*
X206202332Y-148418880D02*
X194804407Y-145364815D01*
X207263490Y-144458584D02*
X206202332Y-148418880D01*
X208298766Y-140594881D02*
X209359925Y-136634585D01*
X209359925Y-136634585D02*
X207041703Y-136013419D01*
X204916666Y-135444017D02*
X202405259Y-134771088D01*
X202565129Y-141129110D02*
X201599203Y-140870290D01*
X201952756Y-141482663D02*
X202211576Y-140516737D01*
X200280222Y-134201686D02*
X197962000Y-133580520D01*
X196470505Y-147260631D02*
X196258373Y-146893208D01*
X196103082Y-147472763D02*
X196470505Y-147260631D01*
X196258373Y-146893208D02*
X196103082Y-147472763D01*
X195865566Y-141404519D02*
X194804407Y-145364815D01*
X197962000Y-133580520D02*
X196900842Y-137540816D01*
X205082166Y-140999700D02*
G75*
G03*
X205082166Y-140999700I-3000000J0D01*
G01*
D12*
X162180880Y-96607988D02*
X164580880Y-96607988D01*
X164580880Y-96607988D02*
X164580880Y-90607988D01*
X164580880Y-90607988D02*
X162180880Y-90607988D01*
X162180880Y-90607988D02*
X162180880Y-96607988D01*
X164580880Y-91166388D02*
X162180880Y-91166388D01*
X162180880Y-90607988D01*
X164580880Y-90607988D01*
X164580880Y-91166388D01*
G36*
X164580880Y-91166388D02*
G01*
X162180880Y-91166388D01*
X162180880Y-90607988D01*
X164580880Y-90607988D01*
X164580880Y-91166388D01*
G37*
X183580578Y-113009188D02*
X181180578Y-113009188D01*
X181180578Y-113009188D02*
X181180578Y-119009188D01*
X181180578Y-119009188D02*
X183580578Y-119009188D01*
X183580578Y-119009188D02*
X183580578Y-113009188D01*
X183580578Y-119009188D02*
X181180578Y-119009188D01*
X181180578Y-118450788D01*
X183580578Y-118450788D01*
X183580578Y-119009188D01*
G36*
X183580578Y-119009188D02*
G01*
X181180578Y-119009188D01*
X181180578Y-118450788D01*
X183580578Y-118450788D01*
X183580578Y-119009188D01*
G37*
X145580680Y-68998628D02*
X143180680Y-68998628D01*
X143180680Y-68998628D02*
X143180680Y-74998628D01*
X143180680Y-74998628D02*
X145580680Y-74998628D01*
X145580680Y-74998628D02*
X145580680Y-68998628D01*
X145580680Y-74998628D02*
X143180680Y-74998628D01*
X143180680Y-74440228D01*
X145580680Y-74440228D01*
X145580680Y-74998628D01*
G36*
X145580680Y-74998628D02*
G01*
X143180680Y-74998628D01*
X143180680Y-74440228D01*
X145580680Y-74440228D01*
X145580680Y-74998628D01*
G37*
X183580578Y-94009188D02*
X181180578Y-94009188D01*
X181180578Y-94009188D02*
X181180578Y-100009188D01*
X181180578Y-100009188D02*
X183580578Y-100009188D01*
X183580578Y-100009188D02*
X183580578Y-94009188D01*
X183580578Y-100009188D02*
X181180578Y-100009188D01*
X181180578Y-99450788D01*
X183580578Y-99450788D01*
X183580578Y-100009188D01*
G36*
X183580578Y-100009188D02*
G01*
X181180578Y-100009188D01*
X181180578Y-99450788D01*
X183580578Y-99450788D01*
X183580578Y-100009188D01*
G37*
D11*
X160060125Y-125710351D02*
X159039084Y-129520929D01*
X159036755Y-129529622D02*
X162523747Y-130463959D01*
X171094449Y-126644060D02*
X162763339Y-124411746D01*
X170082985Y-130418898D02*
X171094449Y-126644060D01*
X170071079Y-130463331D02*
X165181248Y-129200727D01*
X162763339Y-124411745D02*
G75*
G03*
X160088868Y-125645583I-720316J-1954155D01*
G01*
X165204361Y-129211062D02*
G75*
G03*
X162534790Y-130442070I-719282J-1950288D01*
G01*
X93294269Y-88538878D02*
X93294269Y-92483878D01*
X93294269Y-92492878D02*
X96904269Y-92492878D01*
X104194269Y-86584878D02*
X95569269Y-86584878D01*
X104194269Y-90492878D02*
X104194269Y-86584878D01*
X104194269Y-90538878D02*
X99144269Y-90584878D01*
X95569269Y-86584879D02*
G75*
G03*
X93305270Y-88468878I-190000J-2073999D01*
G01*
X99169269Y-90588879D02*
G75*
G03*
X96909270Y-92468877I-190001J-2069997D01*
G01*
D12*
X183552152Y-123620194D02*
X181152152Y-123620194D01*
X181152152Y-123620194D02*
X181152152Y-129620194D01*
X181152152Y-129620194D02*
X183552152Y-129620194D01*
X183552152Y-129620194D02*
X183552152Y-123620194D01*
X183552152Y-129620194D02*
X181152152Y-129620194D01*
X181152152Y-129061794D01*
X183552152Y-129061794D01*
X183552152Y-129620194D01*
G36*
X183552152Y-129620194D02*
G01*
X181152152Y-129620194D01*
X181152152Y-129061794D01*
X183552152Y-129061794D01*
X183552152Y-129620194D01*
G37*
D11*
X178422100Y-131505285D02*
X177401059Y-135315863D01*
X177398730Y-135324556D02*
X180885722Y-136258893D01*
X189456424Y-132438994D02*
X181125314Y-130206680D01*
X188444960Y-136213832D02*
X189456424Y-132438994D01*
X188433054Y-136258265D02*
X183543223Y-134995661D01*
X181125314Y-130206679D02*
G75*
G03*
X178450843Y-131440517I-720316J-1954155D01*
G01*
X183566336Y-135005996D02*
G75*
G03*
X180896765Y-136237004I-719282J-1950288D01*
G01*
X131293869Y-100529278D02*
X131293869Y-104474278D01*
X131293869Y-104483278D02*
X134903869Y-104483278D01*
X142193869Y-98575278D02*
X133568869Y-98575278D01*
X142193869Y-102483278D02*
X142193869Y-98575278D01*
X142193869Y-102529278D02*
X137143869Y-102575278D01*
X133568869Y-98575279D02*
G75*
G03*
X131304870Y-100459278I-190000J-2073999D01*
G01*
X137168869Y-102579279D02*
G75*
G03*
X134908870Y-104459277I-190001J-2069997D01*
G01*
D12*
X124181280Y-96608188D02*
X126581280Y-96608188D01*
X126581280Y-96608188D02*
X126581280Y-90608188D01*
X126581280Y-90608188D02*
X124181280Y-90608188D01*
X124181280Y-90608188D02*
X124181280Y-96608188D01*
X126581280Y-91166588D02*
X124181280Y-91166588D01*
X124181280Y-90608188D01*
X126581280Y-90608188D01*
X126581280Y-91166588D01*
G36*
X126581280Y-91166588D02*
G01*
X124181280Y-91166588D01*
X124181280Y-90608188D01*
X126581280Y-90608188D01*
X126581280Y-91166588D01*
G37*
D11*
X150294069Y-65539318D02*
X150294069Y-69484318D01*
X150294069Y-69493318D02*
X153904069Y-69493318D01*
X161194069Y-63585318D02*
X152569069Y-63585318D01*
X161194069Y-67493318D02*
X161194069Y-63585318D01*
X161194069Y-67539318D02*
X156144069Y-67585318D01*
X152569069Y-63585319D02*
G75*
G03*
X150305070Y-65469318I-190000J-2073999D01*
G01*
X156169069Y-67589319D02*
G75*
G03*
X153909070Y-69469317I-190001J-2069997D01*
G01*
X112294469Y-65539878D02*
X112294469Y-69484878D01*
X112294469Y-69493878D02*
X115904469Y-69493878D01*
X123194469Y-63585878D02*
X114569469Y-63585878D01*
X123194469Y-67493878D02*
X123194469Y-63585878D01*
X123194469Y-67539878D02*
X118144469Y-67585878D01*
X114569469Y-63585879D02*
G75*
G03*
X112305470Y-65469878I-190000J-2073999D01*
G01*
X118169469Y-67589879D02*
G75*
G03*
X115909470Y-69469877I-190001J-2069997D01*
G01*
D12*
X176352152Y-123620194D02*
X173952152Y-123620194D01*
X173952152Y-123620194D02*
X173952152Y-129620194D01*
X173952152Y-129620194D02*
X176352152Y-129620194D01*
X176352152Y-129620194D02*
X176352152Y-123620194D01*
X176352152Y-129620194D02*
X173952152Y-129620194D01*
X173952152Y-129061794D01*
X176352152Y-129061794D01*
X176352152Y-129620194D01*
G36*
X176352152Y-129620194D02*
G01*
X173952152Y-129620194D01*
X173952152Y-129061794D01*
X176352152Y-129061794D01*
X176352152Y-129620194D01*
G37*
X162180880Y-77608028D02*
X164580880Y-77608028D01*
X164580880Y-77608028D02*
X164580880Y-71608028D01*
X164580880Y-71608028D02*
X162180880Y-71608028D01*
X162180880Y-71608028D02*
X162180880Y-77608028D01*
X164580880Y-72166428D02*
X162180880Y-72166428D01*
X162180880Y-71608028D01*
X164580880Y-71608028D01*
X164580880Y-72166428D01*
G36*
X164580880Y-72166428D02*
G01*
X162180880Y-72166428D01*
X162180880Y-71608028D01*
X164580880Y-71608028D01*
X164580880Y-72166428D01*
G37*
D11*
X169293767Y-68539878D02*
X169293767Y-72484878D01*
X169293767Y-72493878D02*
X172903767Y-72493878D01*
X180193767Y-66585878D02*
X171568767Y-66585878D01*
X180193767Y-70493878D02*
X180193767Y-66585878D01*
X180193767Y-70539878D02*
X175143767Y-70585878D01*
X171568767Y-66585879D02*
G75*
G03*
X169304768Y-68469878I-190000J-2073999D01*
G01*
X175168767Y-70589879D02*
G75*
G03*
X172908768Y-72469877I-190001J-2069997D01*
G01*
D12*
X145580680Y-106998788D02*
X143180680Y-106998788D01*
X143180680Y-106998788D02*
X143180680Y-112998788D01*
X143180680Y-112998788D02*
X145580680Y-112998788D01*
X145580680Y-112998788D02*
X145580680Y-106998788D01*
X145580680Y-112998788D02*
X143180680Y-112998788D01*
X143180680Y-112440388D01*
X145580680Y-112440388D01*
X145580680Y-112998788D01*
G36*
X145580680Y-112998788D02*
G01*
X143180680Y-112998788D01*
X143180680Y-112440388D01*
X145580680Y-112440388D01*
X145580680Y-112998788D01*
G37*
X124181280Y-115607788D02*
X126581280Y-115607788D01*
X126581280Y-115607788D02*
X126581280Y-109607788D01*
X126581280Y-109607788D02*
X124181280Y-109607788D01*
X124181280Y-109607788D02*
X124181280Y-115607788D01*
X126581280Y-110166188D02*
X124181280Y-110166188D01*
X124181280Y-109607788D01*
X126581280Y-109607788D01*
X126581280Y-110166188D01*
G36*
X126581280Y-110166188D02*
G01*
X124181280Y-110166188D01*
X124181280Y-109607788D01*
X126581280Y-109607788D01*
X126581280Y-110166188D01*
G37*
X145580680Y-87998588D02*
X143180680Y-87998588D01*
X143180680Y-87998588D02*
X143180680Y-93998588D01*
X143180680Y-93998588D02*
X145580680Y-93998588D01*
X145580680Y-93998588D02*
X145580680Y-87998588D01*
X145580680Y-93998588D02*
X143180680Y-93998588D01*
X143180680Y-93440188D01*
X145580680Y-93440188D01*
X145580680Y-93998588D01*
G36*
X145580680Y-93998588D02*
G01*
X143180680Y-93998588D01*
X143180680Y-93440188D01*
X145580680Y-93440188D01*
X145580680Y-93998588D01*
G37*
X107581080Y-95208388D02*
X105181080Y-95208388D01*
X105181080Y-95208388D02*
X105181080Y-101208388D01*
X105181080Y-101208388D02*
X107581080Y-101208388D01*
X107581080Y-101208388D02*
X107581080Y-95208388D01*
X107581080Y-101208388D02*
X105181080Y-101208388D01*
X105181080Y-100649988D01*
X107581080Y-100649988D01*
X107581080Y-101208388D01*
G36*
X107581080Y-101208388D02*
G01*
X105181080Y-101208388D01*
X105181080Y-100649988D01*
X107581080Y-100649988D01*
X107581080Y-101208388D01*
G37*
D11*
X150294069Y-103539678D02*
X150294069Y-107484678D01*
X150294069Y-107493678D02*
X153904069Y-107493678D01*
X161194069Y-101585678D02*
X152569069Y-101585678D01*
X161194069Y-105493678D02*
X161194069Y-101585678D01*
X161194069Y-105539678D02*
X156144069Y-105585678D01*
X152569069Y-101585679D02*
G75*
G03*
X150305070Y-103469678I-190000J-2073999D01*
G01*
X156169069Y-105589679D02*
G75*
G03*
X153909070Y-107469677I-190001J-2069997D01*
G01*
X215018550Y-128043920D02*
X203330848Y-124912210D01*
X215018550Y-128043920D02*
X213439754Y-133936068D01*
X203330848Y-124912210D02*
X201752051Y-130804357D01*
X216885697Y-128803040D02*
X215436310Y-134212224D01*
X214953845Y-128285402D02*
X216885697Y-128803040D01*
X213504459Y-133694586D02*
X215436310Y-134212224D01*
X213439754Y-133936068D02*
X201752051Y-130804357D01*
D12*
X107581080Y-76007988D02*
X105181080Y-76007988D01*
X105181080Y-76007988D02*
X105181080Y-82007988D01*
X105181080Y-82007988D02*
X107581080Y-82007988D01*
X107581080Y-82007988D02*
X107581080Y-76007988D01*
X107581080Y-82007988D02*
X105181080Y-82007988D01*
X105181080Y-81449588D01*
X107581080Y-81449588D01*
X107581080Y-82007988D01*
G36*
X107581080Y-82007988D02*
G01*
X105181080Y-82007988D01*
X105181080Y-81449588D01*
X107581080Y-81449588D01*
X107581080Y-82007988D01*
G37*
X179952152Y-123620194D02*
X177552152Y-123620194D01*
X177552152Y-123620194D02*
X177552152Y-129620194D01*
X177552152Y-129620194D02*
X179952152Y-129620194D01*
X179952152Y-129620194D02*
X179952152Y-123620194D01*
X179952152Y-129620194D02*
X177552152Y-129620194D01*
X177552152Y-129061794D01*
X179952152Y-129061794D01*
X179952152Y-129620194D01*
G36*
X179952152Y-129620194D02*
G01*
X177552152Y-129620194D01*
X177552152Y-129061794D01*
X179952152Y-129061794D01*
X179952152Y-129620194D01*
G37*
D11*
X197462976Y-134721118D02*
X196441935Y-138531696D01*
X196439606Y-138540389D02*
X199926598Y-139474726D01*
X208497300Y-135654827D02*
X200166190Y-133422513D01*
X207485836Y-139429665D02*
X208497300Y-135654827D01*
X207473930Y-139474098D02*
X202584099Y-138211494D01*
X200166190Y-133422512D02*
G75*
G03*
X197491719Y-134656350I-720316J-1954155D01*
G01*
X202607212Y-138221829D02*
G75*
G03*
X199937641Y-139452837I-719282J-1950288D01*
G01*
X169293767Y-106539678D02*
X169293767Y-110484678D01*
X169293767Y-110493678D02*
X172903767Y-110493678D01*
X180193767Y-104585678D02*
X171568767Y-104585678D01*
X180193767Y-108493678D02*
X180193767Y-104585678D01*
X180193767Y-108539678D02*
X175143767Y-108585678D01*
X171568767Y-104585679D02*
G75*
G03*
X169304768Y-106469678I-190000J-2073999D01*
G01*
X175168767Y-108589679D02*
G75*
G03*
X172908768Y-110469677I-190001J-2069997D01*
G01*
X150294069Y-84539278D02*
X150294069Y-88484278D01*
X150294069Y-88493278D02*
X153904069Y-88493278D01*
X161194069Y-82585278D02*
X152569069Y-82585278D01*
X161194069Y-86493278D02*
X161194069Y-82585278D01*
X161194069Y-86539278D02*
X156144069Y-86585278D01*
X152569069Y-82585279D02*
G75*
G03*
X150305070Y-84469278I-190000J-2073999D01*
G01*
X156169069Y-86589279D02*
G75*
G03*
X153909070Y-88469277I-190001J-2069997D01*
G01*
D12*
X162180880Y-115608388D02*
X164580880Y-115608388D01*
X164580880Y-115608388D02*
X164580880Y-109608388D01*
X164580880Y-109608388D02*
X162180880Y-109608388D01*
X162180880Y-109608388D02*
X162180880Y-115608388D01*
X164580880Y-110166788D02*
X162180880Y-110166788D01*
X162180880Y-109608388D01*
X164580880Y-109608388D01*
X164580880Y-110166788D01*
G36*
X164580880Y-110166788D02*
G01*
X162180880Y-110166788D01*
X162180880Y-109608388D01*
X164580880Y-109608388D01*
X164580880Y-110166788D01*
G37*
X183580578Y-75009388D02*
X181180578Y-75009388D01*
X181180578Y-75009388D02*
X181180578Y-81009388D01*
X181180578Y-81009388D02*
X183580578Y-81009388D01*
X183580578Y-81009388D02*
X183580578Y-75009388D01*
X183580578Y-81009388D02*
X181180578Y-81009388D01*
X181180578Y-80450988D01*
X183580578Y-80450988D01*
X183580578Y-81009388D01*
G36*
X183580578Y-81009388D02*
G01*
X181180578Y-81009388D01*
X181180578Y-80450988D01*
X183580578Y-80450988D01*
X183580578Y-81009388D01*
G37*
X107581080Y-114208788D02*
X105181080Y-114208788D01*
X105181080Y-114208788D02*
X105181080Y-120208788D01*
X105181080Y-120208788D02*
X107581080Y-120208788D01*
X107581080Y-120208788D02*
X107581080Y-114208788D01*
X107581080Y-120208788D02*
X105181080Y-120208788D01*
X105181080Y-119650388D01*
X107581080Y-119650388D01*
X107581080Y-120208788D01*
G36*
X107581080Y-120208788D02*
G01*
X105181080Y-120208788D01*
X105181080Y-119650388D01*
X107581080Y-119650388D01*
X107581080Y-120208788D01*
G37*
D11*
X169293767Y-87539678D02*
X169293767Y-91484678D01*
X169293767Y-91493678D02*
X172903767Y-91493678D01*
X180193767Y-85585678D02*
X171568767Y-85585678D01*
X180193767Y-89493678D02*
X180193767Y-85585678D01*
X180193767Y-89539678D02*
X175143767Y-89585678D01*
X171568767Y-85585679D02*
G75*
G03*
X169304768Y-87469678I-190000J-2073999D01*
G01*
X175168767Y-89589679D02*
G75*
G03*
X172908768Y-91469677I-190001J-2069997D01*
G01*
X131293869Y-62529118D02*
X131293869Y-66474118D01*
X131293869Y-66483118D02*
X134903869Y-66483118D01*
X142193869Y-60575118D02*
X133568869Y-60575118D01*
X142193869Y-64483118D02*
X142193869Y-60575118D01*
X142193869Y-64529118D02*
X137143869Y-64575118D01*
X133568869Y-60575119D02*
G75*
G03*
X131304870Y-62459118I-190000J-2073999D01*
G01*
X137168869Y-64579119D02*
G75*
G03*
X134908870Y-66459117I-190001J-2069997D01*
G01*
X131293869Y-81529078D02*
X131293869Y-85474078D01*
X131293869Y-85483078D02*
X134903869Y-85483078D01*
X142193869Y-79575078D02*
X133568869Y-79575078D01*
X142193869Y-83483078D02*
X142193869Y-79575078D01*
X142193869Y-83529078D02*
X137143869Y-83575078D01*
X133568869Y-79575079D02*
G75*
G03*
X131304870Y-81459078I-190000J-2073999D01*
G01*
X137168869Y-83579079D02*
G75*
G03*
X134908870Y-85459077I-190001J-2069997D01*
G01*
D12*
X124181280Y-77608588D02*
X126581280Y-77608588D01*
X126581280Y-77608588D02*
X126581280Y-71608588D01*
X126581280Y-71608588D02*
X124181280Y-71608588D01*
X124181280Y-71608588D02*
X124181280Y-77608588D01*
X126581280Y-72166988D02*
X124181280Y-72166988D01*
X124181280Y-71608588D01*
X126581280Y-71608588D01*
X126581280Y-72166988D01*
G36*
X126581280Y-72166988D02*
G01*
X124181280Y-72166988D01*
X124181280Y-71608588D01*
X126581280Y-71608588D01*
X126581280Y-72166988D01*
G37*
D11*
X93294269Y-107539278D02*
X93294269Y-111484278D01*
X93294269Y-111493278D02*
X96904269Y-111493278D01*
X104194269Y-105585278D02*
X95569269Y-105585278D01*
X104194269Y-109493278D02*
X104194269Y-105585278D01*
X104194269Y-109539278D02*
X99144269Y-109585278D01*
X95569269Y-105585279D02*
G75*
G03*
X93305270Y-107469278I-190000J-2073999D01*
G01*
X99169269Y-109589279D02*
G75*
G03*
X96909270Y-111469277I-190001J-2069997D01*
G01*
X104167891Y-71538478D02*
X99117891Y-71584478D01*
X104167891Y-71492478D02*
X104167891Y-67584478D01*
X104167891Y-67584478D02*
X95542891Y-67584478D01*
X93267891Y-73492478D02*
X96877891Y-73492478D01*
X93267891Y-69538478D02*
X93267891Y-73483478D01*
X99142891Y-71588479D02*
G75*
G03*
X96882891Y-73468477I-190001J-2069999D01*
G01*
X95542891Y-67584480D02*
G75*
G03*
X93278892Y-69468478I-190001J-2073998D01*
G01*
X114757952Y-124639394D02*
X114757952Y-125639394D01*
X113707952Y-124639394D02*
X114757952Y-124639394D01*
X93869752Y-124639394D02*
X94869752Y-124639394D01*
X93869752Y-124639394D02*
X93869752Y-125639394D01*
X114757952Y-142439394D02*
X114757952Y-141429394D01*
X113757952Y-142439394D02*
X114757952Y-142439394D01*
X93869752Y-142439394D02*
X93869752Y-141489394D01*
X93869752Y-142439394D02*
X94869752Y-142439394D01*
D10*
X200582025Y-130430956D02*
X202036588Y-125002453D01*
X202036588Y-125002453D02*
X192985863Y-122577318D01*
X200570992Y-128347094D02*
X192582786Y-126206661D01*
X200959221Y-126898206D02*
X192971014Y-124757772D01*
X201505329Y-124860102D02*
X200050766Y-130288605D01*
X199082846Y-131157703D02*
X198503290Y-131002412D01*
X199316662Y-130091903D02*
X200582025Y-130430956D01*
X199329603Y-130043607D02*
X199316662Y-130091903D01*
X200128524Y-126675621D02*
X200507047Y-125262955D01*
X200507047Y-125262955D02*
X200371864Y-125187910D01*
X198948359Y-130500502D02*
X199082846Y-131157703D01*
X200371864Y-125187910D02*
X200217270Y-125185309D01*
X200217270Y-125185309D02*
X199838747Y-126597976D01*
X198833699Y-129962493D02*
X198109255Y-129768379D01*
X198846640Y-129914197D02*
X198833699Y-129962493D01*
X198503290Y-131002412D02*
X198948359Y-130500502D01*
X198109255Y-129768379D02*
X198122196Y-129720083D01*
X198921117Y-126352097D02*
X199299640Y-124939431D01*
X199299640Y-124939431D02*
X199164457Y-124864386D01*
X199164457Y-124864386D02*
X199009862Y-124861785D01*
X199009862Y-124861785D02*
X198631339Y-126274452D01*
X197626292Y-129638970D02*
X196901848Y-129444855D01*
X197639233Y-129590673D02*
X197626292Y-129638970D01*
X196901848Y-129444855D02*
X196914789Y-129396559D01*
X197713710Y-126028574D02*
X198092233Y-124615907D01*
X198092233Y-124615907D02*
X197957050Y-124540862D01*
X197957050Y-124540862D02*
X197802455Y-124538261D01*
X197802455Y-124538261D02*
X197423932Y-125950928D01*
X196418885Y-129315446D02*
X195694440Y-129121331D01*
X196431826Y-129267149D02*
X196418885Y-129315446D01*
X195694440Y-129121331D02*
X195707381Y-129073035D01*
X196506303Y-125705050D02*
X196884825Y-124292383D01*
X196884825Y-124292383D02*
X196749642Y-124217338D01*
X196749642Y-124217338D02*
X196595048Y-124214738D01*
X196595048Y-124214738D02*
X196216525Y-125627404D01*
X195211477Y-128991922D02*
X194487033Y-128797808D01*
X195224418Y-128943626D02*
X195211477Y-128991922D01*
X194487033Y-128797808D02*
X194499974Y-128749511D01*
X195298895Y-125381526D02*
X195677418Y-123968860D01*
X195677418Y-123968860D02*
X195542235Y-123893814D01*
X195542235Y-123893814D02*
X195387640Y-123891214D01*
X195387640Y-123891214D02*
X195009118Y-125303880D01*
X194004070Y-128668398D02*
X193279626Y-128474284D01*
X194017011Y-128620102D02*
X194004070Y-128668398D01*
X193279626Y-128474284D02*
X193292567Y-128425988D01*
X194091488Y-125058002D02*
X194470011Y-123645336D01*
X194470011Y-123645336D02*
X194334828Y-123570291D01*
X194334828Y-123570291D02*
X194180233Y-123567690D01*
X194180233Y-123567690D02*
X193801710Y-124980357D01*
X192796663Y-128344874D02*
X192809604Y-128296578D01*
X193517122Y-122719669D02*
X192062559Y-128148172D01*
X191531300Y-128005821D02*
X192796663Y-128344874D01*
X192985863Y-122577318D02*
X191531300Y-128005821D01*
%LPC*%
D13*
X112377952Y-128357794D02*
X111361952Y-128357794D01*
X111361952Y-127341794D01*
X112377952Y-127341794D01*
X112377952Y-128357794D01*
G36*
X112377952Y-128357794D02*
G01*
X111361952Y-128357794D01*
X111361952Y-127341794D01*
X112377952Y-127341794D01*
X112377952Y-128357794D01*
G37*
X109837952Y-128357794D02*
X108821952Y-128357794D01*
X108821952Y-127341794D01*
X109837952Y-127341794D01*
X109837952Y-128357794D01*
G36*
X109837952Y-128357794D02*
G01*
X108821952Y-128357794D01*
X108821952Y-127341794D01*
X109837952Y-127341794D01*
X109837952Y-128357794D01*
G37*
X107297952Y-128357794D02*
X106281952Y-128357794D01*
X106281952Y-127341794D01*
X107297952Y-127341794D01*
X107297952Y-128357794D01*
G36*
X107297952Y-128357794D02*
G01*
X106281952Y-128357794D01*
X106281952Y-127341794D01*
X107297952Y-127341794D01*
X107297952Y-128357794D01*
G37*
X104757952Y-128357794D02*
X103741952Y-128357794D01*
X103741952Y-127341794D01*
X104757952Y-127341794D01*
X104757952Y-128357794D01*
G36*
X104757952Y-128357794D02*
G01*
X103741952Y-128357794D01*
X103741952Y-127341794D01*
X104757952Y-127341794D01*
X104757952Y-128357794D01*
G37*
X102217952Y-128357794D02*
X101201952Y-128357794D01*
X101201952Y-127341794D01*
X102217952Y-127341794D01*
X102217952Y-128357794D01*
G36*
X102217952Y-128357794D02*
G01*
X101201952Y-128357794D01*
X101201952Y-127341794D01*
X102217952Y-127341794D01*
X102217952Y-128357794D01*
G37*
X99677952Y-128357794D02*
X98661952Y-128357794D01*
X98661952Y-127341794D01*
X99677952Y-127341794D01*
X99677952Y-128357794D01*
G36*
X99677952Y-128357794D02*
G01*
X98661952Y-128357794D01*
X98661952Y-127341794D01*
X99677952Y-127341794D01*
X99677952Y-128357794D01*
G37*
X97137952Y-128357794D02*
X96121952Y-128357794D01*
X96121952Y-127341794D01*
X97137952Y-127341794D01*
X97137952Y-128357794D01*
G36*
X97137952Y-128357794D02*
G01*
X96121952Y-128357794D01*
X96121952Y-127341794D01*
X97137952Y-127341794D01*
X97137952Y-128357794D01*
G37*
X112377952Y-139736994D02*
X111361952Y-139736994D01*
X111361952Y-138720994D01*
X112377952Y-138720994D01*
X112377952Y-139736994D01*
G36*
X112377952Y-139736994D02*
G01*
X111361952Y-139736994D01*
X111361952Y-138720994D01*
X112377952Y-138720994D01*
X112377952Y-139736994D01*
G37*
X109837952Y-139736994D02*
X108821952Y-139736994D01*
X108821952Y-138720994D01*
X109837952Y-138720994D01*
X109837952Y-139736994D01*
G36*
X109837952Y-139736994D02*
G01*
X108821952Y-139736994D01*
X108821952Y-138720994D01*
X109837952Y-138720994D01*
X109837952Y-139736994D01*
G37*
X107297952Y-139736994D02*
X106281952Y-139736994D01*
X106281952Y-138720994D01*
X107297952Y-138720994D01*
X107297952Y-139736994D01*
G36*
X107297952Y-139736994D02*
G01*
X106281952Y-139736994D01*
X106281952Y-138720994D01*
X107297952Y-138720994D01*
X107297952Y-139736994D01*
G37*
X104757952Y-139736994D02*
X103741952Y-139736994D01*
X103741952Y-138720994D01*
X104757952Y-138720994D01*
X104757952Y-139736994D01*
G36*
X104757952Y-139736994D02*
G01*
X103741952Y-139736994D01*
X103741952Y-138720994D01*
X104757952Y-138720994D01*
X104757952Y-139736994D01*
G37*
X102217952Y-139736994D02*
X101201952Y-139736994D01*
X101201952Y-138720994D01*
X102217952Y-138720994D01*
X102217952Y-139736994D01*
G36*
X102217952Y-139736994D02*
G01*
X101201952Y-139736994D01*
X101201952Y-138720994D01*
X102217952Y-138720994D01*
X102217952Y-139736994D01*
G37*
X99677952Y-139736994D02*
X98661952Y-139736994D01*
X98661952Y-138720994D01*
X99677952Y-138720994D01*
X99677952Y-139736994D01*
G36*
X99677952Y-139736994D02*
G01*
X98661952Y-139736994D01*
X98661952Y-138720994D01*
X99677952Y-138720994D01*
X99677952Y-139736994D01*
G37*
X97137952Y-139736994D02*
X96121952Y-139736994D01*
X96121952Y-138720994D01*
X97137952Y-138720994D01*
X97137952Y-139736994D01*
G36*
X97137952Y-139736994D02*
G01*
X96121952Y-139736994D01*
X96121952Y-138720994D01*
X97137952Y-138720994D01*
X97137952Y-139736994D01*
G37*
D14*
X113301280Y-108408188D03*
D15*
X114571280Y-105868187D03*
X115841280Y-103328188D03*
D16*
X118381280Y-108408188D03*
D15*
X120921280Y-103328188D03*
X122191280Y-105868188D03*
D14*
X123461280Y-108408188D03*
D17*
X111383580Y-105918988D03*
D18*
X123991880Y-103308788D03*
D14*
X113301280Y-89408588D03*
D15*
X114571280Y-86868587D03*
X115841280Y-84328588D03*
D16*
X118381280Y-89408588D03*
D15*
X120921280Y-84328588D03*
X122191280Y-86868588D03*
D14*
X123461280Y-89408588D03*
D17*
X111383580Y-86919388D03*
D18*
X123991880Y-84309188D03*
D19*
X197726209Y-147597096D03*
X202555838Y-148891191D03*
X200141023Y-148244144D03*
D20*
X207491351Y-142449087D03*
X196672981Y-139550313D03*
D19*
X206308714Y-134885267D03*
X201479085Y-133591172D03*
D21*
X167582107Y-62220344D03*
D22*
X163380880Y-92108388D03*
X163380880Y-95508388D03*
D23*
X182380578Y-117508788D03*
X182380578Y-114108788D03*
X144380680Y-73498228D03*
X144380680Y-70098228D03*
X182380578Y-98508788D03*
X182380578Y-95108788D03*
D14*
X159772412Y-130674132D03*
D15*
X161656538Y-128549380D03*
X163540664Y-126424629D03*
D16*
X164679315Y-131988933D03*
D15*
X168447567Y-127739430D03*
X169016893Y-130521582D03*
D14*
X169586218Y-133303734D03*
D24*
X158564308Y-127773412D03*
D25*
X171418560Y-128515421D03*
D14*
X94301080Y-93407988D03*
D15*
X95571080Y-90867987D03*
X96841080Y-88327988D03*
D16*
X99381080Y-93407988D03*
D15*
X101921080Y-88327988D03*
X103191080Y-90867988D03*
D14*
X104461080Y-93407988D03*
D17*
X92383380Y-90918788D03*
D18*
X104991680Y-88308588D03*
D21*
X164191152Y-119658794D03*
D23*
X182352152Y-128119794D03*
X182352152Y-124719794D03*
D21*
X110647952Y-119763194D03*
D14*
X178134387Y-136469066D03*
D15*
X180018513Y-134344314D03*
X181902639Y-132219563D03*
D16*
X183041290Y-137783867D03*
D15*
X186809542Y-133534364D03*
X187378868Y-136316516D03*
D14*
X187948193Y-139098668D03*
D24*
X176926283Y-133568346D03*
D25*
X189780535Y-134310355D03*
D14*
X132300680Y-105398388D03*
D15*
X133570680Y-102858387D03*
X134840680Y-100318388D03*
D16*
X137380680Y-105398388D03*
D15*
X139920680Y-100318388D03*
X141190680Y-102858388D03*
D14*
X142460680Y-105398388D03*
D17*
X130382980Y-102909188D03*
D18*
X142991280Y-100298988D03*
D21*
X191115152Y-149836794D03*
D22*
X125381280Y-92108588D03*
X125381280Y-95508588D03*
D14*
X151300880Y-70408428D03*
D15*
X152570880Y-67868427D03*
X153840880Y-65328428D03*
D16*
X156380880Y-70408428D03*
D15*
X158920880Y-65328428D03*
X160190880Y-67868428D03*
D14*
X161460880Y-70408428D03*
D17*
X149383180Y-67919228D03*
D18*
X161991480Y-65309028D03*
D14*
X113301280Y-70408988D03*
D15*
X114571280Y-67868987D03*
X115841280Y-65328988D03*
D16*
X118381280Y-70408988D03*
D15*
X120921280Y-65328988D03*
X122191280Y-67868988D03*
D14*
X123461280Y-70408988D03*
D17*
X111383580Y-67919788D03*
D18*
X123991880Y-65309588D03*
D23*
X175152152Y-128119794D03*
X175152152Y-124719794D03*
D22*
X163380880Y-73108428D03*
X163380880Y-76508428D03*
D14*
X170300578Y-73408988D03*
D15*
X171570578Y-70868987D03*
X172840578Y-68328988D03*
D16*
X175380578Y-73408988D03*
D15*
X177920578Y-68328988D03*
X179190578Y-70868988D03*
D14*
X180460578Y-73408988D03*
D17*
X168382878Y-70919788D03*
D18*
X180991178Y-68309588D03*
D23*
X144380680Y-111498388D03*
X144380680Y-108098388D03*
D22*
X125381280Y-111108188D03*
X125381280Y-114508188D03*
D23*
X144380680Y-92498188D03*
X144380680Y-89098188D03*
X106381080Y-99707988D03*
X106381080Y-96307988D03*
D14*
X151300880Y-108408788D03*
D15*
X152570880Y-105868787D03*
X153840880Y-103328788D03*
D16*
X156380880Y-108408788D03*
D15*
X158920880Y-103328788D03*
X160190880Y-105868788D03*
D14*
X161460880Y-108408788D03*
D17*
X149383180Y-105919588D03*
D18*
X161991480Y-103309388D03*
D26*
X212683671Y-130575884D03*
X205922190Y-128764150D03*
D27*
X204960438Y-126094256D03*
X203781425Y-130571669D03*
X208824142Y-127129532D03*
X207645128Y-131606945D03*
X211721919Y-127905989D03*
X210542906Y-132383402D03*
X203909474Y-125843709D03*
X202707352Y-130252814D03*
D23*
X106381080Y-80507588D03*
X106381080Y-77107588D03*
X178752152Y-128119794D03*
X178752152Y-124719794D03*
D14*
X197175263Y-139684899D03*
D15*
X199059389Y-137560147D03*
X200943515Y-135435396D03*
D16*
X202082166Y-140999700D03*
D15*
X205850418Y-136750197D03*
X206419744Y-139532349D03*
D14*
X206989069Y-142314501D03*
D24*
X195967159Y-136784179D03*
D25*
X208821411Y-137526188D03*
D14*
X170300578Y-111408788D03*
D15*
X171570578Y-108868787D03*
X172840578Y-106328788D03*
D16*
X175380578Y-111408788D03*
D15*
X177920578Y-106328788D03*
X179190578Y-108868788D03*
D14*
X180460578Y-111408788D03*
D17*
X168382878Y-108919588D03*
D18*
X180991178Y-106309388D03*
D14*
X151300880Y-89408388D03*
D15*
X152570880Y-86868387D03*
X153840880Y-84328388D03*
D16*
X156380880Y-89408388D03*
D15*
X158920880Y-84328388D03*
X160190880Y-86868388D03*
D14*
X161460880Y-89408388D03*
D17*
X149383180Y-86919188D03*
D18*
X161991480Y-84308988D03*
D22*
X163380880Y-111108788D03*
X163380880Y-114508788D03*
D23*
X182380578Y-79508988D03*
X182380578Y-76108988D03*
X106381080Y-118708388D03*
X106381080Y-115308388D03*
D21*
X118420352Y-139930794D03*
D14*
X170300578Y-92408788D03*
D15*
X171570578Y-89868787D03*
X172840578Y-87328788D03*
D16*
X175380578Y-92408788D03*
D15*
X177920578Y-87328788D03*
X179190578Y-89868788D03*
D14*
X180460578Y-92408788D03*
D17*
X168382878Y-89919588D03*
D18*
X180991178Y-87309388D03*
D14*
X132300680Y-67398228D03*
D15*
X133570680Y-64858227D03*
X134840680Y-62318228D03*
D16*
X137380680Y-67398228D03*
D15*
X139920680Y-62318228D03*
X141190680Y-64858228D03*
D14*
X142460680Y-67398228D03*
D17*
X130382980Y-64909028D03*
D18*
X142991280Y-62298828D03*
D21*
X107091952Y-61851194D03*
D14*
X132300680Y-86398188D03*
D15*
X133570680Y-83858187D03*
X134840680Y-81318188D03*
D16*
X137380680Y-86398188D03*
D15*
X139920680Y-81318188D03*
X141190680Y-83858188D03*
D14*
X142460680Y-86398188D03*
D17*
X130382980Y-83908988D03*
D18*
X142991280Y-81298788D03*
D22*
X125381280Y-73108988D03*
X125381280Y-76508988D03*
D14*
X94301080Y-112408388D03*
D15*
X95571080Y-109868387D03*
X96841080Y-107328388D03*
D16*
X99381080Y-112408388D03*
D15*
X101921080Y-107328388D03*
X103191080Y-109868388D03*
D14*
X104461080Y-112408388D03*
D17*
X92383380Y-109919188D03*
D18*
X104991680Y-107308988D03*
D14*
X104461080Y-74407588D03*
D15*
X103191080Y-71867587D03*
X101921080Y-69327588D03*
D16*
X99381080Y-74407588D03*
D15*
X96841080Y-69327588D03*
X95571080Y-71867588D03*
D14*
X94301080Y-74407588D03*
D28*
X105057980Y-69302188D03*
D29*
X92471684Y-71892991D03*
D30*
X111869952Y-125980594D03*
X109329952Y-125980594D03*
X106789952Y-125980594D03*
X104249952Y-125980594D03*
X101709952Y-125980594D03*
X99169952Y-125980594D03*
X96629952Y-125980594D03*
D31*
X111869952Y-127595794D03*
X109329952Y-127595794D03*
X106789952Y-127595794D03*
X104249952Y-127595794D03*
X101709952Y-127595794D03*
X99169952Y-127595794D03*
X96629952Y-127595794D03*
D32*
X111869952Y-139482994D03*
X109329952Y-139482994D03*
X106789952Y-139482994D03*
X104249952Y-139482994D03*
X101709952Y-139482994D03*
X99169952Y-139482994D03*
X96629952Y-139482994D03*
D30*
X111869952Y-141083194D03*
X109329952Y-141083194D03*
X106789952Y-141083194D03*
X104249952Y-141083194D03*
X101709952Y-141083194D03*
X99169952Y-141083194D03*
X96629952Y-141083194D03*
D33*
X96629952Y-138466994D03*
X99169952Y-138466994D03*
X101709952Y-138466994D03*
X104249952Y-138466994D03*
X106789952Y-138466994D03*
X109329952Y-138466994D03*
X111869952Y-138466994D03*
D34*
X111869952Y-128611794D03*
X109329952Y-128611794D03*
X106789952Y-128611794D03*
X104249952Y-128611794D03*
X101709952Y-128611794D03*
X99169952Y-128611794D03*
X96629952Y-128611794D03*
D35*
X199336588Y-129051613D03*
D36*
X198129181Y-128728089D03*
X196921773Y-128404565D03*
X195714366Y-128081042D03*
X194506959Y-127757518D03*
X193299552Y-127433994D03*
D37*
X96629952Y-137085994D03*
X99169952Y-137085994D03*
X101709952Y-137085994D03*
X92471684Y-71892991D03*
X130382980Y-64909028D03*
X168382878Y-70919788D03*
D26*
X98357152Y-135815994D03*
X98445452Y-129669194D03*
D37*
X104991680Y-107308988D03*
X111383580Y-105918988D03*
X104991680Y-69308188D03*
X111383580Y-67919788D03*
X104991680Y-88308588D03*
X111383580Y-86919388D03*
X104249952Y-137085994D03*
X142991280Y-81298788D03*
X119893552Y-113833688D03*
X149383180Y-86919188D03*
X149383180Y-67919228D03*
X106789952Y-137085994D03*
X142991280Y-100298988D03*
X149383180Y-105919588D03*
X142991280Y-62298828D03*
X180657552Y-105975762D03*
X180574152Y-116834288D03*
X158564308Y-127773412D03*
X109329952Y-137085994D03*
X180991178Y-68309588D03*
X176926283Y-133568346D03*
X180991178Y-87309388D03*
X120847016Y-113834113D03*
X195967159Y-136784179D03*
X180574152Y-114783288D03*
X111869952Y-137085994D03*
X114630620Y-127708262D03*
X123991880Y-65309588D03*
X161991480Y-65309028D03*
X171418560Y-128515421D03*
X106115452Y-131802794D03*
X106115452Y-129669194D03*
X208821411Y-137526188D03*
X111195452Y-131802794D03*
X111195452Y-129669194D03*
D26*
X95867952Y-129669194D03*
X100897152Y-129669194D03*
D37*
X123991880Y-103308788D03*
X130382980Y-102909188D03*
X168382878Y-108919588D03*
X92383380Y-109919188D03*
X161991480Y-103309388D03*
X92383380Y-90918788D03*
X123991880Y-84309188D03*
X130382980Y-83908988D03*
X161991480Y-84308988D03*
X168382878Y-89919588D03*
X189780535Y-134310355D03*
X194061552Y-143932439D03*
X108618752Y-133834794D03*
X108618752Y-129669194D03*
X103575452Y-131802794D03*
X103575452Y-129669194D03*
X193405216Y-142115194D03*
%LPD*%
M02*
