M48
; DRILL file {KiCad 7.0.5} date Wed Sep  6 16:02:51 2023
; FORMAT={-:-/ absolute / inch / decimal}
; #@! TF.CreationDate,2023-09-06T16:02:51+08:00
; #@! TF.GenerationSoftware,Kicad,Pcbnew,7.0.5
; #@! TF.FileFunction,Plated,1,2,PTH
FMAT,2
INCH
; #@! TA.AperFunction,Plated,PTH,ViaDrill
T1C0.0118
; #@! TA.AperFunction,Plated,PTH,ViaDrill
T2C0.0157
; #@! TA.AperFunction,Plated,PTH,ComponentDrill
T3C0.0157
; #@! TA.AperFunction,Plated,PTH,ComponentDrill
T4C0.0236
; #@! TA.AperFunction,Plated,PTH,ComponentDrill
T5C0.0354
; #@! TA.AperFunction,Plated,PTH,ComponentDrill
T6C0.0394
; #@! TA.AperFunction,Plated,PTH,ComponentDrill
T7C0.0433
; #@! TA.AperFunction,Plated,PTH,ComponentDrill
T8C0.0591
%
G90
G05
T1
X3.6371Y-3.5795
X3.6371Y-4.3275
X3.6406Y-2.8304
X3.8043Y-5.3971
X3.9043Y-5.3971
X4.0043Y-5.3971
X4.0778Y-5.1051
X4.0778Y-5.1891
X4.1043Y-5.3971
X4.1335Y-2.7287
X4.1335Y-3.4767
X4.1335Y-4.2248
X4.1778Y-5.1051
X4.1778Y-5.1891
X4.2043Y-5.3971
X4.2763Y-5.1051
X4.2763Y-5.2691
X4.3043Y-5.3971
X4.3778Y-5.1051
X4.3778Y-5.1891
X4.3852Y-2.674
X4.3852Y-3.422
X4.3852Y-4.17
X4.4043Y-5.3971
X4.513Y-5.0279
X4.7202Y-4.4816
X4.7578Y-4.4817
X4.8816Y-2.5712
X4.8816Y-3.3193
X4.8816Y-4.0673
X5.1332Y-2.5555
X5.1332Y-3.3035
X5.1332Y-4.0515
X5.6296Y-2.4527
X5.6296Y-3.2007
X5.6296Y-3.9488
X5.8812Y-2.674
X5.8812Y-3.422
X5.8812Y-4.1701
X6.2427Y-5.0304
X6.3776Y-2.5712
X6.3776Y-3.3193
X6.3776Y-4.0673
X6.6292Y-2.7921
X6.6292Y-3.5401
X6.6292Y-4.2882
X6.7488Y-5.0597
X6.9656Y-5.2586
X7.1092Y-4.519
X7.1092Y-4.5998
X7.1125Y-4.1723
X7.1256Y-2.6894
X7.1256Y-3.4374
X7.4717Y-5.2878
X7.6144Y-5.5951
X7.6402Y-5.6666
X7.7152Y-5.3852
X8.2213Y-5.4144
T2
X3.7743Y-5.1051
X3.8723Y-5.3471
X3.8758Y-5.1051
X3.9723Y-5.1051
T3
X4.1882Y-3.0357
X4.1882Y-3.1696
X4.1882Y-3.7917
X4.1882Y-3.9255
X4.1882Y-4.5397
X4.1882Y-4.6736
X4.9363Y-2.8783
X4.9363Y-3.0122
X4.9363Y-3.6263
X4.9363Y-3.7602
X4.9363Y-4.3743
X4.9363Y-4.5082
X5.6843Y-2.7598
X5.6843Y-2.8936
X5.6843Y-3.5078
X5.6843Y-3.6417
X5.6843Y-4.2558
X5.6843Y-4.3897
X6.4323Y-2.8783
X6.4323Y-3.0121
X6.4323Y-3.6263
X6.4323Y-3.7602
X6.4323Y-4.3744
X6.4323Y-4.5082
X6.8958Y-4.9102
X6.8958Y-5.0441
X7.0375Y-4.9102
X7.0375Y-5.0441
X7.1792Y-4.9102
X7.1792Y-5.0441
X7.1803Y-2.9964
X7.1803Y-3.1303
X7.1803Y-3.7444
X7.1803Y-3.8783
X7.1803Y-4.4925
X7.1803Y-4.6263
T4
X7.6102Y-5.0171
X7.6578Y-5.0298
X7.7053Y-5.0426
X7.7528Y-5.0553
X7.8004Y-5.068
X7.8479Y-5.0808
T6
X7.7845Y-5.8109
X7.8796Y-5.8364
X7.9322Y-5.2595
X7.9746Y-5.8619
X8.1224Y-5.3104
T7
X3.8043Y-4.9599
X3.8043Y-5.5545
X3.9043Y-4.9599
X3.9043Y-5.5545
X4.0043Y-4.9599
X4.0043Y-5.5545
X4.1043Y-4.9599
X4.1043Y-5.5545
X4.2043Y-4.9599
X4.2043Y-5.5545
X4.3043Y-4.9599
X4.3043Y-5.5545
X4.4043Y-4.9599
X4.4043Y-5.5545
T5
G00X7.973Y-5.126
M15
G01X7.9882Y-5.1301
M16
G05
G00X8.0305Y-5.1427
M15
G01X8.0153Y-5.1386
M16
G05
G00X8.0355Y-4.9565
M15
G01X8.0203Y-4.9524
M16
G05
G00X8.0617Y-4.9623
M15
G01X8.0769Y-4.9664
M16
G05
G00X8.1826Y-5.1834
M15
G01X8.1674Y-5.1793
M16
G05
G00X8.2138Y-5.0031
M15
G01X8.229Y-5.0071
M16
G05
G00X8.2967Y-5.214
M15
G01X8.2815Y-5.2099
M16
G05
G00X8.3279Y-5.0336
M15
G01X8.3431Y-5.0377
M16
G05
T8
G00X7.7364Y-5.5188
M15
G01X7.7497Y-5.4694
M16
G05
G00X8.1623Y-5.633
M15
G01X8.1756Y-5.5835
M16
G05
T0
M30
