G04 #@! TF.GenerationSoftware,KiCad,Pcbnew,7.0.5*
G04 #@! TF.CreationDate,2023-09-06T16:02:53+08:00*
G04 #@! TF.ProjectId,thrfv,74687266-762e-46b6-9963-61645f706362,rev?*
G04 #@! TF.SameCoordinates,Original*
G04 #@! TF.FileFunction,Profile,NP*
%FSLAX46Y46*%
G04 Gerber Fmt 4.6, Leading zero omitted, Abs format (unit mm)*
G04 Created by KiCad (PCBNEW 7.0.5) date 2023-09-06 16:02:53*
%MOMM*%
%LPD*%
G01*
G04 APERTURE LIST*
G04 #@! TA.AperFunction,Profile*
%ADD10C,0.150000*%
G04 #@! TD*
G04 APERTURE END LIST*
D10*
X90200952Y-63993801D02*
G75*
G03*
X88854753Y-65344394I-13752J-1332499D01*
G01*
X106990352Y-56936310D02*
G75*
G03*
X105009153Y-57736395I-26052J-2788490D01*
G01*
X207675952Y-155170794D02*
X116817448Y-143283594D01*
X184548947Y-56936294D02*
X106990352Y-56936294D01*
X216515112Y-128754786D02*
G75*
G03*
X215702352Y-127230795I-1321812J273786D01*
G01*
X105009152Y-57736394D02*
X99355452Y-63379194D01*
X116817448Y-143283598D02*
G75*
G03*
X114125048Y-143131195I-2418648J-18870002D01*
G01*
X88855767Y-121795194D02*
G75*
G03*
X90226352Y-123129624I1322633J-12606D01*
G01*
X209784152Y-153773794D02*
X216515152Y-128754794D01*
X90200952Y-63993828D02*
X97831452Y-63993828D01*
X92335571Y-124515896D02*
X92335571Y-141759594D01*
X185320637Y-115076642D02*
G75*
G03*
X186390752Y-116562794I1539863J-19558D01*
G01*
X114125048Y-143131194D02*
X93680752Y-143131194D01*
X185320639Y-57685594D02*
G75*
G03*
X184548947Y-56936294I-742639J7194D01*
G01*
X215702352Y-127230794D02*
X186390752Y-116562794D01*
X207675959Y-155170756D02*
G75*
G03*
X209784151Y-153773794I309841J1821656D01*
G01*
X97831453Y-63993790D02*
G75*
G03*
X99355452Y-63379194I76147J2007990D01*
G01*
X185320614Y-57685594D02*
X185320614Y-115076642D01*
X88854752Y-65344394D02*
X88855791Y-121795194D01*
X90965010Y-123129624D02*
X90226352Y-123129624D01*
X92335573Y-141759594D02*
G75*
G03*
X93680752Y-143131194I1308227J-62406D01*
G01*
X92335541Y-124515895D02*
G75*
G03*
X90965010Y-123129625I-1322541J63095D01*
G01*
M02*
