G04 #@! TF.GenerationSoftware,KiCad,Pcbnew,7.0.5-0*
G04 #@! TF.CreationDate,2023-10-21T11:43:30+08:00*
G04 #@! TF.ProjectId,project_x_beneath_PCB_l_ec11_r_ball_v2,70726f6a-6563-4745-9f78-5f62656e6561,rev?*
G04 #@! TF.SameCoordinates,Original*
G04 #@! TF.FileFunction,Legend,Top*
G04 #@! TF.FilePolarity,Positive*
%FSLAX46Y46*%
G04 Gerber Fmt 4.6, Leading zero omitted, Abs format (unit mm)*
G04 Created by KiCad (PCBNEW 7.0.5-0) date 2023-10-21 11:43:30*
%MOMM*%
%LPD*%
G01*
G04 APERTURE LIST*
%ADD10C,0.100000*%
%ADD11C,0.150000*%
G04 APERTURE END LIST*
D10*
X225186769Y-118556414D02*
X225615341Y-118556414D01*
X225401055Y-119306414D02*
X225401055Y-118556414D01*
X226151055Y-119270700D02*
X226079627Y-119306414D01*
X226079627Y-119306414D02*
X225936770Y-119306414D01*
X225936770Y-119306414D02*
X225865341Y-119270700D01*
X225865341Y-119270700D02*
X225829627Y-119199271D01*
X225829627Y-119199271D02*
X225829627Y-118913557D01*
X225829627Y-118913557D02*
X225865341Y-118842128D01*
X225865341Y-118842128D02*
X225936770Y-118806414D01*
X225936770Y-118806414D02*
X226079627Y-118806414D01*
X226079627Y-118806414D02*
X226151055Y-118842128D01*
X226151055Y-118842128D02*
X226186770Y-118913557D01*
X226186770Y-118913557D02*
X226186770Y-118984985D01*
X226186770Y-118984985D02*
X225829627Y-119056414D01*
X226472484Y-119270700D02*
X226543912Y-119306414D01*
X226543912Y-119306414D02*
X226686769Y-119306414D01*
X226686769Y-119306414D02*
X226758198Y-119270700D01*
X226758198Y-119270700D02*
X226793912Y-119199271D01*
X226793912Y-119199271D02*
X226793912Y-119163557D01*
X226793912Y-119163557D02*
X226758198Y-119092128D01*
X226758198Y-119092128D02*
X226686769Y-119056414D01*
X226686769Y-119056414D02*
X226579627Y-119056414D01*
X226579627Y-119056414D02*
X226508198Y-119020700D01*
X226508198Y-119020700D02*
X226472484Y-118949271D01*
X226472484Y-118949271D02*
X226472484Y-118913557D01*
X226472484Y-118913557D02*
X226508198Y-118842128D01*
X226508198Y-118842128D02*
X226579627Y-118806414D01*
X226579627Y-118806414D02*
X226686769Y-118806414D01*
X226686769Y-118806414D02*
X226758198Y-118842128D01*
X227008198Y-118806414D02*
X227293912Y-118806414D01*
X227115341Y-118556414D02*
X227115341Y-119199271D01*
X227115341Y-119199271D02*
X227151055Y-119270700D01*
X227151055Y-119270700D02*
X227222484Y-119306414D01*
X227222484Y-119306414D02*
X227293912Y-119306414D01*
X227543912Y-119306414D02*
X227543912Y-118806414D01*
X227543912Y-118556414D02*
X227508198Y-118592128D01*
X227508198Y-118592128D02*
X227543912Y-118627842D01*
X227543912Y-118627842D02*
X227579626Y-118592128D01*
X227579626Y-118592128D02*
X227543912Y-118556414D01*
X227543912Y-118556414D02*
X227543912Y-118627842D01*
X227901055Y-118806414D02*
X227901055Y-119306414D01*
X227901055Y-118877842D02*
X227936769Y-118842128D01*
X227936769Y-118842128D02*
X228008198Y-118806414D01*
X228008198Y-118806414D02*
X228115341Y-118806414D01*
X228115341Y-118806414D02*
X228186769Y-118842128D01*
X228186769Y-118842128D02*
X228222484Y-118913557D01*
X228222484Y-118913557D02*
X228222484Y-119306414D01*
X228901055Y-118806414D02*
X228901055Y-119413557D01*
X228901055Y-119413557D02*
X228865340Y-119484985D01*
X228865340Y-119484985D02*
X228829626Y-119520700D01*
X228829626Y-119520700D02*
X228758197Y-119556414D01*
X228758197Y-119556414D02*
X228651055Y-119556414D01*
X228651055Y-119556414D02*
X228579626Y-119520700D01*
X228901055Y-119270700D02*
X228829626Y-119306414D01*
X228829626Y-119306414D02*
X228686769Y-119306414D01*
X228686769Y-119306414D02*
X228615340Y-119270700D01*
X228615340Y-119270700D02*
X228579626Y-119234985D01*
X228579626Y-119234985D02*
X228543912Y-119163557D01*
X228543912Y-119163557D02*
X228543912Y-118949271D01*
X228543912Y-118949271D02*
X228579626Y-118877842D01*
X228579626Y-118877842D02*
X228615340Y-118842128D01*
X228615340Y-118842128D02*
X228686769Y-118806414D01*
X228686769Y-118806414D02*
X228829626Y-118806414D01*
X228829626Y-118806414D02*
X228901055Y-118842128D01*
X229829626Y-119306414D02*
X229829626Y-118806414D01*
X229829626Y-118877842D02*
X229865340Y-118842128D01*
X229865340Y-118842128D02*
X229936769Y-118806414D01*
X229936769Y-118806414D02*
X230043912Y-118806414D01*
X230043912Y-118806414D02*
X230115340Y-118842128D01*
X230115340Y-118842128D02*
X230151055Y-118913557D01*
X230151055Y-118913557D02*
X230151055Y-119306414D01*
X230151055Y-118913557D02*
X230186769Y-118842128D01*
X230186769Y-118842128D02*
X230258197Y-118806414D01*
X230258197Y-118806414D02*
X230365340Y-118806414D01*
X230365340Y-118806414D02*
X230436769Y-118842128D01*
X230436769Y-118842128D02*
X230472483Y-118913557D01*
X230472483Y-118913557D02*
X230472483Y-119306414D01*
X231115340Y-119270700D02*
X231043912Y-119306414D01*
X231043912Y-119306414D02*
X230901055Y-119306414D01*
X230901055Y-119306414D02*
X230829626Y-119270700D01*
X230829626Y-119270700D02*
X230793912Y-119199271D01*
X230793912Y-119199271D02*
X230793912Y-118913557D01*
X230793912Y-118913557D02*
X230829626Y-118842128D01*
X230829626Y-118842128D02*
X230901055Y-118806414D01*
X230901055Y-118806414D02*
X231043912Y-118806414D01*
X231043912Y-118806414D02*
X231115340Y-118842128D01*
X231115340Y-118842128D02*
X231151055Y-118913557D01*
X231151055Y-118913557D02*
X231151055Y-118984985D01*
X231151055Y-118984985D02*
X230793912Y-119056414D01*
X231436769Y-119270700D02*
X231508197Y-119306414D01*
X231508197Y-119306414D02*
X231651054Y-119306414D01*
X231651054Y-119306414D02*
X231722483Y-119270700D01*
X231722483Y-119270700D02*
X231758197Y-119199271D01*
X231758197Y-119199271D02*
X231758197Y-119163557D01*
X231758197Y-119163557D02*
X231722483Y-119092128D01*
X231722483Y-119092128D02*
X231651054Y-119056414D01*
X231651054Y-119056414D02*
X231543912Y-119056414D01*
X231543912Y-119056414D02*
X231472483Y-119020700D01*
X231472483Y-119020700D02*
X231436769Y-118949271D01*
X231436769Y-118949271D02*
X231436769Y-118913557D01*
X231436769Y-118913557D02*
X231472483Y-118842128D01*
X231472483Y-118842128D02*
X231543912Y-118806414D01*
X231543912Y-118806414D02*
X231651054Y-118806414D01*
X231651054Y-118806414D02*
X231722483Y-118842128D01*
X232043912Y-119270700D02*
X232115340Y-119306414D01*
X232115340Y-119306414D02*
X232258197Y-119306414D01*
X232258197Y-119306414D02*
X232329626Y-119270700D01*
X232329626Y-119270700D02*
X232365340Y-119199271D01*
X232365340Y-119199271D02*
X232365340Y-119163557D01*
X232365340Y-119163557D02*
X232329626Y-119092128D01*
X232329626Y-119092128D02*
X232258197Y-119056414D01*
X232258197Y-119056414D02*
X232151055Y-119056414D01*
X232151055Y-119056414D02*
X232079626Y-119020700D01*
X232079626Y-119020700D02*
X232043912Y-118949271D01*
X232043912Y-118949271D02*
X232043912Y-118913557D01*
X232043912Y-118913557D02*
X232079626Y-118842128D01*
X232079626Y-118842128D02*
X232151055Y-118806414D01*
X232151055Y-118806414D02*
X232258197Y-118806414D01*
X232258197Y-118806414D02*
X232329626Y-118842128D01*
X233008198Y-119306414D02*
X233008198Y-118913557D01*
X233008198Y-118913557D02*
X232972483Y-118842128D01*
X232972483Y-118842128D02*
X232901055Y-118806414D01*
X232901055Y-118806414D02*
X232758198Y-118806414D01*
X232758198Y-118806414D02*
X232686769Y-118842128D01*
X233008198Y-119270700D02*
X232936769Y-119306414D01*
X232936769Y-119306414D02*
X232758198Y-119306414D01*
X232758198Y-119306414D02*
X232686769Y-119270700D01*
X232686769Y-119270700D02*
X232651055Y-119199271D01*
X232651055Y-119199271D02*
X232651055Y-119127842D01*
X232651055Y-119127842D02*
X232686769Y-119056414D01*
X232686769Y-119056414D02*
X232758198Y-119020700D01*
X232758198Y-119020700D02*
X232936769Y-119020700D01*
X232936769Y-119020700D02*
X233008198Y-118984985D01*
X233686769Y-118806414D02*
X233686769Y-119413557D01*
X233686769Y-119413557D02*
X233651054Y-119484985D01*
X233651054Y-119484985D02*
X233615340Y-119520700D01*
X233615340Y-119520700D02*
X233543911Y-119556414D01*
X233543911Y-119556414D02*
X233436769Y-119556414D01*
X233436769Y-119556414D02*
X233365340Y-119520700D01*
X233686769Y-119270700D02*
X233615340Y-119306414D01*
X233615340Y-119306414D02*
X233472483Y-119306414D01*
X233472483Y-119306414D02*
X233401054Y-119270700D01*
X233401054Y-119270700D02*
X233365340Y-119234985D01*
X233365340Y-119234985D02*
X233329626Y-119163557D01*
X233329626Y-119163557D02*
X233329626Y-118949271D01*
X233329626Y-118949271D02*
X233365340Y-118877842D01*
X233365340Y-118877842D02*
X233401054Y-118842128D01*
X233401054Y-118842128D02*
X233472483Y-118806414D01*
X233472483Y-118806414D02*
X233615340Y-118806414D01*
X233615340Y-118806414D02*
X233686769Y-118842128D01*
X234329625Y-119270700D02*
X234258197Y-119306414D01*
X234258197Y-119306414D02*
X234115340Y-119306414D01*
X234115340Y-119306414D02*
X234043911Y-119270700D01*
X234043911Y-119270700D02*
X234008197Y-119199271D01*
X234008197Y-119199271D02*
X234008197Y-118913557D01*
X234008197Y-118913557D02*
X234043911Y-118842128D01*
X234043911Y-118842128D02*
X234115340Y-118806414D01*
X234115340Y-118806414D02*
X234258197Y-118806414D01*
X234258197Y-118806414D02*
X234329625Y-118842128D01*
X234329625Y-118842128D02*
X234365340Y-118913557D01*
X234365340Y-118913557D02*
X234365340Y-118984985D01*
X234365340Y-118984985D02*
X234008197Y-119056414D01*
X234686768Y-119234985D02*
X234722482Y-119270700D01*
X234722482Y-119270700D02*
X234686768Y-119306414D01*
X234686768Y-119306414D02*
X234651054Y-119270700D01*
X234651054Y-119270700D02*
X234686768Y-119234985D01*
X234686768Y-119234985D02*
X234686768Y-119306414D01*
X228008197Y-119763914D02*
X228436769Y-119763914D01*
X228222483Y-120513914D02*
X228222483Y-119763914D01*
X228972483Y-120478200D02*
X228901055Y-120513914D01*
X228901055Y-120513914D02*
X228758198Y-120513914D01*
X228758198Y-120513914D02*
X228686769Y-120478200D01*
X228686769Y-120478200D02*
X228651055Y-120406771D01*
X228651055Y-120406771D02*
X228651055Y-120121057D01*
X228651055Y-120121057D02*
X228686769Y-120049628D01*
X228686769Y-120049628D02*
X228758198Y-120013914D01*
X228758198Y-120013914D02*
X228901055Y-120013914D01*
X228901055Y-120013914D02*
X228972483Y-120049628D01*
X228972483Y-120049628D02*
X229008198Y-120121057D01*
X229008198Y-120121057D02*
X229008198Y-120192485D01*
X229008198Y-120192485D02*
X228651055Y-120263914D01*
X229293912Y-120478200D02*
X229365340Y-120513914D01*
X229365340Y-120513914D02*
X229508197Y-120513914D01*
X229508197Y-120513914D02*
X229579626Y-120478200D01*
X229579626Y-120478200D02*
X229615340Y-120406771D01*
X229615340Y-120406771D02*
X229615340Y-120371057D01*
X229615340Y-120371057D02*
X229579626Y-120299628D01*
X229579626Y-120299628D02*
X229508197Y-120263914D01*
X229508197Y-120263914D02*
X229401055Y-120263914D01*
X229401055Y-120263914D02*
X229329626Y-120228200D01*
X229329626Y-120228200D02*
X229293912Y-120156771D01*
X229293912Y-120156771D02*
X229293912Y-120121057D01*
X229293912Y-120121057D02*
X229329626Y-120049628D01*
X229329626Y-120049628D02*
X229401055Y-120013914D01*
X229401055Y-120013914D02*
X229508197Y-120013914D01*
X229508197Y-120013914D02*
X229579626Y-120049628D01*
X229829626Y-120013914D02*
X230115340Y-120013914D01*
X229936769Y-119763914D02*
X229936769Y-120406771D01*
X229936769Y-120406771D02*
X229972483Y-120478200D01*
X229972483Y-120478200D02*
X230043912Y-120513914D01*
X230043912Y-120513914D02*
X230115340Y-120513914D01*
X230365340Y-120513914D02*
X230365340Y-120013914D01*
X230365340Y-119763914D02*
X230329626Y-119799628D01*
X230329626Y-119799628D02*
X230365340Y-119835342D01*
X230365340Y-119835342D02*
X230401054Y-119799628D01*
X230401054Y-119799628D02*
X230365340Y-119763914D01*
X230365340Y-119763914D02*
X230365340Y-119835342D01*
X230722483Y-120013914D02*
X230722483Y-120513914D01*
X230722483Y-120085342D02*
X230758197Y-120049628D01*
X230758197Y-120049628D02*
X230829626Y-120013914D01*
X230829626Y-120013914D02*
X230936769Y-120013914D01*
X230936769Y-120013914D02*
X231008197Y-120049628D01*
X231008197Y-120049628D02*
X231043912Y-120121057D01*
X231043912Y-120121057D02*
X231043912Y-120513914D01*
X231722483Y-120013914D02*
X231722483Y-120621057D01*
X231722483Y-120621057D02*
X231686768Y-120692485D01*
X231686768Y-120692485D02*
X231651054Y-120728200D01*
X231651054Y-120728200D02*
X231579625Y-120763914D01*
X231579625Y-120763914D02*
X231472483Y-120763914D01*
X231472483Y-120763914D02*
X231401054Y-120728200D01*
X231722483Y-120478200D02*
X231651054Y-120513914D01*
X231651054Y-120513914D02*
X231508197Y-120513914D01*
X231508197Y-120513914D02*
X231436768Y-120478200D01*
X231436768Y-120478200D02*
X231401054Y-120442485D01*
X231401054Y-120442485D02*
X231365340Y-120371057D01*
X231365340Y-120371057D02*
X231365340Y-120156771D01*
X231365340Y-120156771D02*
X231401054Y-120085342D01*
X231401054Y-120085342D02*
X231436768Y-120049628D01*
X231436768Y-120049628D02*
X231508197Y-120013914D01*
X231508197Y-120013914D02*
X231651054Y-120013914D01*
X231651054Y-120013914D02*
X231722483Y-120049628D01*
X232651054Y-120513914D02*
X232651054Y-120013914D01*
X232651054Y-120085342D02*
X232686768Y-120049628D01*
X232686768Y-120049628D02*
X232758197Y-120013914D01*
X232758197Y-120013914D02*
X232865340Y-120013914D01*
X232865340Y-120013914D02*
X232936768Y-120049628D01*
X232936768Y-120049628D02*
X232972483Y-120121057D01*
X232972483Y-120121057D02*
X232972483Y-120513914D01*
X232972483Y-120121057D02*
X233008197Y-120049628D01*
X233008197Y-120049628D02*
X233079625Y-120013914D01*
X233079625Y-120013914D02*
X233186768Y-120013914D01*
X233186768Y-120013914D02*
X233258197Y-120049628D01*
X233258197Y-120049628D02*
X233293911Y-120121057D01*
X233293911Y-120121057D02*
X233293911Y-120513914D01*
X233936768Y-120478200D02*
X233865340Y-120513914D01*
X233865340Y-120513914D02*
X233722483Y-120513914D01*
X233722483Y-120513914D02*
X233651054Y-120478200D01*
X233651054Y-120478200D02*
X233615340Y-120406771D01*
X233615340Y-120406771D02*
X233615340Y-120121057D01*
X233615340Y-120121057D02*
X233651054Y-120049628D01*
X233651054Y-120049628D02*
X233722483Y-120013914D01*
X233722483Y-120013914D02*
X233865340Y-120013914D01*
X233865340Y-120013914D02*
X233936768Y-120049628D01*
X233936768Y-120049628D02*
X233972483Y-120121057D01*
X233972483Y-120121057D02*
X233972483Y-120192485D01*
X233972483Y-120192485D02*
X233615340Y-120263914D01*
X234258197Y-120478200D02*
X234329625Y-120513914D01*
X234329625Y-120513914D02*
X234472482Y-120513914D01*
X234472482Y-120513914D02*
X234543911Y-120478200D01*
X234543911Y-120478200D02*
X234579625Y-120406771D01*
X234579625Y-120406771D02*
X234579625Y-120371057D01*
X234579625Y-120371057D02*
X234543911Y-120299628D01*
X234543911Y-120299628D02*
X234472482Y-120263914D01*
X234472482Y-120263914D02*
X234365340Y-120263914D01*
X234365340Y-120263914D02*
X234293911Y-120228200D01*
X234293911Y-120228200D02*
X234258197Y-120156771D01*
X234258197Y-120156771D02*
X234258197Y-120121057D01*
X234258197Y-120121057D02*
X234293911Y-120049628D01*
X234293911Y-120049628D02*
X234365340Y-120013914D01*
X234365340Y-120013914D02*
X234472482Y-120013914D01*
X234472482Y-120013914D02*
X234543911Y-120049628D01*
X234865340Y-120478200D02*
X234936768Y-120513914D01*
X234936768Y-120513914D02*
X235079625Y-120513914D01*
X235079625Y-120513914D02*
X235151054Y-120478200D01*
X235151054Y-120478200D02*
X235186768Y-120406771D01*
X235186768Y-120406771D02*
X235186768Y-120371057D01*
X235186768Y-120371057D02*
X235151054Y-120299628D01*
X235151054Y-120299628D02*
X235079625Y-120263914D01*
X235079625Y-120263914D02*
X234972483Y-120263914D01*
X234972483Y-120263914D02*
X234901054Y-120228200D01*
X234901054Y-120228200D02*
X234865340Y-120156771D01*
X234865340Y-120156771D02*
X234865340Y-120121057D01*
X234865340Y-120121057D02*
X234901054Y-120049628D01*
X234901054Y-120049628D02*
X234972483Y-120013914D01*
X234972483Y-120013914D02*
X235079625Y-120013914D01*
X235079625Y-120013914D02*
X235151054Y-120049628D01*
X235829626Y-120513914D02*
X235829626Y-120121057D01*
X235829626Y-120121057D02*
X235793911Y-120049628D01*
X235793911Y-120049628D02*
X235722483Y-120013914D01*
X235722483Y-120013914D02*
X235579626Y-120013914D01*
X235579626Y-120013914D02*
X235508197Y-120049628D01*
X235829626Y-120478200D02*
X235758197Y-120513914D01*
X235758197Y-120513914D02*
X235579626Y-120513914D01*
X235579626Y-120513914D02*
X235508197Y-120478200D01*
X235508197Y-120478200D02*
X235472483Y-120406771D01*
X235472483Y-120406771D02*
X235472483Y-120335342D01*
X235472483Y-120335342D02*
X235508197Y-120263914D01*
X235508197Y-120263914D02*
X235579626Y-120228200D01*
X235579626Y-120228200D02*
X235758197Y-120228200D01*
X235758197Y-120228200D02*
X235829626Y-120192485D01*
X236508197Y-120013914D02*
X236508197Y-120621057D01*
X236508197Y-120621057D02*
X236472482Y-120692485D01*
X236472482Y-120692485D02*
X236436768Y-120728200D01*
X236436768Y-120728200D02*
X236365339Y-120763914D01*
X236365339Y-120763914D02*
X236258197Y-120763914D01*
X236258197Y-120763914D02*
X236186768Y-120728200D01*
X236508197Y-120478200D02*
X236436768Y-120513914D01*
X236436768Y-120513914D02*
X236293911Y-120513914D01*
X236293911Y-120513914D02*
X236222482Y-120478200D01*
X236222482Y-120478200D02*
X236186768Y-120442485D01*
X236186768Y-120442485D02*
X236151054Y-120371057D01*
X236151054Y-120371057D02*
X236151054Y-120156771D01*
X236151054Y-120156771D02*
X236186768Y-120085342D01*
X236186768Y-120085342D02*
X236222482Y-120049628D01*
X236222482Y-120049628D02*
X236293911Y-120013914D01*
X236293911Y-120013914D02*
X236436768Y-120013914D01*
X236436768Y-120013914D02*
X236508197Y-120049628D01*
X237151053Y-120478200D02*
X237079625Y-120513914D01*
X237079625Y-120513914D02*
X236936768Y-120513914D01*
X236936768Y-120513914D02*
X236865339Y-120478200D01*
X236865339Y-120478200D02*
X236829625Y-120406771D01*
X236829625Y-120406771D02*
X236829625Y-120121057D01*
X236829625Y-120121057D02*
X236865339Y-120049628D01*
X236865339Y-120049628D02*
X236936768Y-120013914D01*
X236936768Y-120013914D02*
X237079625Y-120013914D01*
X237079625Y-120013914D02*
X237151053Y-120049628D01*
X237151053Y-120049628D02*
X237186768Y-120121057D01*
X237186768Y-120121057D02*
X237186768Y-120192485D01*
X237186768Y-120192485D02*
X236829625Y-120263914D01*
X237508196Y-120442485D02*
X237543910Y-120478200D01*
X237543910Y-120478200D02*
X237508196Y-120513914D01*
X237508196Y-120513914D02*
X237472482Y-120478200D01*
X237472482Y-120478200D02*
X237508196Y-120442485D01*
X237508196Y-120442485D02*
X237508196Y-120513914D01*
X231008197Y-120971414D02*
X231436769Y-120971414D01*
X231222483Y-121721414D02*
X231222483Y-120971414D01*
X231972483Y-121685700D02*
X231901055Y-121721414D01*
X231901055Y-121721414D02*
X231758198Y-121721414D01*
X231758198Y-121721414D02*
X231686769Y-121685700D01*
X231686769Y-121685700D02*
X231651055Y-121614271D01*
X231651055Y-121614271D02*
X231651055Y-121328557D01*
X231651055Y-121328557D02*
X231686769Y-121257128D01*
X231686769Y-121257128D02*
X231758198Y-121221414D01*
X231758198Y-121221414D02*
X231901055Y-121221414D01*
X231901055Y-121221414D02*
X231972483Y-121257128D01*
X231972483Y-121257128D02*
X232008198Y-121328557D01*
X232008198Y-121328557D02*
X232008198Y-121399985D01*
X232008198Y-121399985D02*
X231651055Y-121471414D01*
X232293912Y-121685700D02*
X232365340Y-121721414D01*
X232365340Y-121721414D02*
X232508197Y-121721414D01*
X232508197Y-121721414D02*
X232579626Y-121685700D01*
X232579626Y-121685700D02*
X232615340Y-121614271D01*
X232615340Y-121614271D02*
X232615340Y-121578557D01*
X232615340Y-121578557D02*
X232579626Y-121507128D01*
X232579626Y-121507128D02*
X232508197Y-121471414D01*
X232508197Y-121471414D02*
X232401055Y-121471414D01*
X232401055Y-121471414D02*
X232329626Y-121435700D01*
X232329626Y-121435700D02*
X232293912Y-121364271D01*
X232293912Y-121364271D02*
X232293912Y-121328557D01*
X232293912Y-121328557D02*
X232329626Y-121257128D01*
X232329626Y-121257128D02*
X232401055Y-121221414D01*
X232401055Y-121221414D02*
X232508197Y-121221414D01*
X232508197Y-121221414D02*
X232579626Y-121257128D01*
X232829626Y-121221414D02*
X233115340Y-121221414D01*
X232936769Y-120971414D02*
X232936769Y-121614271D01*
X232936769Y-121614271D02*
X232972483Y-121685700D01*
X232972483Y-121685700D02*
X233043912Y-121721414D01*
X233043912Y-121721414D02*
X233115340Y-121721414D01*
X233365340Y-121721414D02*
X233365340Y-121221414D01*
X233365340Y-120971414D02*
X233329626Y-121007128D01*
X233329626Y-121007128D02*
X233365340Y-121042842D01*
X233365340Y-121042842D02*
X233401054Y-121007128D01*
X233401054Y-121007128D02*
X233365340Y-120971414D01*
X233365340Y-120971414D02*
X233365340Y-121042842D01*
X233722483Y-121221414D02*
X233722483Y-121721414D01*
X233722483Y-121292842D02*
X233758197Y-121257128D01*
X233758197Y-121257128D02*
X233829626Y-121221414D01*
X233829626Y-121221414D02*
X233936769Y-121221414D01*
X233936769Y-121221414D02*
X234008197Y-121257128D01*
X234008197Y-121257128D02*
X234043912Y-121328557D01*
X234043912Y-121328557D02*
X234043912Y-121721414D01*
X234722483Y-121221414D02*
X234722483Y-121828557D01*
X234722483Y-121828557D02*
X234686768Y-121899985D01*
X234686768Y-121899985D02*
X234651054Y-121935700D01*
X234651054Y-121935700D02*
X234579625Y-121971414D01*
X234579625Y-121971414D02*
X234472483Y-121971414D01*
X234472483Y-121971414D02*
X234401054Y-121935700D01*
X234722483Y-121685700D02*
X234651054Y-121721414D01*
X234651054Y-121721414D02*
X234508197Y-121721414D01*
X234508197Y-121721414D02*
X234436768Y-121685700D01*
X234436768Y-121685700D02*
X234401054Y-121649985D01*
X234401054Y-121649985D02*
X234365340Y-121578557D01*
X234365340Y-121578557D02*
X234365340Y-121364271D01*
X234365340Y-121364271D02*
X234401054Y-121292842D01*
X234401054Y-121292842D02*
X234436768Y-121257128D01*
X234436768Y-121257128D02*
X234508197Y-121221414D01*
X234508197Y-121221414D02*
X234651054Y-121221414D01*
X234651054Y-121221414D02*
X234722483Y-121257128D01*
X235651054Y-121721414D02*
X235651054Y-121221414D01*
X235651054Y-121292842D02*
X235686768Y-121257128D01*
X235686768Y-121257128D02*
X235758197Y-121221414D01*
X235758197Y-121221414D02*
X235865340Y-121221414D01*
X235865340Y-121221414D02*
X235936768Y-121257128D01*
X235936768Y-121257128D02*
X235972483Y-121328557D01*
X235972483Y-121328557D02*
X235972483Y-121721414D01*
X235972483Y-121328557D02*
X236008197Y-121257128D01*
X236008197Y-121257128D02*
X236079625Y-121221414D01*
X236079625Y-121221414D02*
X236186768Y-121221414D01*
X236186768Y-121221414D02*
X236258197Y-121257128D01*
X236258197Y-121257128D02*
X236293911Y-121328557D01*
X236293911Y-121328557D02*
X236293911Y-121721414D01*
X236936768Y-121685700D02*
X236865340Y-121721414D01*
X236865340Y-121721414D02*
X236722483Y-121721414D01*
X236722483Y-121721414D02*
X236651054Y-121685700D01*
X236651054Y-121685700D02*
X236615340Y-121614271D01*
X236615340Y-121614271D02*
X236615340Y-121328557D01*
X236615340Y-121328557D02*
X236651054Y-121257128D01*
X236651054Y-121257128D02*
X236722483Y-121221414D01*
X236722483Y-121221414D02*
X236865340Y-121221414D01*
X236865340Y-121221414D02*
X236936768Y-121257128D01*
X236936768Y-121257128D02*
X236972483Y-121328557D01*
X236972483Y-121328557D02*
X236972483Y-121399985D01*
X236972483Y-121399985D02*
X236615340Y-121471414D01*
X237258197Y-121685700D02*
X237329625Y-121721414D01*
X237329625Y-121721414D02*
X237472482Y-121721414D01*
X237472482Y-121721414D02*
X237543911Y-121685700D01*
X237543911Y-121685700D02*
X237579625Y-121614271D01*
X237579625Y-121614271D02*
X237579625Y-121578557D01*
X237579625Y-121578557D02*
X237543911Y-121507128D01*
X237543911Y-121507128D02*
X237472482Y-121471414D01*
X237472482Y-121471414D02*
X237365340Y-121471414D01*
X237365340Y-121471414D02*
X237293911Y-121435700D01*
X237293911Y-121435700D02*
X237258197Y-121364271D01*
X237258197Y-121364271D02*
X237258197Y-121328557D01*
X237258197Y-121328557D02*
X237293911Y-121257128D01*
X237293911Y-121257128D02*
X237365340Y-121221414D01*
X237365340Y-121221414D02*
X237472482Y-121221414D01*
X237472482Y-121221414D02*
X237543911Y-121257128D01*
X237865340Y-121685700D02*
X237936768Y-121721414D01*
X237936768Y-121721414D02*
X238079625Y-121721414D01*
X238079625Y-121721414D02*
X238151054Y-121685700D01*
X238151054Y-121685700D02*
X238186768Y-121614271D01*
X238186768Y-121614271D02*
X238186768Y-121578557D01*
X238186768Y-121578557D02*
X238151054Y-121507128D01*
X238151054Y-121507128D02*
X238079625Y-121471414D01*
X238079625Y-121471414D02*
X237972483Y-121471414D01*
X237972483Y-121471414D02*
X237901054Y-121435700D01*
X237901054Y-121435700D02*
X237865340Y-121364271D01*
X237865340Y-121364271D02*
X237865340Y-121328557D01*
X237865340Y-121328557D02*
X237901054Y-121257128D01*
X237901054Y-121257128D02*
X237972483Y-121221414D01*
X237972483Y-121221414D02*
X238079625Y-121221414D01*
X238079625Y-121221414D02*
X238151054Y-121257128D01*
X238829626Y-121721414D02*
X238829626Y-121328557D01*
X238829626Y-121328557D02*
X238793911Y-121257128D01*
X238793911Y-121257128D02*
X238722483Y-121221414D01*
X238722483Y-121221414D02*
X238579626Y-121221414D01*
X238579626Y-121221414D02*
X238508197Y-121257128D01*
X238829626Y-121685700D02*
X238758197Y-121721414D01*
X238758197Y-121721414D02*
X238579626Y-121721414D01*
X238579626Y-121721414D02*
X238508197Y-121685700D01*
X238508197Y-121685700D02*
X238472483Y-121614271D01*
X238472483Y-121614271D02*
X238472483Y-121542842D01*
X238472483Y-121542842D02*
X238508197Y-121471414D01*
X238508197Y-121471414D02*
X238579626Y-121435700D01*
X238579626Y-121435700D02*
X238758197Y-121435700D01*
X238758197Y-121435700D02*
X238829626Y-121399985D01*
X239508197Y-121221414D02*
X239508197Y-121828557D01*
X239508197Y-121828557D02*
X239472482Y-121899985D01*
X239472482Y-121899985D02*
X239436768Y-121935700D01*
X239436768Y-121935700D02*
X239365339Y-121971414D01*
X239365339Y-121971414D02*
X239258197Y-121971414D01*
X239258197Y-121971414D02*
X239186768Y-121935700D01*
X239508197Y-121685700D02*
X239436768Y-121721414D01*
X239436768Y-121721414D02*
X239293911Y-121721414D01*
X239293911Y-121721414D02*
X239222482Y-121685700D01*
X239222482Y-121685700D02*
X239186768Y-121649985D01*
X239186768Y-121649985D02*
X239151054Y-121578557D01*
X239151054Y-121578557D02*
X239151054Y-121364271D01*
X239151054Y-121364271D02*
X239186768Y-121292842D01*
X239186768Y-121292842D02*
X239222482Y-121257128D01*
X239222482Y-121257128D02*
X239293911Y-121221414D01*
X239293911Y-121221414D02*
X239436768Y-121221414D01*
X239436768Y-121221414D02*
X239508197Y-121257128D01*
X240151053Y-121685700D02*
X240079625Y-121721414D01*
X240079625Y-121721414D02*
X239936768Y-121721414D01*
X239936768Y-121721414D02*
X239865339Y-121685700D01*
X239865339Y-121685700D02*
X239829625Y-121614271D01*
X239829625Y-121614271D02*
X239829625Y-121328557D01*
X239829625Y-121328557D02*
X239865339Y-121257128D01*
X239865339Y-121257128D02*
X239936768Y-121221414D01*
X239936768Y-121221414D02*
X240079625Y-121221414D01*
X240079625Y-121221414D02*
X240151053Y-121257128D01*
X240151053Y-121257128D02*
X240186768Y-121328557D01*
X240186768Y-121328557D02*
X240186768Y-121399985D01*
X240186768Y-121399985D02*
X239829625Y-121471414D01*
X240508196Y-121649985D02*
X240543910Y-121685700D01*
X240543910Y-121685700D02*
X240508196Y-121721414D01*
X240508196Y-121721414D02*
X240472482Y-121685700D01*
X240472482Y-121685700D02*
X240508196Y-121649985D01*
X240508196Y-121649985D02*
X240508196Y-121721414D01*
D11*
X22506125Y-128089432D02*
X23315648Y-128089432D01*
X23315648Y-128089432D02*
X23410886Y-128041813D01*
X23410886Y-128041813D02*
X23458506Y-127994194D01*
X23458506Y-127994194D02*
X23506125Y-127898956D01*
X23506125Y-127898956D02*
X23506125Y-127708480D01*
X23506125Y-127708480D02*
X23458506Y-127613242D01*
X23458506Y-127613242D02*
X23410886Y-127565623D01*
X23410886Y-127565623D02*
X23315648Y-127518004D01*
X23315648Y-127518004D02*
X22506125Y-127518004D01*
X23506125Y-126518004D02*
X23506125Y-127089432D01*
X23506125Y-126803718D02*
X22506125Y-126803718D01*
X22506125Y-126803718D02*
X22648982Y-126898956D01*
X22648982Y-126898956D02*
X22744220Y-126994194D01*
X22744220Y-126994194D02*
X22791839Y-127089432D01*
%LPC*%
%LPD*%
M02*
