  0
SECTION
  2
HEADER
  9
$ANGBASE
  50
0.0
  9
$ANGDIR
  70
1
  9
$MEASUREMENT
  70
1
  0
ENDSEC
  0
SECTION
  2
TABLES
  0
TABLE
  2
LTYPE
  70
4
  0
LTYPE
  5
40F
  2
CONTINUOUS
  70
0
  3
Solid line
  72
65
  73
0
  40
0.0
  0
LTYPE
  5
410
  2
DASHDOT
 70
0
  3
Dash Dot ____ _ ____ _
 72
65
 73
4
 40
2.0
 49
1.25
 49
-0.25
 49
0.25
 49
-0.25
  0
LTYPE
  5
411
  2
DASHED
 70
0
  3
Dashed __ __ __ __ __
 72
65
 73
2
 40
0.75
 49
0.5
 49
-0.25
  0
LTYPE
  5
43B
  2
DOTTED
 70
0
  3
Dotted .  .  .  .
 72
65
 73
2
 40
0.2
 49
0.0
 49
-0.2
  0
ENDTAB
  0
TABLE
  2
STYLE
  70
4
  0
STYLE
  2
KICAD
  70
0
  40
0
  41
1
  42
1
  50
0
  71
0
  3
isocp.shx
  0
STYLE
  2
KICADB
  70
0
  40
0
  41
1
  42
1
  50
0
  71
0
  3
isocp.shx
  0
STYLE
  2
KICADI
  70
0
  40
0
  41
1
  42
1
  50
15
  71
0
  3
isocp.shx
  0
STYLE
  2
KICADBI
  70
0
  40
0
  41
1
  42
1
  50
15
  71
0
  3
isocp.shx
  0
ENDTAB
  0
TABLE
  2
LAYER
  70
1
  0
LAYER
  2
BLACK
  70
0
  62
7
  6
CONTINUOUS
  0
ENDTAB
  0
ENDSEC
  0
SECTION
  2
ENTITIES
0
ARC
8
BLACK
10
22.4454
20
-55.9537
40
1.33257
50
-270.591
51
-179.222
0
ARC
8
BLACK
10
39.2226
20
-50.3523
40
2.78875
50
89.4668
51
134.517
0
ARC
8
BLACK
10
178.806
20
-116.608
40
1.5398
50
-75.1029
51
-0.215595
0
ARC
8
BLACK
10
275.479
20
-55.9537
40
1.33254
50
-0.778
51
90.5912
0
LINE
8
BLACK
6
CONTINUOUS
10
275.44
20
-113.757
11
251.279
21
-113.757
0
LINE
8
BLACK
6
CONTINUOUS
10
267.835
20
-54.6212
11
275.466
21
-54.6212
0
LINE
8
BLACK
6
CONTINUOUS
10
276.811
20
-112.423
11
276.812
21
-55.9718
0
ARC
8
BLACK
10
275.488
20
-112.435
40
1.32267
50
-92.0775
51
0.546078
0
ARC
8
BLACK
10
258.702
20
-50.3525
40
2.78893
50
45.486
51
90.5331
0
LINE
8
BLACK
6
CONTINUOUS
10
139.934
20
-145.798
11
49.307
21
-133.936
0
ARC
8
BLACK
10
119.119
20
-105.724
40
1.53999
50
-180.728
51
-107.76
0
LINE
8
BLACK
6
CONTINUOUS
10
116.807
20
-47.5637
11
39.2486
21
-47.5637
0
LINE
8
BLACK
6
CONTINUOUS
10
37.2674
20
-48.3638
11
31.6137
21
-54.0066
0
LINE
8
BLACK
6
CONTINUOUS
10
151.158
20
-126.85
11
155.882
21
-144.401
0
ARC
8
BLACK
10
147.451
20
-119.108
40
1.35
50
-11.6971
51
67.8428
0
ARC
8
BLACK
10
22.4366
20
-112.435
40
1.32269
50
-180.546
51
-87.9224
0
LINE
8
BLACK
6
CONTINUOUS
10
22.4592
20
-54.6212
11
30.0897
21
-54.6212
0
LINE
8
BLACK
6
CONTINUOUS
10
117.579
20
-48.313
11
117.579
21
-105.704
0
LINE
8
BLACK
6
CONTINUOUS
10
142.042
20
-144.401
11
148.773
21
-119.382
0
LINE
8
BLACK
6
CONTINUOUS
10
151.92
20
-125.402
11
179.202
21
-118.096
0
ARC
8
BLACK
10
152.299
20
-126.526
40
1.18613
50
-251.363
51
-164.153
0
LINE
8
BLACK
6
CONTINUOUS
10
48.0158
20
-115.143
11
48.0158
21
-132.387
0
ARC
8
BLACK
10
116.836
20
-48.3058
40
0.742674
50
-0.55503
51
92.242
0
ARC
8
BLACK
10
267.759
20
-52.6131
40
2.00957
50
-136.098
51
-87.8312
0
LINE
8
BLACK
6
CONTINUOUS
10
249.909
20
-132.387
11
249.909
21
-115.143
0
ARC
8
BLACK
10
140.244
20
-143.976
40
1.84792
50
-99.6499
51
-13.2867
0
LINE
8
BLACK
6
CONTINUOUS
10
258.676
20
-47.5637
11
181.118
21
-47.5637
0
ARC
8
BLACK
10
251.231
20
-115.08
40
1.32407
50
-272.077
51
-177.269
0
ARC
8
BLACK
10
30.1657
20
-52.613
40
2.00964
50
-92.1687
51
-43.9041
0
ARC
8
BLACK
10
157.681
20
-143.976
40
1.84794
50
-166.71
51
-80.3506
0
LINE
8
BLACK
6
CONTINUOUS
10
21.113
20
-55.9718
11
21.114
21
-112.423
0
LINE
8
BLACK
6
CONTINUOUS
10
46.6452
20
-113.757
11
22.4846
21
-113.757
0
ARC
8
BLACK
10
49.5057
20
-132.458
40
1.49159
50
-182.732
51
-97.6572
0
LINE
8
BLACK
6
CONTINUOUS
10
180.346
20
-116.614
11
180.346
21
-48.313
0
LINE
8
BLACK
6
CONTINUOUS
10
248.618
20
-133.936
11
157.991
21
-145.798
0
ARC
8
BLACK
10
181.088
20
-48.3058
40
0.742646
50
-272.242
51
-179.445
0
LINE
8
BLACK
6
CONTINUOUS
10
147.961
20
-117.858
11
118.649
21
-107.19
0
LINE
8
BLACK
6
CONTINUOUS
10
266.311
20
-54.0066
11
260.657
21
-48.3638
0
ARC
8
BLACK
10
248.419
20
-132.458
40
1.49163
50
-82.3428
51
2.73233
0
ARC
8
BLACK
10
46.6932
20
-115.08
40
1.32404
50
-2.73134
51
92.0771
0
LINE
8
BLACK
6
CONTINUOUS
10
42.8395
20
-91.2356
11
58.4395
21
-91.2356
0
LINE
8
BLACK
6
CONTINUOUS
10
58.4395
20
-91.2356
11
58.4395
21
-106.836
0
LINE
8
BLACK
6
CONTINUOUS
10
58.4395
20
-106.836
11
42.8395
21
-106.836
0
LINE
8
BLACK
6
CONTINUOUS
10
42.8395
20
-106.836
11
42.8395
21
-91.2356
0
LINE
8
BLACK
6
CONTINUOUS
10
42.8395
20
-72.236
11
58.4395
21
-72.236
0
LINE
8
BLACK
6
CONTINUOUS
10
58.4395
20
-72.236
11
58.4395
21
-87.836
0
LINE
8
BLACK
6
CONTINUOUS
10
58.4395
20
-87.836
11
42.8395
21
-87.836
0
LINE
8
BLACK
6
CONTINUOUS
10
42.8395
20
-87.836
11
42.8395
21
-72.236
0
LINE
8
BLACK
6
CONTINUOUS
10
135.144
20
-123.428
11
134.644
21
-125.292
0
LINE
8
BLACK
6
CONTINUOUS
10
134.644
20
-125.292
11
137.22
21
-125.983
0
LINE
8
BLACK
6
CONTINUOUS
10
137.22
20
-125.983
11
137.72
21
-124.118
0
LINE
8
BLACK
6
CONTINUOUS
10
137.72
20
-124.118
11
139.977
21
-124.723
0
LINE
8
BLACK
6
CONTINUOUS
10
139.977
20
-124.723
11
139.477
21
-126.587
0
LINE
8
BLACK
6
CONTINUOUS
10
139.477
20
-126.587
11
141.71
21
-127.186
0
LINE
8
BLACK
6
CONTINUOUS
10
141.71
20
-127.186
11
140.56
21
-131.479
0
LINE
8
BLACK
6
CONTINUOUS
10
140.56
20
-131.479
11
141.296
21
-131.676
0
LINE
8
BLACK
6
CONTINUOUS
10
141.296
20
-131.676
11
140.402
21
-135.013
0
LINE
8
BLACK
6
CONTINUOUS
10
140.402
20
-135.013
11
139.666
21
-134.816
0
LINE
8
BLACK
6
CONTINUOUS
10
139.666
20
-134.816
11
138.528
21
-139.06
0
LINE
8
BLACK
6
CONTINUOUS
10
138.528
20
-139.06
11
136.369
21
-138.482
0
LINE
8
BLACK
6
CONTINUOUS
10
136.369
20
-138.482
11
135.679
21
-141.058
0
LINE
8
BLACK
6
CONTINUOUS
10
135.679
20
-141.058
11
128.49
21
-139.132
0
LINE
8
BLACK
6
CONTINUOUS
10
128.49
20
-139.132
11
129.181
21
-136.556
0
LINE
8
BLACK
6
CONTINUOUS
10
129.181
20
-136.556
11
126.997
21
-135.97
0
LINE
8
BLACK
6
CONTINUOUS
10
126.997
20
-135.97
11
128.134
21
-131.726
0
LINE
8
BLACK
6
CONTINUOUS
10
128.134
20
-131.726
11
127.423
21
-131.535
0
LINE
8
BLACK
6
CONTINUOUS
10
127.423
20
-131.535
11
128.304
21
-128.248
0
LINE
8
BLACK
6
CONTINUOUS
10
128.304
20
-128.248
11
129.015
21
-128.438
0
LINE
8
BLACK
6
CONTINUOUS
10
129.015
20
-128.438
11
130.179
21
-124.096
0
LINE
8
BLACK
6
CONTINUOUS
10
130.179
20
-124.096
11
132.436
21
-124.701
0
LINE
8
BLACK
6
CONTINUOUS
10
132.436
20
-124.701
11
132.936
21
-122.836
0
LINE
8
BLACK
6
CONTINUOUS
10
132.936
20
-122.836
11
135.144
21
-123.428
0
CIRCLE
8
BLACK
10
99.8403
20
-52.8477
40
1.6
0
LINE
8
BLACK
6
CONTINUOUS
10
91.4221
20
-113.063
11
106.491
21
-117.101
0
LINE
8
BLACK
6
CONTINUOUS
10
106.491
20
-117.101
11
102.453
21
-132.169
0
LINE
8
BLACK
6
CONTINUOUS
10
102.453
20
-132.169
11
87.3845
21
-128.132
0
LINE
8
BLACK
6
CONTINUOUS
10
87.3845
20
-128.132
11
91.4221
21
-113.063
0
LINE
8
BLACK
6
CONTINUOUS
10
23.8393
20
-57.235
11
39.4393
21
-57.235
0
LINE
8
BLACK
6
CONTINUOUS
10
39.4393
20
-57.235
11
39.4393
21
-72.835
0
LINE
8
BLACK
6
CONTINUOUS
10
39.4393
20
-72.835
11
23.8393
21
-72.835
0
LINE
8
BLACK
6
CONTINUOUS
10
23.8393
20
-72.835
11
23.8393
21
-57.235
0
LINE
8
BLACK
6
CONTINUOUS
10
23.8393
20
-76.2354
11
39.4393
21
-76.2354
0
LINE
8
BLACK
6
CONTINUOUS
10
39.4393
20
-76.2354
11
39.4393
21
-91.8354
0
LINE
8
BLACK
6
CONTINUOUS
10
39.4393
20
-91.8354
11
23.8393
21
-91.8354
0
LINE
8
BLACK
6
CONTINUOUS
10
23.8393
20
-91.8354
11
23.8393
21
-76.2354
0
CIRCLE
8
BLACK
10
96.4494
20
-110.286
40
1.6
0
CIRCLE
8
BLACK
10
42.9062
20
-110.391
40
1.6
0
LINE
8
BLACK
6
CONTINUOUS
10
109.784
20
-118.858
11
124.852
21
-122.896
0
LINE
8
BLACK
6
CONTINUOUS
10
124.852
20
-122.896
11
120.815
21
-137.964
0
LINE
8
BLACK
6
CONTINUOUS
10
120.815
20
-137.964
11
105.746
21
-133.927
0
LINE
8
BLACK
6
CONTINUOUS
10
105.746
20
-133.927
11
109.784
21
-118.858
0
LINE
8
BLACK
6
CONTINUOUS
10
61.8389
20
-88.2258
11
77.4389
21
-88.2258
0
LINE
8
BLACK
6
CONTINUOUS
10
77.4389
20
-88.2258
11
77.4389
21
-103.826
0
LINE
8
BLACK
6
CONTINUOUS
10
77.4389
20
-103.826
11
61.8389
21
-103.826
0
LINE
8
BLACK
6
CONTINUOUS
10
61.8389
20
-103.826
11
61.8389
21
-88.2258
0
CIRCLE
8
BLACK
10
123.373
20
-140.464
40
1.6
0
LINE
8
BLACK
6
CONTINUOUS
10
80.8391
20
-53.2358
11
96.4391
21
-53.2358
0
LINE
8
BLACK
6
CONTINUOUS
10
96.4391
20
-53.2358
11
96.4391
21
-68.8358
0
LINE
8
BLACK
6
CONTINUOUS
10
96.4391
20
-68.8358
11
80.8391
21
-68.8358
0
LINE
8
BLACK
6
CONTINUOUS
10
80.8391
20
-68.8358
11
80.8391
21
-53.2358
0
LINE
8
BLACK
6
CONTINUOUS
10
42.8395
20
-53.2364
11
58.4395
21
-53.2364
0
LINE
8
BLACK
6
CONTINUOUS
10
58.4395
20
-53.2364
11
58.4395
21
-68.8364
0
LINE
8
BLACK
6
CONTINUOUS
10
58.4395
20
-68.8364
11
42.8395
21
-68.8364
0
LINE
8
BLACK
6
CONTINUOUS
10
42.8395
20
-68.8364
11
42.8395
21
-53.2364
0
LINE
8
BLACK
6
CONTINUOUS
10
99.8388
20
-56.2364
11
115.439
21
-56.2364
0
LINE
8
BLACK
6
CONTINUOUS
10
115.439
20
-56.2364
11
115.439
21
-71.8364
0
LINE
8
BLACK
6
CONTINUOUS
10
115.439
20
-71.8364
11
99.8388
21
-71.8364
0
LINE
8
BLACK
6
CONTINUOUS
10
99.8388
20
-71.8364
11
99.8388
21
-56.2364
0
LINE
8
BLACK
6
CONTINUOUS
10
80.8391
20
-91.2362
11
96.4391
21
-91.2362
0
LINE
8
BLACK
6
CONTINUOUS
10
96.4391
20
-91.2362
11
96.4391
21
-106.836
0
LINE
8
BLACK
6
CONTINUOUS
10
96.4391
20
-106.836
11
80.8391
21
-106.836
0
LINE
8
BLACK
6
CONTINUOUS
10
80.8391
20
-106.836
11
80.8391
21
-91.2362
0
LINE
8
BLACK
6
CONTINUOUS
10
99.8388
20
-94.2362
11
115.439
21
-94.2362
0
LINE
8
BLACK
6
CONTINUOUS
10
115.439
20
-94.2362
11
115.439
21
-109.836
0
LINE
8
BLACK
6
CONTINUOUS
10
115.439
20
-109.836
11
99.8388
21
-109.836
0
LINE
8
BLACK
6
CONTINUOUS
10
99.8388
20
-109.836
11
99.8388
21
-94.2362
0
LINE
8
BLACK
6
CONTINUOUS
10
80.8391
20
-72.2358
11
96.4391
21
-72.2358
0
LINE
8
BLACK
6
CONTINUOUS
10
96.4391
20
-72.2358
11
96.4391
21
-87.8358
0
LINE
8
BLACK
6
CONTINUOUS
10
96.4391
20
-87.8358
11
80.8391
21
-87.8358
0
LINE
8
BLACK
6
CONTINUOUS
10
80.8391
20
-87.8358
11
80.8391
21
-72.2358
0
CIRCLE
8
BLACK
10
50.6786
20
-130.558
40
1.6
0
LINE
8
BLACK
6
CONTINUOUS
10
99.8388
20
-75.2362
11
115.439
21
-75.2362
0
LINE
8
BLACK
6
CONTINUOUS
10
115.439
20
-75.2362
11
115.439
21
-90.8362
0
LINE
8
BLACK
6
CONTINUOUS
10
115.439
20
-90.8362
11
99.8388
21
-90.8362
0
LINE
8
BLACK
6
CONTINUOUS
10
99.8388
20
-90.8362
11
99.8388
21
-75.2362
0
LINE
8
BLACK
6
CONTINUOUS
10
61.8389
20
-50.2256
11
77.4389
21
-50.2256
0
LINE
8
BLACK
6
CONTINUOUS
10
77.4389
20
-50.2256
11
77.4389
21
-65.8256
0
LINE
8
BLACK
6
CONTINUOUS
10
77.4389
20
-65.8256
11
61.8389
21
-65.8256
0
LINE
8
BLACK
6
CONTINUOUS
10
61.8389
20
-65.8256
11
61.8389
21
-50.2256
0
CIRCLE
8
BLACK
10
39.3502
20
-52.4786
40
1.6
0
LINE
8
BLACK
6
CONTINUOUS
10
61.8389
20
-69.2256
11
77.4389
21
-69.2256
0
LINE
8
BLACK
6
CONTINUOUS
10
77.4389
20
-69.2256
11
77.4389
21
-84.8256
0
LINE
8
BLACK
6
CONTINUOUS
10
77.4389
20
-84.8256
11
61.8389
21
-84.8256
0
LINE
8
BLACK
6
CONTINUOUS
10
61.8389
20
-84.8256
11
61.8389
21
-69.2256
0
LINE
8
BLACK
6
CONTINUOUS
10
23.8393
20
-95.2358
11
39.4393
21
-95.2358
0
LINE
8
BLACK
6
CONTINUOUS
10
39.4393
20
-95.2358
11
39.4393
21
-110.836
0
LINE
8
BLACK
6
CONTINUOUS
10
39.4393
20
-110.836
11
23.8393
21
-110.836
0
LINE
8
BLACK
6
CONTINUOUS
10
23.8393
20
-110.836
11
23.8393
21
-95.2358
0
LINE
8
BLACK
6
CONTINUOUS
10
255.085
20
-91.2356
11
239.485
21
-91.2356
0
LINE
8
BLACK
6
CONTINUOUS
10
239.485
20
-91.2356
11
239.485
21
-106.836
0
LINE
8
BLACK
6
CONTINUOUS
10
239.485
20
-106.836
11
255.085
21
-106.836
0
LINE
8
BLACK
6
CONTINUOUS
10
255.085
20
-106.836
11
255.085
21
-91.2356
0
LINE
8
BLACK
6
CONTINUOUS
10
188.141
20
-118.858
11
173.072
21
-122.896
0
LINE
8
BLACK
6
CONTINUOUS
10
173.072
20
-122.896
11
177.11
21
-137.964
0
LINE
8
BLACK
6
CONTINUOUS
10
177.11
20
-137.964
11
192.178
21
-133.927
0
LINE
8
BLACK
6
CONTINUOUS
10
192.178
20
-133.927
11
188.141
21
-118.858
0
LINE
8
BLACK
6
CONTINUOUS
10
198.086
20
-75.2362
11
182.486
21
-75.2362
0
LINE
8
BLACK
6
CONTINUOUS
10
182.486
20
-75.2362
11
182.486
21
-90.8362
0
LINE
8
BLACK
6
CONTINUOUS
10
182.486
20
-90.8362
11
198.086
21
-90.8362
0
LINE
8
BLACK
6
CONTINUOUS
10
198.086
20
-90.8362
11
198.086
21
-75.2362
0
LINE
8
BLACK
6
CONTINUOUS
10
274.085
20
-76.2354
11
258.485
21
-76.2354
0
LINE
8
BLACK
6
CONTINUOUS
10
258.485
20
-76.2354
11
258.485
21
-91.8354
0
LINE
8
BLACK
6
CONTINUOUS
10
258.485
20
-91.8354
11
274.085
21
-91.8354
0
LINE
8
BLACK
6
CONTINUOUS
10
274.085
20
-91.8354
11
274.085
21
-76.2354
0
CIRCLE
8
BLACK
10
174.551
20
-140.464
40
1.6
0
LINE
8
BLACK
6
CONTINUOUS
10
217.086
20
-53.2358
11
201.486
21
-53.2358
0
LINE
8
BLACK
6
CONTINUOUS
10
201.486
20
-53.2358
11
201.486
21
-68.8358
0
LINE
8
BLACK
6
CONTINUOUS
10
201.486
20
-68.8358
11
217.086
21
-68.8358
0
LINE
8
BLACK
6
CONTINUOUS
10
217.086
20
-68.8358
11
217.086
21
-53.2358
0
LINE
8
BLACK
6
CONTINUOUS
10
169.1
20
-122.074
11
154.031
21
-126.112
0
LINE
8
BLACK
6
CONTINUOUS
10
154.031
20
-126.112
11
158.069
21
-141.18
0
LINE
8
BLACK
6
CONTINUOUS
10
158.069
20
-141.18
11
173.137
21
-137.143
0
LINE
8
BLACK
6
CONTINUOUS
10
173.137
20
-137.143
11
169.1
21
-122.074
0
LINE
8
BLACK
6
CONTINUOUS
10
274.085
20
-95.2358
11
258.485
21
-95.2358
0
LINE
8
BLACK
6
CONTINUOUS
10
258.485
20
-95.2358
11
258.485
21
-110.836
0
LINE
8
BLACK
6
CONTINUOUS
10
258.485
20
-110.836
11
274.085
21
-110.836
0
LINE
8
BLACK
6
CONTINUOUS
10
274.085
20
-110.836
11
274.085
21
-95.2358
0
LINE
8
BLACK
6
CONTINUOUS
10
236.086
20
-69.2256
11
220.486
21
-69.2256
0
LINE
8
BLACK
6
CONTINUOUS
10
220.486
20
-69.2256
11
220.486
21
-84.8256
0
LINE
8
BLACK
6
CONTINUOUS
10
220.486
20
-84.8256
11
236.086
21
-84.8256
0
LINE
8
BLACK
6
CONTINUOUS
10
236.086
20
-84.8256
11
236.086
21
-69.2256
0
LINE
8
BLACK
6
CONTINUOUS
10
236.086
20
-50.2256
11
220.486
21
-50.2256
0
LINE
8
BLACK
6
CONTINUOUS
10
220.486
20
-50.2256
11
220.486
21
-65.8256
0
LINE
8
BLACK
6
CONTINUOUS
10
220.486
20
-65.8256
11
236.086
21
-65.8256
0
LINE
8
BLACK
6
CONTINUOUS
10
236.086
20
-65.8256
11
236.086
21
-50.2256
0
LINE
8
BLACK
6
CONTINUOUS
10
274.085
20
-57.235
11
258.485
21
-57.235
0
LINE
8
BLACK
6
CONTINUOUS
10
258.485
20
-57.235
11
258.485
21
-72.835
0
LINE
8
BLACK
6
CONTINUOUS
10
258.485
20
-72.835
11
274.085
21
-72.835
0
LINE
8
BLACK
6
CONTINUOUS
10
274.085
20
-72.835
11
274.085
21
-57.235
0
LINE
8
BLACK
6
CONTINUOUS
10
236.086
20
-88.2258
11
220.486
21
-88.2258
0
LINE
8
BLACK
6
CONTINUOUS
10
220.486
20
-88.2258
11
220.486
21
-103.826
0
LINE
8
BLACK
6
CONTINUOUS
10
220.486
20
-103.826
11
236.086
21
-103.826
0
LINE
8
BLACK
6
CONTINUOUS
10
236.086
20
-103.826
11
236.086
21
-88.2258
0
CIRCLE
8
BLACK
10
255.019
20
-110.391
40
1.6
0
LINE
8
BLACK
6
CONTINUOUS
10
198.086
20
-94.2362
11
182.486
21
-94.2362
0
LINE
8
BLACK
6
CONTINUOUS
10
182.486
20
-94.2362
11
182.486
21
-109.836
0
LINE
8
BLACK
6
CONTINUOUS
10
182.486
20
-109.836
11
198.086
21
-109.836
0
LINE
8
BLACK
6
CONTINUOUS
10
198.086
20
-109.836
11
198.086
21
-94.2362
0
CIRCLE
8
BLACK
10
201.475
20
-110.286
40
1.6
0
LINE
8
BLACK
6
CONTINUOUS
10
217.086
20
-72.2358
11
201.486
21
-72.2358
0
LINE
8
BLACK
6
CONTINUOUS
10
201.486
20
-72.2358
11
201.486
21
-87.8358
0
LINE
8
BLACK
6
CONTINUOUS
10
201.486
20
-87.8358
11
217.086
21
-87.8358
0
LINE
8
BLACK
6
CONTINUOUS
10
217.086
20
-87.8358
11
217.086
21
-72.2358
0
LINE
8
BLACK
6
CONTINUOUS
10
217.086
20
-91.2362
11
201.486
21
-91.2362
0
LINE
8
BLACK
6
CONTINUOUS
10
201.486
20
-91.2362
11
201.486
21
-106.836
0
LINE
8
BLACK
6
CONTINUOUS
10
201.486
20
-106.836
11
217.086
21
-106.836
0
LINE
8
BLACK
6
CONTINUOUS
10
217.086
20
-106.836
11
217.086
21
-91.2362
0
CIRCLE
8
BLACK
10
198.084
20
-52.8477
40
1.6
0
LINE
8
BLACK
6
CONTINUOUS
10
198.086
20
-56.2364
11
182.486
21
-56.2364
0
LINE
8
BLACK
6
CONTINUOUS
10
182.486
20
-56.2364
11
182.486
21
-71.8364
0
LINE
8
BLACK
6
CONTINUOUS
10
182.486
20
-71.8364
11
198.086
21
-71.8364
0
LINE
8
BLACK
6
CONTINUOUS
10
198.086
20
-71.8364
11
198.086
21
-56.2364
0
LINE
8
BLACK
6
CONTINUOUS
10
206.503
20
-113.063
11
191.434
21
-117.101
0
LINE
8
BLACK
6
CONTINUOUS
10
191.434
20
-117.101
11
195.472
21
-132.169
0
LINE
8
BLACK
6
CONTINUOUS
10
195.472
20
-132.169
11
210.54
21
-128.132
0
LINE
8
BLACK
6
CONTINUOUS
10
210.54
20
-128.132
11
206.503
21
-113.063
0
LINE
8
BLACK
6
CONTINUOUS
10
255.085
20
-53.2364
11
239.485
21
-53.2364
0
LINE
8
BLACK
6
CONTINUOUS
10
239.485
20
-53.2364
11
239.485
21
-68.8364
0
LINE
8
BLACK
6
CONTINUOUS
10
239.485
20
-68.8364
11
255.085
21
-68.8364
0
LINE
8
BLACK
6
CONTINUOUS
10
255.085
20
-68.8364
11
255.085
21
-53.2364
0
CIRCLE
8
BLACK
10
247.246
20
-130.558
40
1.6
0
CIRCLE
8
BLACK
10
258.575
20
-52.4786
40
1.6
0
LINE
8
BLACK
6
CONTINUOUS
10
255.085
20
-72.236
11
239.485
21
-72.236
0
LINE
8
BLACK
6
CONTINUOUS
10
239.485
20
-72.236
11
239.485
21
-87.836
0
LINE
8
BLACK
6
CONTINUOUS
10
239.485
20
-87.836
11
255.085
21
-87.836
0
LINE
8
BLACK
6
CONTINUOUS
10
255.085
20
-87.836
11
255.085
21
-72.236
  0
ENDSEC
  0
EOF
