  0
SECTION
  2
HEADER
  9
$ANGBASE
  50
0.0
  9
$ANGDIR
  70
1
  9
$MEASUREMENT
  70
1
  0
ENDSEC
  0
SECTION
  2
TABLES
  0
TABLE
  2
LTYPE
  70
4
  0
LTYPE
  5
40F
  2
CONTINUOUS
  70
0
  3
Solid line
  72
65
  73
0
  40
0.0
  0
LTYPE
  5
410
  2
DASHDOT
 70
0
  3
Dash Dot ____ _ ____ _
 72
65
 73
4
 40
2.0
 49
1.25
 49
-0.25
 49
0.25
 49
-0.25
  0
LTYPE
  5
411
  2
DASHED
 70
0
  3
Dashed __ __ __ __ __
 72
65
 73
2
 40
0.75
 49
0.5
 49
-0.25
  0
LTYPE
  5
43B
  2
DOTTED
 70
0
  3
Dotted .  .  .  .
 72
65
 73
2
 40
0.2
 49
0.0
 49
-0.2
  0
ENDTAB
  0
TABLE
  2
STYLE
  70
4
  0
STYLE
  2
KICAD
  70
0
  40
0
  41
1
  42
1
  50
0
  71
0
  3
isocp.shx
  0
STYLE
  2
KICADB
  70
0
  40
0
  41
1
  42
1
  50
0
  71
0
  3
isocp.shx
  0
STYLE
  2
KICADI
  70
0
  40
0
  41
1
  42
1
  50
15
  71
0
  3
isocp.shx
  0
STYLE
  2
KICADBI
  70
0
  40
0
  41
1
  42
1
  50
15
  71
0
  3
isocp.shx
  0
ENDTAB
  0
TABLE
  2
LAYER
  70
1
  0
LAYER
  2
BLACK
  70
0
  62
7
  6
CONTINUOUS
  0
ENDTAB
  0
ENDSEC
  0
SECTION
  2
ENTITIES
0
LINE
8
BLACK
6
CONTINUOUS
10
118.723
20
-118.096
11
146.005
21
-125.402
0
ARC
8
BLACK
10
22.4454
20
-55.9537
40
1.33257
50
-270.591
51
-179.222
0
ARC
8
BLACK
10
39.2226
20
-50.3523
40
2.78875
50
89.4668
51
134.517
0
ARC
8
BLACK
10
178.806
20
-116.608
40
1.5398
50
-75.1029
51
-0.215595
0
ARC
8
BLACK
10
275.479
20
-55.9537
40
1.33254
50
-0.778
51
90.5912
0
LINE
8
BLACK
6
CONTINUOUS
10
275.44
20
-113.757
11
251.279
21
-113.757
0
LINE
8
BLACK
6
CONTINUOUS
10
267.835
20
-54.6212
11
275.466
21
-54.6212
0
LINE
8
BLACK
6
CONTINUOUS
10
276.811
20
-112.423
11
276.812
21
-55.9718
0
ARC
8
BLACK
10
275.488
20
-112.435
40
1.32267
50
-92.0775
51
0.546078
0
ARC
8
BLACK
10
258.702
20
-50.3525
40
2.78893
50
45.486
51
90.5331
0
LINE
8
BLACK
6
CONTINUOUS
10
139.934
20
-145.798
11
49.307
21
-133.936
0
LINE
8
BLACK
6
CONTINUOUS
10
116.807
20
-47.5637
11
39.2486
21
-47.5637
0
ARC
8
BLACK
10
145.626
20
-126.526
40
1.18607
50
-15.8482
51
71.3672
0
LINE
8
BLACK
6
CONTINUOUS
10
37.2674
20
-48.3638
11
31.6137
21
-54.0066
0
LINE
8
BLACK
6
CONTINUOUS
10
151.158
20
-126.85
11
155.882
21
-144.401
0
ARC
8
BLACK
10
22.4366
20
-112.435
40
1.32269
50
-180.546
51
-87.9224
0
LINE
8
BLACK
6
CONTINUOUS
10
142.042
20
-144.401
11
146.767
21
-126.85
0
LINE
8
BLACK
6
CONTINUOUS
10
22.4592
20
-54.6212
11
30.0897
21
-54.6212
0
LINE
8
BLACK
6
CONTINUOUS
10
151.92
20
-125.402
11
179.202
21
-118.096
0
ARC
8
BLACK
10
152.299
20
-126.526
40
1.18613
50
-251.363
51
-164.153
0
LINE
8
BLACK
6
CONTINUOUS
10
48.0158
20
-115.143
11
48.0158
21
-132.387
0
ARC
8
BLACK
10
119.119
20
-116.608
40
1.53985
50
-179.784
51
-104.901
0
ARC
8
BLACK
10
116.836
20
-48.3058
40
0.742674
50
-0.55503
51
92.242
0
ARC
8
BLACK
10
267.759
20
-52.6131
40
2.00957
50
-136.098
51
-87.8312
0
LINE
8
BLACK
6
CONTINUOUS
10
249.909
20
-132.387
11
249.909
21
-115.143
0
ARC
8
BLACK
10
140.244
20
-143.976
40
1.84792
50
-99.6499
51
-13.2867
0
LINE
8
BLACK
6
CONTINUOUS
10
258.676
20
-47.5637
11
181.118
21
-47.5637
0
ARC
8
BLACK
10
251.231
20
-115.08
40
1.32407
50
-272.077
51
-177.269
0
ARC
8
BLACK
10
30.1657
20
-52.613
40
2.00964
50
-92.1687
51
-43.9041
0
ARC
8
BLACK
10
157.681
20
-143.976
40
1.84794
50
-166.71
51
-80.3506
0
LINE
8
BLACK
6
CONTINUOUS
10
117.579
20
-48.313
11
117.579
21
-116.614
0
LINE
8
BLACK
6
CONTINUOUS
10
21.113
20
-55.9718
11
21.114
21
-112.423
0
LINE
8
BLACK
6
CONTINUOUS
10
46.6452
20
-113.757
11
22.4846
21
-113.757
0
ARC
8
BLACK
10
49.5057
20
-132.458
40
1.49159
50
-182.732
51
-97.6572
0
LINE
8
BLACK
6
CONTINUOUS
10
180.346
20
-116.614
11
180.346
21
-48.313
0
LINE
8
BLACK
6
CONTINUOUS
10
248.618
20
-133.936
11
157.991
21
-145.798
0
ARC
8
BLACK
10
181.088
20
-48.3058
40
0.742646
50
-272.242
51
-179.445
0
LINE
8
BLACK
6
CONTINUOUS
10
266.311
20
-54.0066
11
260.657
21
-48.3638
0
ARC
8
BLACK
10
248.419
20
-132.458
40
1.49163
50
-82.3428
51
2.73233
0
ARC
8
BLACK
10
46.6932
20
-115.08
40
1.32404
50
-2.73134
51
92.0771
0
LINE
8
BLACK
6
CONTINUOUS
10
43.6395
20
-92.0356
11
57.6395
21
-92.0356
0
LINE
8
BLACK
6
CONTINUOUS
10
57.6395
20
-92.0356
11
57.6395
21
-106.036
0
LINE
8
BLACK
6
CONTINUOUS
10
57.6395
20
-106.036
11
43.6395
21
-106.036
0
LINE
8
BLACK
6
CONTINUOUS
10
43.6395
20
-106.036
11
43.6395
21
-92.0356
0
LINE
8
BLACK
6
CONTINUOUS
10
43.6395
20
-73.036
11
57.6395
21
-73.036
0
LINE
8
BLACK
6
CONTINUOUS
10
57.6395
20
-73.036
11
57.6395
21
-87.036
0
LINE
8
BLACK
6
CONTINUOUS
10
57.6395
20
-87.036
11
43.6395
21
-87.036
0
LINE
8
BLACK
6
CONTINUOUS
10
43.6395
20
-87.036
11
43.6395
21
-73.036
0
LINE
8
BLACK
6
CONTINUOUS
10
138.461
20
-139.046
11
127.063
21
-135.992
0
LINE
8
BLACK
6
CONTINUOUS
10
127.063
20
-135.992
11
130.22
21
-124.208
0
LINE
8
BLACK
6
CONTINUOUS
10
130.22
20
-124.208
11
141.618
21
-127.262
0
LINE
8
BLACK
6
CONTINUOUS
10
141.618
20
-127.262
11
138.461
21
-139.046
0
CIRCLE
8
BLACK
10
99.8403
20
-52.8477
40
1.1
0
LINE
8
BLACK
6
CONTINUOUS
10
91.9878
20
-114.043
11
105.511
21
-117.667
0
LINE
8
BLACK
6
CONTINUOUS
10
105.511
20
-117.667
11
101.887
21
-131.19
0
LINE
8
BLACK
6
CONTINUOUS
10
101.887
20
-131.19
11
88.3643
21
-127.566
0
LINE
8
BLACK
6
CONTINUOUS
10
88.3643
20
-127.566
11
91.9878
21
-114.043
0
LINE
8
BLACK
6
CONTINUOUS
10
24.6393
20
-58.035
11
38.6393
21
-58.035
0
LINE
8
BLACK
6
CONTINUOUS
10
38.6393
20
-58.035
11
38.6393
21
-72.035
0
LINE
8
BLACK
6
CONTINUOUS
10
38.6393
20
-72.035
11
24.6393
21
-72.035
0
LINE
8
BLACK
6
CONTINUOUS
10
24.6393
20
-72.035
11
24.6393
21
-58.035
0
LINE
8
BLACK
6
CONTINUOUS
10
24.6393
20
-77.0354
11
38.6393
21
-77.0354
0
LINE
8
BLACK
6
CONTINUOUS
10
38.6393
20
-77.0354
11
38.6393
21
-91.0354
0
LINE
8
BLACK
6
CONTINUOUS
10
38.6393
20
-91.0354
11
24.6393
21
-91.0354
0
LINE
8
BLACK
6
CONTINUOUS
10
24.6393
20
-91.0354
11
24.6393
21
-77.0354
0
CIRCLE
8
BLACK
10
96.4494
20
-110.286
40
1.1
0
CIRCLE
8
BLACK
10
42.9062
20
-110.391
40
1.1
0
LINE
8
BLACK
6
CONTINUOUS
10
110.35
20
-119.838
11
123.873
21
-123.462
0
LINE
8
BLACK
6
CONTINUOUS
10
123.873
20
-123.462
11
120.249
21
-136.984
0
LINE
8
BLACK
6
CONTINUOUS
10
120.249
20
-136.984
11
106.726
21
-133.361
0
LINE
8
BLACK
6
CONTINUOUS
10
106.726
20
-133.361
11
110.35
21
-119.838
0
LINE
8
BLACK
6
CONTINUOUS
10
62.6389
20
-89.0258
11
76.6389
21
-89.0258
0
LINE
8
BLACK
6
CONTINUOUS
10
76.6389
20
-89.0258
11
76.6389
21
-103.026
0
LINE
8
BLACK
6
CONTINUOUS
10
76.6389
20
-103.026
11
62.6389
21
-103.026
0
LINE
8
BLACK
6
CONTINUOUS
10
62.6389
20
-103.026
11
62.6389
21
-89.0258
0
CIRCLE
8
BLACK
10
123.373
20
-140.464
40
1.1
0
LINE
8
BLACK
6
CONTINUOUS
10
81.6391
20
-54.0358
11
95.6391
21
-54.0358
0
LINE
8
BLACK
6
CONTINUOUS
10
95.6391
20
-54.0358
11
95.6391
21
-68.0358
0
LINE
8
BLACK
6
CONTINUOUS
10
95.6391
20
-68.0358
11
81.6391
21
-68.0358
0
LINE
8
BLACK
6
CONTINUOUS
10
81.6391
20
-68.0358
11
81.6391
21
-54.0358
0
LINE
8
BLACK
6
CONTINUOUS
10
43.6395
20
-54.0364
11
57.6395
21
-54.0364
0
LINE
8
BLACK
6
CONTINUOUS
10
57.6395
20
-54.0364
11
57.6395
21
-68.0364
0
LINE
8
BLACK
6
CONTINUOUS
10
57.6395
20
-68.0364
11
43.6395
21
-68.0364
0
LINE
8
BLACK
6
CONTINUOUS
10
43.6395
20
-68.0364
11
43.6395
21
-54.0364
0
LINE
8
BLACK
6
CONTINUOUS
10
100.639
20
-57.0364
11
114.639
21
-57.0364
0
LINE
8
BLACK
6
CONTINUOUS
10
114.639
20
-57.0364
11
114.639
21
-71.0364
0
LINE
8
BLACK
6
CONTINUOUS
10
114.639
20
-71.0364
11
100.639
21
-71.0364
0
LINE
8
BLACK
6
CONTINUOUS
10
100.639
20
-71.0364
11
100.639
21
-57.0364
0
LINE
8
BLACK
6
CONTINUOUS
10
81.6391
20
-92.0362
11
95.6391
21
-92.0362
0
LINE
8
BLACK
6
CONTINUOUS
10
95.6391
20
-92.0362
11
95.6391
21
-106.036
0
LINE
8
BLACK
6
CONTINUOUS
10
95.6391
20
-106.036
11
81.6391
21
-106.036
0
LINE
8
BLACK
6
CONTINUOUS
10
81.6391
20
-106.036
11
81.6391
21
-92.0362
0
LINE
8
BLACK
6
CONTINUOUS
10
100.639
20
-95.0362
11
114.639
21
-95.0362
0
LINE
8
BLACK
6
CONTINUOUS
10
114.639
20
-95.0362
11
114.639
21
-109.036
0
LINE
8
BLACK
6
CONTINUOUS
10
114.639
20
-109.036
11
100.639
21
-109.036
0
LINE
8
BLACK
6
CONTINUOUS
10
100.639
20
-109.036
11
100.639
21
-95.0362
0
LINE
8
BLACK
6
CONTINUOUS
10
81.6391
20
-73.0358
11
95.6391
21
-73.0358
0
LINE
8
BLACK
6
CONTINUOUS
10
95.6391
20
-73.0358
11
95.6391
21
-87.0358
0
LINE
8
BLACK
6
CONTINUOUS
10
95.6391
20
-87.0358
11
81.6391
21
-87.0358
0
LINE
8
BLACK
6
CONTINUOUS
10
81.6391
20
-87.0358
11
81.6391
21
-73.0358
0
CIRCLE
8
BLACK
10
50.6786
20
-130.558
40
1.1
0
LINE
8
BLACK
6
CONTINUOUS
10
100.639
20
-76.0362
11
114.639
21
-76.0362
0
LINE
8
BLACK
6
CONTINUOUS
10
114.639
20
-76.0362
11
114.639
21
-90.0362
0
LINE
8
BLACK
6
CONTINUOUS
10
114.639
20
-90.0362
11
100.639
21
-90.0362
0
LINE
8
BLACK
6
CONTINUOUS
10
100.639
20
-90.0362
11
100.639
21
-76.0362
0
LINE
8
BLACK
6
CONTINUOUS
10
62.6389
20
-51.0256
11
76.6389
21
-51.0256
0
LINE
8
BLACK
6
CONTINUOUS
10
76.6389
20
-51.0256
11
76.6389
21
-65.0256
0
LINE
8
BLACK
6
CONTINUOUS
10
76.6389
20
-65.0256
11
62.6389
21
-65.0256
0
LINE
8
BLACK
6
CONTINUOUS
10
62.6389
20
-65.0256
11
62.6389
21
-51.0256
0
CIRCLE
8
BLACK
10
39.3502
20
-52.4786
40
1.1
0
LINE
8
BLACK
6
CONTINUOUS
10
62.6389
20
-70.0256
11
76.6389
21
-70.0256
0
LINE
8
BLACK
6
CONTINUOUS
10
76.6389
20
-70.0256
11
76.6389
21
-84.0256
0
LINE
8
BLACK
6
CONTINUOUS
10
76.6389
20
-84.0256
11
62.6389
21
-84.0256
0
LINE
8
BLACK
6
CONTINUOUS
10
62.6389
20
-84.0256
11
62.6389
21
-70.0256
0
LINE
8
BLACK
6
CONTINUOUS
10
24.6393
20
-96.0358
11
38.6393
21
-96.0358
0
LINE
8
BLACK
6
CONTINUOUS
10
38.6393
20
-96.0358
11
38.6393
21
-110.036
0
LINE
8
BLACK
6
CONTINUOUS
10
38.6393
20
-110.036
11
24.6393
21
-110.036
0
LINE
8
BLACK
6
CONTINUOUS
10
24.6393
20
-110.036
11
24.6393
21
-96.0358
0
LINE
8
BLACK
6
CONTINUOUS
10
254.285
20
-92.0356
11
240.285
21
-92.0356
0
LINE
8
BLACK
6
CONTINUOUS
10
240.285
20
-92.0356
11
240.285
21
-106.036
0
LINE
8
BLACK
6
CONTINUOUS
10
240.285
20
-106.036
11
254.285
21
-106.036
0
LINE
8
BLACK
6
CONTINUOUS
10
254.285
20
-106.036
11
254.285
21
-92.0356
0
LINE
8
BLACK
6
CONTINUOUS
10
187.575
20
-119.838
11
174.052
21
-123.462
0
LINE
8
BLACK
6
CONTINUOUS
10
174.052
20
-123.462
11
177.675
21
-136.984
0
LINE
8
BLACK
6
CONTINUOUS
10
177.675
20
-136.984
11
191.198
21
-133.361
0
LINE
8
BLACK
6
CONTINUOUS
10
191.198
20
-133.361
11
187.575
21
-119.838
0
LINE
8
BLACK
6
CONTINUOUS
10
197.286
20
-76.0362
11
183.286
21
-76.0362
0
LINE
8
BLACK
6
CONTINUOUS
10
183.286
20
-76.0362
11
183.286
21
-90.0362
0
LINE
8
BLACK
6
CONTINUOUS
10
183.286
20
-90.0362
11
197.286
21
-90.0362
0
LINE
8
BLACK
6
CONTINUOUS
10
197.286
20
-90.0362
11
197.286
21
-76.0362
0
LINE
8
BLACK
6
CONTINUOUS
10
273.285
20
-77.0354
11
259.285
21
-77.0354
0
LINE
8
BLACK
6
CONTINUOUS
10
259.285
20
-77.0354
11
259.285
21
-91.0354
0
LINE
8
BLACK
6
CONTINUOUS
10
259.285
20
-91.0354
11
273.285
21
-91.0354
0
LINE
8
BLACK
6
CONTINUOUS
10
273.285
20
-91.0354
11
273.285
21
-77.0354
0
CIRCLE
8
BLACK
10
174.551
20
-140.464
40
1.1
0
LINE
8
BLACK
6
CONTINUOUS
10
216.286
20
-54.0358
11
202.286
21
-54.0358
0
LINE
8
BLACK
6
CONTINUOUS
10
202.286
20
-54.0358
11
202.286
21
-68.0358
0
LINE
8
BLACK
6
CONTINUOUS
10
202.286
20
-68.0358
11
216.286
21
-68.0358
0
LINE
8
BLACK
6
CONTINUOUS
10
216.286
20
-68.0358
11
216.286
21
-54.0358
0
LINE
8
BLACK
6
CONTINUOUS
10
168.534
20
-123.054
11
155.011
21
-126.677
0
LINE
8
BLACK
6
CONTINUOUS
10
155.011
20
-126.677
11
158.635
21
-140.2
0
LINE
8
BLACK
6
CONTINUOUS
10
158.635
20
-140.2
11
172.158
21
-136.577
0
LINE
8
BLACK
6
CONTINUOUS
10
172.158
20
-136.577
11
168.534
21
-123.054
0
LINE
8
BLACK
6
CONTINUOUS
10
273.285
20
-96.0358
11
259.285
21
-96.0358
0
LINE
8
BLACK
6
CONTINUOUS
10
259.285
20
-96.0358
11
259.285
21
-110.036
0
LINE
8
BLACK
6
CONTINUOUS
10
259.285
20
-110.036
11
273.285
21
-110.036
0
LINE
8
BLACK
6
CONTINUOUS
10
273.285
20
-110.036
11
273.285
21
-96.0358
0
LINE
8
BLACK
6
CONTINUOUS
10
235.286
20
-70.0256
11
221.286
21
-70.0256
0
LINE
8
BLACK
6
CONTINUOUS
10
221.286
20
-70.0256
11
221.286
21
-84.0256
0
LINE
8
BLACK
6
CONTINUOUS
10
221.286
20
-84.0256
11
235.286
21
-84.0256
0
LINE
8
BLACK
6
CONTINUOUS
10
235.286
20
-84.0256
11
235.286
21
-70.0256
0
LINE
8
BLACK
6
CONTINUOUS
10
235.286
20
-51.0256
11
221.286
21
-51.0256
0
LINE
8
BLACK
6
CONTINUOUS
10
221.286
20
-51.0256
11
221.286
21
-65.0256
0
LINE
8
BLACK
6
CONTINUOUS
10
221.286
20
-65.0256
11
235.286
21
-65.0256
0
LINE
8
BLACK
6
CONTINUOUS
10
235.286
20
-65.0256
11
235.286
21
-51.0256
0
LINE
8
BLACK
6
CONTINUOUS
10
273.285
20
-58.035
11
259.285
21
-58.035
0
LINE
8
BLACK
6
CONTINUOUS
10
259.285
20
-58.035
11
259.285
21
-72.035
0
LINE
8
BLACK
6
CONTINUOUS
10
259.285
20
-72.035
11
273.285
21
-72.035
0
LINE
8
BLACK
6
CONTINUOUS
10
273.285
20
-72.035
11
273.285
21
-58.035
0
LINE
8
BLACK
6
CONTINUOUS
10
235.286
20
-89.0258
11
221.286
21
-89.0258
0
LINE
8
BLACK
6
CONTINUOUS
10
221.286
20
-89.0258
11
221.286
21
-103.026
0
LINE
8
BLACK
6
CONTINUOUS
10
221.286
20
-103.026
11
235.286
21
-103.026
0
LINE
8
BLACK
6
CONTINUOUS
10
235.286
20
-103.026
11
235.286
21
-89.0258
0
CIRCLE
8
BLACK
10
255.019
20
-110.391
40
1.1
0
LINE
8
BLACK
6
CONTINUOUS
10
197.286
20
-95.0362
11
183.286
21
-95.0362
0
LINE
8
BLACK
6
CONTINUOUS
10
183.286
20
-95.0362
11
183.286
21
-109.036
0
LINE
8
BLACK
6
CONTINUOUS
10
183.286
20
-109.036
11
197.286
21
-109.036
0
LINE
8
BLACK
6
CONTINUOUS
10
197.286
20
-109.036
11
197.286
21
-95.0362
0
CIRCLE
8
BLACK
10
201.475
20
-110.286
40
1.1
0
LINE
8
BLACK
6
CONTINUOUS
10
216.286
20
-73.0358
11
202.286
21
-73.0358
0
LINE
8
BLACK
6
CONTINUOUS
10
202.286
20
-73.0358
11
202.286
21
-87.0358
0
LINE
8
BLACK
6
CONTINUOUS
10
202.286
20
-87.0358
11
216.286
21
-87.0358
0
LINE
8
BLACK
6
CONTINUOUS
10
216.286
20
-87.0358
11
216.286
21
-73.0358
0
LINE
8
BLACK
6
CONTINUOUS
10
216.286
20
-92.0362
11
202.286
21
-92.0362
0
LINE
8
BLACK
6
CONTINUOUS
10
202.286
20
-92.0362
11
202.286
21
-106.036
0
LINE
8
BLACK
6
CONTINUOUS
10
202.286
20
-106.036
11
216.286
21
-106.036
0
LINE
8
BLACK
6
CONTINUOUS
10
216.286
20
-106.036
11
216.286
21
-92.0362
0
CIRCLE
8
BLACK
10
198.084
20
-52.8477
40
1.1
0
LINE
8
BLACK
6
CONTINUOUS
10
197.286
20
-57.0364
11
183.286
21
-57.0364
0
LINE
8
BLACK
6
CONTINUOUS
10
183.286
20
-57.0364
11
183.286
21
-71.0364
0
LINE
8
BLACK
6
CONTINUOUS
10
183.286
20
-71.0364
11
197.286
21
-71.0364
0
LINE
8
BLACK
6
CONTINUOUS
10
197.286
20
-71.0364
11
197.286
21
-57.0364
0
LINE
8
BLACK
6
CONTINUOUS
10
205.937
20
-114.043
11
192.414
21
-117.667
0
LINE
8
BLACK
6
CONTINUOUS
10
192.414
20
-117.667
11
196.037
21
-131.19
0
LINE
8
BLACK
6
CONTINUOUS
10
196.037
20
-131.19
11
209.56
21
-127.566
0
LINE
8
BLACK
6
CONTINUOUS
10
209.56
20
-127.566
11
205.937
21
-114.043
0
LINE
8
BLACK
6
CONTINUOUS
10
254.285
20
-54.0364
11
240.285
21
-54.0364
0
LINE
8
BLACK
6
CONTINUOUS
10
240.285
20
-54.0364
11
240.285
21
-68.0364
0
LINE
8
BLACK
6
CONTINUOUS
10
240.285
20
-68.0364
11
254.285
21
-68.0364
0
LINE
8
BLACK
6
CONTINUOUS
10
254.285
20
-68.0364
11
254.285
21
-54.0364
0
CIRCLE
8
BLACK
10
247.246
20
-130.558
40
1.1
0
CIRCLE
8
BLACK
10
258.575
20
-52.4786
40
1.1
0
LINE
8
BLACK
6
CONTINUOUS
10
254.285
20
-73.036
11
240.285
21
-73.036
0
LINE
8
BLACK
6
CONTINUOUS
10
240.285
20
-73.036
11
240.285
21
-87.036
0
LINE
8
BLACK
6
CONTINUOUS
10
240.285
20
-87.036
11
254.285
21
-87.036
0
LINE
8
BLACK
6
CONTINUOUS
10
254.285
20
-87.036
11
254.285
21
-73.036
  0
ENDSEC
  0
EOF
