  0
SECTION
  2
HEADER
  9
$ANGBASE
  50
0.0
  9
$ANGDIR
  70
1
  9
$MEASUREMENT
  70
1
  0
ENDSEC
  0
SECTION
  2
TABLES
  0
TABLE
  2
LTYPE
  70
4
  0
LTYPE
  5
40F
  2
CONTINUOUS
  70
0
  3
Solid line
  72
65
  73
0
  40
0.0
  0
LTYPE
  5
410
  2
DASHDOT
 70
0
  3
Dash Dot ____ _ ____ _
 72
65
 73
4
 40
2.0
 49
1.25
 49
-0.25
 49
0.25
 49
-0.25
  0
LTYPE
  5
411
  2
DASHED
 70
0
  3
Dashed __ __ __ __ __
 72
65
 73
2
 40
0.75
 49
0.5
 49
-0.25
  0
LTYPE
  5
43B
  2
DOTTED
 70
0
  3
Dotted .  .  .  .
 72
65
 73
2
 40
0.2
 49
0.0
 49
-0.2
  0
ENDTAB
  0
TABLE
  2
STYLE
  70
4
  0
STYLE
  2
KICAD
  70
0
  40
0
  41
1
  42
1
  50
0
  71
0
  3
isocp.shx
  0
STYLE
  2
KICADB
  70
0
  40
0
  41
1
  42
1
  50
0
  71
0
  3
isocp.shx
  0
STYLE
  2
KICADI
  70
0
  40
0
  41
1
  42
1
  50
15
  71
0
  3
isocp.shx
  0
STYLE
  2
KICADBI
  70
0
  40
0
  41
1
  42
1
  50
15
  71
0
  3
isocp.shx
  0
ENDTAB
  0
TABLE
  2
LAYER
  70
1
  0
LAYER
  2
BLACK
  70
0
  62
7
  6
CONTINUOUS
  0
ENDTAB
  0
ENDSEC
  0
SECTION
  2
ENTITIES
0
ARC
8
BLACK
10
19.1227
20
-59.1144
40
1.33252
50
-270.594
51
-179.221
0
LINE
8
BLACK
6
CONTINUOUS
10
183.285
20
-110.351
11
153.974
21
-121.019
0
ARC
8
BLACK
10
35.8999
20
-53.5129
40
2.78862
50
89.4657
51
134.518
0
LINE
8
BLACK
6
CONTINUOUS
10
280.82
20
-115.583
11
280.821
21
-59.1325
0
LINE
8
BLACK
6
CONTINUOUS
10
270.32
20
-57.1673
11
264.667
21
-51.5245
0
LINE
8
BLACK
6
CONTINUOUS
10
136.612
20
-148.959
11
45.753
21
-137.072
0
LINE
8
BLACK
6
CONTINUOUS
10
113.485
20
-50.7244
11
35.9259
21
-50.7244
0
ARC
8
BLACK
10
144.129
20
-122.269
40
1.34995
50
-11.6989
51
67.844
0
LINE
8
BLACK
6
CONTINUOUS
10
33.9447
20
-51.5245
11
28.291
21
-57.1673
0
LINE
8
BLACK
6
CONTINUOUS
10
252.858
20
-137.072
11
162
21
-148.959
0
ARC
8
BLACK
10
43.3344
20
-155.942
40
19.0248
50
82.6963
51
90.8246
0
ARC
8
BLACK
10
19.1139
20
-115.596
40
1.32263
50
-180.549
51
-87.9199
0
ARC
8
BLACK
10
161.69
20
-147.137
40
1.84797
50
-166.709
51
-80.3514
0
LINE
8
BLACK
6
CONTINUOUS
10
138.72
20
-147.562
11
145.451
21
-122.543
0
ARC
8
BLACK
10
278.663
20
-118.241
40
1.324
50
-272.081
51
-177.267
0
LINE
8
BLACK
6
CONTINUOUS
10
19.1365
20
-57.782
11
26.767
21
-57.782
0
LINE
8
BLACK
6
CONTINUOUS
10
275.995
20
-136.919
11
255.551
21
-136.919
0
LINE
8
BLACK
6
CONTINUOUS
10
279.45
20
-116.918
11
278.711
21
-116.918
0
ARC
8
BLACK
10
276.032
20
-135.61
40
1.30969
50
-91.6176
51
2.72965
0
ARC
8
BLACK
10
279.497
20
-115.596
40
1.32275
50
-92.0741
51
0.544573
0
ARC
8
BLACK
10
185.098
20
-51.4666
40
0.742668
50
-272.24
51
-179.45
0
ARC
8
BLACK
10
182.815
20
-108.884
40
1.53999
50
-72.2398
51
0.730136
0
LINE
8
BLACK
6
CONTINUOUS
10
21.2711
20
-118.304
11
21.2711
21
-135.548
0
ARC
8
BLACK
10
115.796
20
-108.884
40
1.54003
50
-180.726
51
-107.761
0
LINE
8
BLACK
6
CONTINUOUS
10
43.0606
20
-136.919
11
22.6163
21
-136.919
0
ARC
8
BLACK
10
113.514
20
-51.4665
40
0.742642
50
-0.557687
51
92.2456
0
LINE
8
BLACK
6
CONTINUOUS
10
271.844
20
-57.782
11
279.475
21
-57.782
0
ARC
8
BLACK
10
262.711
20
-53.5132
40
2.78889
50
45.4844
51
90.5315
0
LINE
8
BLACK
6
CONTINUOUS
10
153.161
20
-122.543
11
159.892
21
-147.562
0
LINE
8
BLACK
6
CONTINUOUS
10
144.638
20
-121.019
11
115.326
21
-110.351
0
ARC
8
BLACK
10
136.921
20
-147.137
40
1.84776
50
-99.6547
51
-13.2857
0
LINE
8
BLACK
6
CONTINUOUS
10
184.355
20
-108.865
11
184.355
21
-51.4737
0
ARC
8
BLACK
10
26.843
20
-55.7736
40
2.00977
50
-92.167
51
-43.9058
0
LINE
8
BLACK
6
CONTINUOUS
10
262.686
20
-50.7244
11
185.127
21
-50.7244
0
ARC
8
BLACK
10
279.489
20
-59.1145
40
1.33261
50
-0.775175
51
90.5921
0
LINE
8
BLACK
6
CONTINUOUS
10
277.34
20
-135.548
11
277.34
21
-118.304
0
LINE
8
BLACK
6
CONTINUOUS
10
114.256
20
-51.4737
11
114.256
21
-108.865
0
LINE
8
BLACK
6
CONTINUOUS
10
17.7903
20
-59.1325
11
17.7913
21
-115.583
0
LINE
8
BLACK
6
CONTINUOUS
10
19.9006
20
-116.918
11
19.1619
21
-116.918
0
ARC
8
BLACK
10
154.483
20
-122.269
40
1.35001
50
-247.841
51
-168.302
0
ARC
8
BLACK
10
271.768
20
-55.7739
40
2.0095
50
-136.1
51
-87.8317
0
ARC
8
BLACK
10
22.5794
20
-135.61
40
1.30975
50
-182.73
51
-88.3853
0
ARC
8
BLACK
10
255.277
20
-155.942
40
19.0248
50
89.1756
51
97.3039
0
ARC
8
BLACK
10
19.9485
20
-118.241
40
1.32411
50
-2.72838
51
92.0747
0
CIRCLE
8
BLACK
10
96.5177
20
-56.0085
40
1.1
0
CIRCLE
8
BLACK
10
93.1267
20
-113.447
40
1.1
0
CIRCLE
8
BLACK
10
39.5835
20
-113.551
40
1.1
0
CIRCLE
8
BLACK
10
120.051
20
-143.625
40
1.1
0
CIRCLE
8
BLACK
10
47.3559
20
-133.719
40
1.1
0
CIRCLE
8
BLACK
10
36.0275
20
-55.6393
40
1.1
0
CIRCLE
8
BLACK
10
251.256
20
-133.719
40
1.1
0
CIRCLE
8
BLACK
10
202.094
20
-56.0085
40
1.1
0
CIRCLE
8
BLACK
10
178.561
20
-143.625
40
1.1
0
CIRCLE
8
BLACK
10
205.485
20
-113.447
40
1.1
0
CIRCLE
8
BLACK
10
262.584
20
-55.6393
40
1.1
0
CIRCLE
8
BLACK
10
259.028
20
-113.551
40
1.1
0
LINE
8
BLACK
6
CONTINUOUS
10
39.0618
20
-98.3355
11
39.0618
21
-101.053
0
LINE
8
BLACK
6
CONTINUOUS
10
39.0618
20
-98.3355
11
40.9496
21
-98.3355
0
LINE
8
BLACK
6
CONTINUOUS
10
39.0618
20
-101.053
11
40.9496
21
-101.053
0
LINE
8
BLACK
6
CONTINUOUS
10
40.9496
20
-96.9893
11
40.9496
21
-98.3355
0
LINE
8
BLACK
6
CONTINUOUS
10
40.9496
20
-101.053
11
40.9496
21
-101.536
0
LINE
8
BLACK
6
CONTINUOUS
10
40.9496
20
-101.536
11
41.678
21
-101.536
0
LINE
8
BLACK
6
CONTINUOUS
10
42.7956
20
-101.536
11
44.7936
21
-101.536
0
LINE
8
BLACK
6
CONTINUOUS
10
52.4476
20
-95.1192
11
42.8718
21
-95.1192
0
LINE
8
BLACK
6
CONTINUOUS
10
52.4476
20
-95.7197
11
52.4476
21
-95.1192
0
LINE
8
BLACK
6
CONTINUOUS
10
52.4476
20
-99.6563
11
47.0536
21
-99.6563
0
LINE
8
BLACK
6
CONTINUOUS
10
52.4476
20
-99.6563
11
52.4476
21
-98.4375
0
LINE
8
BLACK
6
CONTINUOUS
10
54.3354
20
-95.7197
11
52.4476
21
-95.7197
0
LINE
8
BLACK
6
CONTINUOUS
10
54.3354
20
-98.4375
11
52.4476
21
-98.4375
0
LINE
8
BLACK
6
CONTINUOUS
10
54.3354
20
-98.4375
11
54.3354
21
-95.7197
0
ARC
8
BLACK
10
42.8303
20
-96.9994
40
1.88064
50
88.7333
51
179.693
0
ARC
8
BLACK
10
42.2371
20
-102.184
40
0.855912
50
-229.221
51
49.262
0
ARC
8
BLACK
10
47.0281
20
-101.924
40
2.26789
50
89.3556
51
170.156
0
CIRCLE
8
BLACK
10
47.3168
20
-102.196
40
2
0
CIRCLE
8
BLACK
10
52.3968
20
-102.196
40
0.85
0
LINE
8
BLACK
6
CONTINUOUS
10
39.0618
20
-79.3359
11
39.0618
21
-82.0537
0
LINE
8
BLACK
6
CONTINUOUS
10
39.0618
20
-79.3359
11
40.9496
21
-79.3359
0
LINE
8
BLACK
6
CONTINUOUS
10
39.0618
20
-82.0537
11
40.9496
21
-82.0537
0
LINE
8
BLACK
6
CONTINUOUS
10
40.9496
20
-77.9897
11
40.9496
21
-79.3359
0
LINE
8
BLACK
6
CONTINUOUS
10
40.9496
20
-82.0537
11
40.9496
21
-82.5367
0
LINE
8
BLACK
6
CONTINUOUS
10
40.9496
20
-82.5367
11
41.678
21
-82.5367
0
LINE
8
BLACK
6
CONTINUOUS
10
42.7956
20
-82.5363
11
44.7936
21
-82.5367
0
LINE
8
BLACK
6
CONTINUOUS
10
52.4476
20
-76.1196
11
42.8718
21
-76.1196
0
LINE
8
BLACK
6
CONTINUOUS
10
52.4476
20
-76.7201
11
52.4476
21
-76.1196
0
LINE
8
BLACK
6
CONTINUOUS
10
52.4476
20
-80.6567
11
47.0536
21
-80.6567
0
LINE
8
BLACK
6
CONTINUOUS
10
52.4476
20
-80.6567
11
52.4476
21
-79.4379
0
LINE
8
BLACK
6
CONTINUOUS
10
54.3354
20
-76.7201
11
52.4476
21
-76.7201
0
LINE
8
BLACK
6
CONTINUOUS
10
54.3354
20
-79.4379
11
52.4476
21
-79.4379
0
LINE
8
BLACK
6
CONTINUOUS
10
54.3354
20
-79.4379
11
54.3354
21
-76.7201
0
ARC
8
BLACK
10
42.8303
20
-77.9998
40
1.88064
50
88.7333
51
179.693
0
ARC
8
BLACK
10
42.2371
20
-83.1848
40
0.855912
50
-229.221
51
49.262
0
ARC
8
BLACK
10
47.0281
20
-82.9245
40
2.26789
50
89.3556
51
170.156
0
CIRCLE
8
BLACK
10
47.3168
20
-83.1967
40
2
0
CIRCLE
8
BLACK
10
52.3968
20
-83.1967
40
0.85
0
LINE
8
BLACK
6
CONTINUOUS
10
137.012
20
-138.13
11
133.724
21
-137.249
0
LINE
8
BLACK
6
CONTINUOUS
10
133.724
20
-137.249
11
134.592
21
-134.01
0
LINE
8
BLACK
6
CONTINUOUS
10
134.592
20
-134.01
11
137.88
21
-134.891
0
LINE
8
BLACK
6
CONTINUOUS
10
137.88
20
-134.891
11
137.012
21
-138.13
0
LINE
8
BLACK
6
CONTINUOUS
10
127.443
20
-135.566
11
124.156
21
-134.685
0
LINE
8
BLACK
6
CONTINUOUS
10
124.156
20
-134.685
11
125.024
21
-131.446
0
LINE
8
BLACK
6
CONTINUOUS
10
125.024
20
-131.446
11
128.311
21
-132.327
0
LINE
8
BLACK
6
CONTINUOUS
10
128.311
20
-132.327
11
127.443
21
-135.566
0
CIRCLE
8
BLACK
10
131.491
20
-142.679
40
1.05
0
CIRCLE
8
BLACK
10
135.244
20
-128.673
40
1.05
0
CIRCLE
8
BLACK
10
129.077
20
-142.032
40
1.05
0
CIRCLE
8
BLACK
10
126.662
20
-141.385
40
1.05
0
CIRCLE
8
BLACK
10
130.415
20
-127.379
40
1.05
0
LINE
8
BLACK
6
CONTINUOUS
10
224.04
20
-57.3256
11
224.04
21
-60.0434
0
LINE
8
BLACK
6
CONTINUOUS
10
224.04
20
-57.3256
11
225.928
21
-57.3256
0
LINE
8
BLACK
6
CONTINUOUS
10
224.04
20
-60.0434
11
225.928
21
-60.0434
0
LINE
8
BLACK
6
CONTINUOUS
10
225.928
20
-55.9794
11
225.928
21
-57.3256
0
LINE
8
BLACK
6
CONTINUOUS
10
225.928
20
-60.0434
11
225.928
21
-60.5264
0
LINE
8
BLACK
6
CONTINUOUS
10
225.928
20
-60.5264
11
226.656
21
-60.5264
0
LINE
8
BLACK
6
CONTINUOUS
10
227.774
20
-60.526
11
229.772
21
-60.5264
0
LINE
8
BLACK
6
CONTINUOUS
10
237.426
20
-54.1093
11
227.85
21
-54.1093
0
LINE
8
BLACK
6
CONTINUOUS
10
237.426
20
-54.7098
11
237.426
21
-54.1093
0
LINE
8
BLACK
6
CONTINUOUS
10
237.426
20
-58.6464
11
232.032
21
-58.6464
0
LINE
8
BLACK
6
CONTINUOUS
10
237.426
20
-58.6464
11
237.426
21
-57.4276
0
LINE
8
BLACK
6
CONTINUOUS
10
239.314
20
-54.7098
11
237.426
21
-54.7098
0
LINE
8
BLACK
6
CONTINUOUS
10
239.314
20
-57.4276
11
237.426
21
-57.4276
0
LINE
8
BLACK
6
CONTINUOUS
10
239.314
20
-57.4276
11
239.314
21
-54.7098
0
ARC
8
BLACK
10
227.809
20
-55.9894
40
1.88064
50
88.7333
51
179.693
0
ARC
8
BLACK
10
227.215
20
-61.1745
40
0.855912
50
-229.221
51
49.262
0
ARC
8
BLACK
10
232.007
20
-60.9141
40
2.26789
50
89.3556
51
170.156
0
CIRCLE
8
BLACK
10
232.295
20
-61.1864
40
2
0
CIRCLE
8
BLACK
10
237.375
20
-61.1864
40
0.85
0
LINE
8
BLACK
6
CONTINUOUS
10
93.3324
20
-90.1873
11
91.3004
21
-90.1873
0
LINE
8
BLACK
6
CONTINUOUS
10
91.3004
20
-90.1873
11
91.3004
21
-85.0057
0
LINE
8
BLACK
6
CONTINUOUS
10
91.3004
20
-85.0057
11
93.3324
21
-85.0057
0
LINE
8
BLACK
6
CONTINUOUS
10
93.3324
20
-85.0057
11
93.3324
21
-90.1873
0
LINE
8
BLACK
6
CONTINUOUS
10
110.3
20
-107.006
11
112.332
21
-107.006
0
LINE
8
BLACK
6
CONTINUOUS
10
112.332
20
-107.006
11
112.332
21
-112.188
0
LINE
8
BLACK
6
CONTINUOUS
10
112.332
20
-112.188
11
110.3
21
-112.188
0
LINE
8
BLACK
6
CONTINUOUS
10
110.3
20
-112.188
11
110.3
21
-107.006
0
LINE
8
BLACK
6
CONTINUOUS
10
72.3002
20
-62.9956
11
74.3322
21
-62.9956
0
LINE
8
BLACK
6
CONTINUOUS
10
74.3322
20
-62.9956
11
74.3322
21
-68.1772
0
LINE
8
BLACK
6
CONTINUOUS
10
74.3322
20
-68.1772
11
72.3002
21
-68.1772
0
LINE
8
BLACK
6
CONTINUOUS
10
72.3002
20
-68.1772
11
72.3002
21
-62.9956
0
LINE
8
BLACK
6
CONTINUOUS
10
110.3
20
-88.0061
11
112.332
21
-88.0061
0
LINE
8
BLACK
6
CONTINUOUS
10
112.332
20
-88.0061
11
112.332
21
-93.1877
0
LINE
8
BLACK
6
CONTINUOUS
10
112.332
20
-93.1877
11
110.3
21
-93.1877
0
LINE
8
BLACK
6
CONTINUOUS
10
110.3
20
-93.1877
11
110.3
21
-88.0061
0
LINE
8
BLACK
6
CONTINUOUS
10
158.621
20
-133.195
11
159.324
21
-135.82
0
LINE
8
BLACK
6
CONTINUOUS
10
158.621
20
-133.195
11
160.444
21
-132.707
0
LINE
8
BLACK
6
CONTINUOUS
10
159.324
20
-135.82
11
161.148
21
-135.332
0
LINE
8
BLACK
6
CONTINUOUS
10
160.096
20
-131.406
11
160.444
21
-132.707
0
LINE
8
BLACK
6
CONTINUOUS
10
161.148
20
-135.332
11
161.273
21
-135.798
0
LINE
8
BLACK
6
CONTINUOUS
10
161.273
20
-135.798
11
161.976
21
-135.61
0
LINE
8
BLACK
6
CONTINUOUS
10
163.056
20
-135.32
11
164.986
21
-134.803
0
LINE
8
BLACK
6
CONTINUOUS
10
170.718
20
-126.624
11
161.468
21
-129.102
0
LINE
8
BLACK
6
CONTINUOUS
10
170.873
20
-127.204
11
170.718
21
-126.624
0
LINE
8
BLACK
6
CONTINUOUS
10
171.892
20
-131.006
11
166.682
21
-132.403
0
LINE
8
BLACK
6
CONTINUOUS
10
171.892
20
-131.006
11
171.577
21
-129.829
0
LINE
8
BLACK
6
CONTINUOUS
10
172.697
20
-126.715
11
170.873
21
-127.204
0
LINE
8
BLACK
6
CONTINUOUS
10
173.4
20
-129.341
11
171.577
21
-129.829
0
LINE
8
BLACK
6
CONTINUOUS
10
173.4
20
-129.341
11
172.697
21
-126.715
0
ARC
8
BLACK
10
161.915
20
-130.929
40
1.88064
50
-256.267
51
-165.307
0
ARC
8
BLACK
10
162.684
20
-136.091
40
0.855913
50
-214.221
51
64.2621
0
ARC
8
BLACK
10
167.244
20
-134.6
40
2.26789
50
-255.644
51
-174.844
0
CIRCLE
8
BLACK
10
167.594
20
-134.788
40
2
0
CIRCLE
8
BLACK
10
172.501
20
-133.473
40
0.85
0
LINE
8
BLACK
6
CONTINUOUS
10
86.6404
20
-119.911
11
85.937
21
-122.536
0
LINE
8
BLACK
6
CONTINUOUS
10
86.6404
20
-119.911
11
88.4639
21
-120.4
0
LINE
8
BLACK
6
CONTINUOUS
10
85.937
20
-122.536
11
87.7605
21
-123.025
0
LINE
8
BLACK
6
CONTINUOUS
10
88.8123
20
-119.1
11
88.4639
21
-120.4
0
LINE
8
BLACK
6
CONTINUOUS
10
87.7605
20
-123.025
11
87.6355
21
-123.492
0
LINE
8
BLACK
6
CONTINUOUS
10
87.6355
20
-123.492
11
88.339
21
-123.68
0
LINE
8
BLACK
6
CONTINUOUS
10
89.4186
20
-123.969
11
91.3485
21
-124.487
0
LINE
8
BLACK
6
CONTINUOUS
10
100.403
20
-120.269
11
91.153
21
-117.791
0
LINE
8
BLACK
6
CONTINUOUS
10
100.247
20
-120.849
11
100.403
21
-120.269
0
LINE
8
BLACK
6
CONTINUOUS
10
99.2282
20
-124.652
11
94.018
21
-123.255
0
LINE
8
BLACK
6
CONTINUOUS
10
99.2282
20
-124.652
11
99.5437
21
-123.474
0
LINE
8
BLACK
6
CONTINUOUS
10
102.071
20
-121.338
11
100.247
21
-120.849
0
LINE
8
BLACK
6
CONTINUOUS
10
101.367
20
-123.963
11
99.5437
21
-123.474
0
LINE
8
BLACK
6
CONTINUOUS
10
101.367
20
-123.963
11
102.071
21
-121.338
0
ARC
8
BLACK
10
90.6262
20
-119.596
40
1.88064
50
73.7333
51
164.693
0
ARC
8
BLACK
10
88.7113
20
-124.451
40
0.855912
50
-244.221
51
34.2621
0
ARC
8
BLACK
10
93.4065
20
-125.439
40
2.26789
50
74.3556
51
155.156
0
CIRCLE
8
BLACK
10
93.6149
20
-125.777
40
2
0
CIRCLE
8
BLACK
10
98.5218
20
-127.092
40
0.85
0
LINE
8
BLACK
6
CONTINUOUS
10
177.662
20
-129.979
11
178.365
21
-132.604
0
LINE
8
BLACK
6
CONTINUOUS
10
177.662
20
-129.979
11
179.485
21
-129.491
0
LINE
8
BLACK
6
CONTINUOUS
10
178.365
20
-132.604
11
180.189
21
-132.116
0
LINE
8
BLACK
6
CONTINUOUS
10
179.137
20
-128.19
11
179.485
21
-129.491
0
LINE
8
BLACK
6
CONTINUOUS
10
180.189
20
-132.116
11
180.314
21
-132.582
0
LINE
8
BLACK
6
CONTINUOUS
10
180.314
20
-132.582
11
181.017
21
-132.394
0
LINE
8
BLACK
6
CONTINUOUS
10
182.097
20
-132.104
11
184.027
21
-131.588
0
LINE
8
BLACK
6
CONTINUOUS
10
189.759
20
-123.408
11
180.509
21
-125.886
0
LINE
8
BLACK
6
CONTINUOUS
10
189.914
20
-123.988
11
189.759
21
-123.408
0
LINE
8
BLACK
6
CONTINUOUS
10
190.933
20
-127.791
11
185.723
21
-129.187
0
LINE
8
BLACK
6
CONTINUOUS
10
190.933
20
-127.791
11
190.618
21
-126.613
0
LINE
8
BLACK
6
CONTINUOUS
10
191.738
20
-123.5
11
189.914
21
-123.988
0
LINE
8
BLACK
6
CONTINUOUS
10
192.441
20
-126.125
11
190.618
21
-126.613
0
LINE
8
BLACK
6
CONTINUOUS
10
192.441
20
-126.125
11
191.738
21
-123.5
0
ARC
8
BLACK
10
180.956
20
-127.713
40
1.88064
50
-256.267
51
-165.307
0
ARC
8
BLACK
10
181.725
20
-132.875
40
0.855913
50
-214.221
51
64.2621
0
ARC
8
BLACK
10
186.285
20
-131.384
40
2.26789
50
-255.644
51
-174.844
0
CIRCLE
8
BLACK
10
186.635
20
-131.572
40
2
0
CIRCLE
8
BLACK
10
191.541
20
-130.257
40
0.85
0
LINE
8
BLACK
6
CONTINUOUS
10
20.0616
20
-64.3349
11
20.0616
21
-67.0527
0
LINE
8
BLACK
6
CONTINUOUS
10
20.0616
20
-64.3349
11
21.9494
21
-64.3349
0
LINE
8
BLACK
6
CONTINUOUS
10
20.0616
20
-67.0527
11
21.9494
21
-67.0527
0
LINE
8
BLACK
6
CONTINUOUS
10
21.9494
20
-62.9887
11
21.9494
21
-64.3349
0
LINE
8
BLACK
6
CONTINUOUS
10
21.9494
20
-67.0527
11
21.9494
21
-67.5357
0
LINE
8
BLACK
6
CONTINUOUS
10
21.9494
20
-67.5357
11
22.6778
21
-67.5357
0
LINE
8
BLACK
6
CONTINUOUS
10
23.7954
20
-67.5353
11
25.7934
21
-67.5357
0
LINE
8
BLACK
6
CONTINUOUS
10
33.4474
20
-61.1186
11
23.8716
21
-61.1186
0
LINE
8
BLACK
6
CONTINUOUS
10
33.4474
20
-61.7191
11
33.4474
21
-61.1186
0
LINE
8
BLACK
6
CONTINUOUS
10
33.4474
20
-65.6557
11
28.0534
21
-65.6557
0
LINE
8
BLACK
6
CONTINUOUS
10
33.4474
20
-65.6557
11
33.4474
21
-64.4369
0
LINE
8
BLACK
6
CONTINUOUS
10
35.3352
20
-61.7191
11
33.4474
21
-61.7191
0
LINE
8
BLACK
6
CONTINUOUS
10
35.3352
20
-64.4369
11
33.4474
21
-64.4369
0
LINE
8
BLACK
6
CONTINUOUS
10
35.3352
20
-64.4369
11
35.3352
21
-61.7191
0
ARC
8
BLACK
10
23.8301
20
-62.9988
40
1.88064
50
88.7333
51
179.693
0
ARC
8
BLACK
10
23.2369
20
-68.1838
40
0.855912
50
-229.221
51
49.262
0
ARC
8
BLACK
10
28.0279
20
-67.9235
40
2.26789
50
89.3556
51
170.156
0
CIRCLE
8
BLACK
10
28.3166
20
-68.1957
40
2
0
CIRCLE
8
BLACK
10
33.3966
20
-68.1957
40
0.85
0
LINE
8
BLACK
6
CONTINUOUS
10
20.0616
20
-83.3353
11
20.0616
21
-86.0531
0
LINE
8
BLACK
6
CONTINUOUS
10
20.0616
20
-83.3353
11
21.9494
21
-83.3353
0
LINE
8
BLACK
6
CONTINUOUS
10
20.0616
20
-86.0531
11
21.9494
21
-86.0531
0
LINE
8
BLACK
6
CONTINUOUS
10
21.9494
20
-81.9891
11
21.9494
21
-83.3353
0
LINE
8
BLACK
6
CONTINUOUS
10
21.9494
20
-86.0531
11
21.9494
21
-86.5361
0
LINE
8
BLACK
6
CONTINUOUS
10
21.9494
20
-86.5361
11
22.6778
21
-86.5361
0
LINE
8
BLACK
6
CONTINUOUS
10
23.7954
20
-86.5357
11
25.7934
21
-86.5361
0
LINE
8
BLACK
6
CONTINUOUS
10
33.4474
20
-80.119
11
23.8716
21
-80.119
0
LINE
8
BLACK
6
CONTINUOUS
10
33.4474
20
-80.7195
11
33.4474
21
-80.119
0
LINE
8
BLACK
6
CONTINUOUS
10
33.4474
20
-84.6561
11
28.0534
21
-84.6561
0
LINE
8
BLACK
6
CONTINUOUS
10
33.4474
20
-84.6561
11
33.4474
21
-83.4373
0
LINE
8
BLACK
6
CONTINUOUS
10
35.3352
20
-80.7195
11
33.4474
21
-80.7195
0
LINE
8
BLACK
6
CONTINUOUS
10
35.3352
20
-83.4373
11
33.4474
21
-83.4373
0
LINE
8
BLACK
6
CONTINUOUS
10
35.3352
20
-83.4373
11
35.3352
21
-80.7195
0
ARC
8
BLACK
10
23.8301
20
-81.9992
40
1.88064
50
88.7333
51
179.693
0
ARC
8
BLACK
10
23.2369
20
-87.1842
40
0.855912
50
-229.221
51
49.262
0
ARC
8
BLACK
10
28.0279
20
-86.9239
40
2.26789
50
89.3556
51
170.156
0
CIRCLE
8
BLACK
10
28.3166
20
-87.1961
40
2
0
CIRCLE
8
BLACK
10
33.3966
20
-87.1961
40
0.85
0
LINE
8
BLACK
6
CONTINUOUS
10
186.04
20
-101.336
11
186.04
21
-104.054
0
LINE
8
BLACK
6
CONTINUOUS
10
186.04
20
-101.336
11
187.928
21
-101.336
0
LINE
8
BLACK
6
CONTINUOUS
10
186.04
20
-104.054
11
187.928
21
-104.054
0
LINE
8
BLACK
6
CONTINUOUS
10
187.928
20
-99.9899
11
187.928
21
-101.336
0
LINE
8
BLACK
6
CONTINUOUS
10
187.928
20
-104.054
11
187.928
21
-104.537
0
LINE
8
BLACK
6
CONTINUOUS
10
187.928
20
-104.537
11
188.657
21
-104.537
0
LINE
8
BLACK
6
CONTINUOUS
10
189.774
20
-104.537
11
191.772
21
-104.537
0
LINE
8
BLACK
6
CONTINUOUS
10
199.426
20
-98.1198
11
189.85
21
-98.1198
0
LINE
8
BLACK
6
CONTINUOUS
10
199.426
20
-98.7203
11
199.426
21
-98.1198
0
LINE
8
BLACK
6
CONTINUOUS
10
199.426
20
-102.657
11
194.032
21
-102.657
0
LINE
8
BLACK
6
CONTINUOUS
10
199.426
20
-102.657
11
199.426
21
-101.438
0
LINE
8
BLACK
6
CONTINUOUS
10
201.314
20
-98.7203
11
199.426
21
-98.7203
0
LINE
8
BLACK
6
CONTINUOUS
10
201.314
20
-101.438
11
199.426
21
-101.438
0
LINE
8
BLACK
6
CONTINUOUS
10
201.314
20
-101.438
11
201.314
21
-98.7203
0
ARC
8
BLACK
10
189.809
20
-100
40
1.88064
50
88.7333
51
179.693
0
ARC
8
BLACK
10
189.216
20
-105.185
40
0.855912
50
-229.221
51
49.262
0
ARC
8
BLACK
10
194.007
20
-104.925
40
2.26789
50
89.3556
51
170.156
0
CIRCLE
8
BLACK
10
194.295
20
-105.197
40
2
0
CIRCLE
8
BLACK
10
199.375
20
-105.197
40
0.85
0
LINE
8
BLACK
6
CONTINUOUS
10
110.272
20
-117.617
11
112.304
21
-117.617
0
LINE
8
BLACK
6
CONTINUOUS
10
112.304
20
-117.617
11
112.304
21
-122.799
0
LINE
8
BLACK
6
CONTINUOUS
10
112.304
20
-122.799
11
110.272
21
-122.799
0
LINE
8
BLACK
6
CONTINUOUS
10
110.272
20
-122.799
11
110.272
21
-117.617
0
LINE
8
BLACK
6
CONTINUOUS
10
105.002
20
-125.706
11
104.299
21
-128.331
0
LINE
8
BLACK
6
CONTINUOUS
10
105.002
20
-125.706
11
106.826
21
-126.195
0
LINE
8
BLACK
6
CONTINUOUS
10
104.299
20
-128.331
11
106.122
21
-128.82
0
LINE
8
BLACK
6
CONTINUOUS
10
107.174
20
-124.894
11
106.826
21
-126.195
0
LINE
8
BLACK
6
CONTINUOUS
10
106.122
20
-128.82
11
105.997
21
-129.287
0
LINE
8
BLACK
6
CONTINUOUS
10
105.997
20
-129.287
11
106.701
21
-129.475
0
LINE
8
BLACK
6
CONTINUOUS
10
107.781
20
-129.764
11
109.71
21
-130.281
0
LINE
8
BLACK
6
CONTINUOUS
10
118.765
20
-126.064
11
109.515
21
-123.586
0
LINE
8
BLACK
6
CONTINUOUS
10
118.609
20
-126.644
11
118.765
21
-126.064
0
LINE
8
BLACK
6
CONTINUOUS
10
117.59
20
-130.446
11
112.38
21
-129.05
0
LINE
8
BLACK
6
CONTINUOUS
10
117.59
20
-130.446
11
117.906
21
-129.269
0
LINE
8
BLACK
6
CONTINUOUS
10
120.433
20
-127.133
11
118.609
21
-126.644
0
LINE
8
BLACK
6
CONTINUOUS
10
119.729
20
-129.758
11
117.906
21
-129.269
0
LINE
8
BLACK
6
CONTINUOUS
10
119.729
20
-129.758
11
120.433
21
-127.133
0
ARC
8
BLACK
10
108.988
20
-125.391
40
1.88064
50
73.7333
51
164.693
0
ARC
8
BLACK
10
107.073
20
-130.246
40
0.855912
50
-244.221
51
34.2621
0
ARC
8
BLACK
10
111.768
20
-131.234
40
2.26789
50
74.3556
51
155.156
0
CIRCLE
8
BLACK
10
111.977
20
-131.572
40
2
0
CIRCLE
8
BLACK
10
116.884
20
-132.887
40
0.85
0
LINE
8
BLACK
6
CONTINUOUS
10
58.0612
20
-95.3257
11
58.0612
21
-98.0435
0
LINE
8
BLACK
6
CONTINUOUS
10
58.0612
20
-95.3257
11
59.949
21
-95.3257
0
LINE
8
BLACK
6
CONTINUOUS
10
58.0612
20
-98.0435
11
59.949
21
-98.0435
0
LINE
8
BLACK
6
CONTINUOUS
10
59.949
20
-93.9795
11
59.949
21
-95.3257
0
LINE
8
BLACK
6
CONTINUOUS
10
59.949
20
-98.0435
11
59.949
21
-98.5265
0
LINE
8
BLACK
6
CONTINUOUS
10
59.949
20
-98.5265
11
60.6774
21
-98.5265
0
LINE
8
BLACK
6
CONTINUOUS
10
61.795
20
-98.5261
11
63.793
21
-98.5265
0
LINE
8
BLACK
6
CONTINUOUS
10
71.447
20
-92.1094
11
61.8712
21
-92.1094
0
LINE
8
BLACK
6
CONTINUOUS
10
71.447
20
-92.7099
11
71.447
21
-92.1094
0
LINE
8
BLACK
6
CONTINUOUS
10
71.447
20
-96.6465
11
66.053
21
-96.6465
0
LINE
8
BLACK
6
CONTINUOUS
10
71.447
20
-96.6465
11
71.447
21
-95.4277
0
LINE
8
BLACK
6
CONTINUOUS
10
73.3348
20
-92.7099
11
71.447
21
-92.7099
0
LINE
8
BLACK
6
CONTINUOUS
10
73.3348
20
-95.4277
11
71.447
21
-95.4277
0
LINE
8
BLACK
6
CONTINUOUS
10
73.3348
20
-95.4277
11
73.3348
21
-92.7099
0
ARC
8
BLACK
10
61.8297
20
-93.9896
40
1.88064
50
88.7333
51
179.693
0
ARC
8
BLACK
10
61.2365
20
-99.1746
40
0.855912
50
-229.221
51
49.262
0
ARC
8
BLACK
10
66.0275
20
-98.9143
40
2.26789
50
89.3556
51
170.156
0
CIRCLE
8
BLACK
10
66.3162
20
-99.1865
40
2
0
CIRCLE
8
BLACK
10
71.3962
20
-99.1865
40
0.85
0
LINE
8
BLACK
6
CONTINUOUS
10
274.12
20
-118.59
11
256.747
21
-118.59
0
LINE
8
BLACK
6
CONTINUOUS
10
256.747
20
-118.59
11
256.747
21
-122.959
0
LINE
8
BLACK
6
CONTINUOUS
10
256.747
20
-122.959
11
274.12
21
-122.959
0
LINE
8
BLACK
6
CONTINUOUS
10
274.12
20
-122.959
11
274.12
21
-118.59
0
LINE
8
BLACK
6
CONTINUOUS
10
274.12
20
-131.696
11
256.747
21
-131.696
0
LINE
8
BLACK
6
CONTINUOUS
10
256.747
20
-131.696
11
256.747
21
-136.065
0
LINE
8
BLACK
6
CONTINUOUS
10
256.747
20
-136.065
11
274.12
21
-136.065
0
LINE
8
BLACK
6
CONTINUOUS
10
274.12
20
-136.065
11
274.12
21
-131.696
0
LINE
8
BLACK
6
CONTINUOUS
10
55.3328
20
-90.1875
11
53.3008
21
-90.1875
0
LINE
8
BLACK
6
CONTINUOUS
10
53.3008
20
-90.1875
11
53.3008
21
-85.0059
0
LINE
8
BLACK
6
CONTINUOUS
10
53.3008
20
-85.0059
11
55.3328
21
-85.0059
0
LINE
8
BLACK
6
CONTINUOUS
10
55.3328
20
-85.0059
11
55.3328
21
-90.1875
0
LINE
8
BLACK
6
CONTINUOUS
10
77.0614
20
-60.3358
11
77.0614
21
-63.0536
0
LINE
8
BLACK
6
CONTINUOUS
10
77.0614
20
-60.3358
11
78.9492
21
-60.3358
0
LINE
8
BLACK
6
CONTINUOUS
10
77.0614
20
-63.0536
11
78.9492
21
-63.0536
0
LINE
8
BLACK
6
CONTINUOUS
10
78.9492
20
-58.9896
11
78.9492
21
-60.3358
0
LINE
8
BLACK
6
CONTINUOUS
10
78.9492
20
-63.0536
11
78.9492
21
-63.5366
0
LINE
8
BLACK
6
CONTINUOUS
10
78.9492
20
-63.5366
11
79.6776
21
-63.5366
0
LINE
8
BLACK
6
CONTINUOUS
10
80.7952
20
-63.5362
11
82.7932
21
-63.5366
0
LINE
8
BLACK
6
CONTINUOUS
10
90.4472
20
-57.1195
11
80.8714
21
-57.1195
0
LINE
8
BLACK
6
CONTINUOUS
10
90.4472
20
-57.72
11
90.4472
21
-57.1195
0
LINE
8
BLACK
6
CONTINUOUS
10
90.4472
20
-61.6566
11
85.0532
21
-61.6566
0
LINE
8
BLACK
6
CONTINUOUS
10
90.4472
20
-61.6566
11
90.4472
21
-60.4378
0
LINE
8
BLACK
6
CONTINUOUS
10
92.335
20
-57.72
11
90.4472
21
-57.72
0
LINE
8
BLACK
6
CONTINUOUS
10
92.335
20
-60.4378
11
90.4472
21
-60.4378
0
LINE
8
BLACK
6
CONTINUOUS
10
92.335
20
-60.4378
11
92.335
21
-57.72
0
ARC
8
BLACK
10
80.8299
20
-58.9996
40
1.88064
50
88.7333
51
179.693
0
ARC
8
BLACK
10
80.2367
20
-64.1847
40
0.855912
50
-229.221
51
49.262
0
ARC
8
BLACK
10
85.0277
20
-63.9243
40
2.26789
50
89.3556
51
170.156
0
CIRCLE
8
BLACK
10
85.3164
20
-64.1966
40
2
0
CIRCLE
8
BLACK
10
90.3964
20
-64.1966
40
0.85
0
LINE
8
BLACK
6
CONTINUOUS
10
39.0618
20
-60.3363
11
39.0618
21
-63.0541
0
LINE
8
BLACK
6
CONTINUOUS
10
39.0618
20
-60.3363
11
40.9496
21
-60.3363
0
LINE
8
BLACK
6
CONTINUOUS
10
39.0618
20
-63.0541
11
40.9496
21
-63.0541
0
LINE
8
BLACK
6
CONTINUOUS
10
40.9496
20
-58.9901
11
40.9496
21
-60.3363
0
LINE
8
BLACK
6
CONTINUOUS
10
40.9496
20
-63.0541
11
40.9496
21
-63.5371
0
LINE
8
BLACK
6
CONTINUOUS
10
40.9496
20
-63.5371
11
41.678
21
-63.5371
0
LINE
8
BLACK
6
CONTINUOUS
10
42.7956
20
-63.5367
11
44.7936
21
-63.5371
0
LINE
8
BLACK
6
CONTINUOUS
10
52.4476
20
-57.12
11
42.8718
21
-57.12
0
LINE
8
BLACK
6
CONTINUOUS
10
52.4476
20
-57.7205
11
52.4476
21
-57.12
0
LINE
8
BLACK
6
CONTINUOUS
10
52.4476
20
-61.6571
11
47.0536
21
-61.6571
0
LINE
8
BLACK
6
CONTINUOUS
10
52.4476
20
-61.6571
11
52.4476
21
-60.4383
0
LINE
8
BLACK
6
CONTINUOUS
10
54.3354
20
-57.7205
11
52.4476
21
-57.7205
0
LINE
8
BLACK
6
CONTINUOUS
10
54.3354
20
-60.4383
11
52.4476
21
-60.4383
0
LINE
8
BLACK
6
CONTINUOUS
10
54.3354
20
-60.4383
11
54.3354
21
-57.7205
0
ARC
8
BLACK
10
42.8303
20
-59.0002
40
1.88064
50
88.7333
51
179.693
0
ARC
8
BLACK
10
42.2371
20
-64.1852
40
0.855912
50
-229.221
51
49.262
0
ARC
8
BLACK
10
47.0281
20
-63.9249
40
2.26789
50
89.3556
51
170.156
0
CIRCLE
8
BLACK
10
47.3168
20
-64.1971
40
2
0
CIRCLE
8
BLACK
10
52.3968
20
-64.1971
40
0.85
0
LINE
8
BLACK
6
CONTINUOUS
10
103.072
20
-117.617
11
105.104
21
-117.617
0
LINE
8
BLACK
6
CONTINUOUS
10
105.104
20
-117.617
11
105.104
21
-122.799
0
LINE
8
BLACK
6
CONTINUOUS
10
105.104
20
-122.799
11
103.072
21
-122.799
0
LINE
8
BLACK
6
CONTINUOUS
10
103.072
20
-122.799
11
103.072
21
-117.617
0
LINE
8
BLACK
6
CONTINUOUS
10
93.3324
20
-71.1874
11
91.3004
21
-71.1874
0
LINE
8
BLACK
6
CONTINUOUS
10
91.3004
20
-71.1874
11
91.3004
21
-66.0058
0
LINE
8
BLACK
6
CONTINUOUS
10
91.3004
20
-66.0058
11
93.3324
21
-66.0058
0
LINE
8
BLACK
6
CONTINUOUS
10
93.3324
20
-66.0058
11
93.3324
21
-71.1874
0
LINE
8
BLACK
6
CONTINUOUS
10
96.0611
20
-63.3363
11
96.0611
21
-66.0541
0
LINE
8
BLACK
6
CONTINUOUS
10
96.0611
20
-63.3363
11
97.9489
21
-63.3363
0
LINE
8
BLACK
6
CONTINUOUS
10
96.0611
20
-66.0541
11
97.9489
21
-66.0541
0
LINE
8
BLACK
6
CONTINUOUS
10
97.9489
20
-61.9901
11
97.9489
21
-63.3363
0
LINE
8
BLACK
6
CONTINUOUS
10
97.9489
20
-66.0541
11
97.9489
21
-66.5371
0
LINE
8
BLACK
6
CONTINUOUS
10
97.9489
20
-66.5371
11
98.6773
21
-66.5371
0
LINE
8
BLACK
6
CONTINUOUS
10
99.7949
20
-66.5367
11
101.793
21
-66.5371
0
LINE
8
BLACK
6
CONTINUOUS
10
109.447
20
-60.12
11
99.8711
21
-60.12
0
LINE
8
BLACK
6
CONTINUOUS
10
109.447
20
-60.7205
11
109.447
21
-60.12
0
LINE
8
BLACK
6
CONTINUOUS
10
109.447
20
-64.6571
11
104.053
21
-64.6571
0
LINE
8
BLACK
6
CONTINUOUS
10
109.447
20
-64.6571
11
109.447
21
-63.4383
0
LINE
8
BLACK
6
CONTINUOUS
10
111.335
20
-60.7205
11
109.447
21
-60.7205
0
LINE
8
BLACK
6
CONTINUOUS
10
111.335
20
-63.4383
11
109.447
21
-63.4383
0
LINE
8
BLACK
6
CONTINUOUS
10
111.335
20
-63.4383
11
111.335
21
-60.7205
0
ARC
8
BLACK
10
99.8296
20
-62.0002
40
1.88064
50
88.7333
51
179.693
0
ARC
8
BLACK
10
99.2364
20
-67.1852
40
0.855912
50
-229.221
51
49.262
0
ARC
8
BLACK
10
104.027
20
-66.9249
40
2.26789
50
89.3556
51
170.156
0
CIRCLE
8
BLACK
10
104.316
20
-67.1971
40
2
0
CIRCLE
8
BLACK
10
109.396
20
-67.1971
40
0.85
0
LINE
8
BLACK
6
CONTINUOUS
10
186.04
20
-82.3361
11
186.04
21
-85.0539
0
LINE
8
BLACK
6
CONTINUOUS
10
186.04
20
-82.3361
11
187.928
21
-82.3361
0
LINE
8
BLACK
6
CONTINUOUS
10
186.04
20
-85.0539
11
187.928
21
-85.0539
0
LINE
8
BLACK
6
CONTINUOUS
10
187.928
20
-80.9899
11
187.928
21
-82.3361
0
LINE
8
BLACK
6
CONTINUOUS
10
187.928
20
-85.0539
11
187.928
21
-85.5369
0
LINE
8
BLACK
6
CONTINUOUS
10
187.928
20
-85.5369
11
188.657
21
-85.5369
0
LINE
8
BLACK
6
CONTINUOUS
10
189.774
20
-85.5365
11
191.772
21
-85.5369
0
LINE
8
BLACK
6
CONTINUOUS
10
199.426
20
-79.1198
11
189.85
21
-79.1198
0
LINE
8
BLACK
6
CONTINUOUS
10
199.426
20
-79.7203
11
199.426
21
-79.1198
0
LINE
8
BLACK
6
CONTINUOUS
10
199.426
20
-83.6569
11
194.032
21
-83.6569
0
LINE
8
BLACK
6
CONTINUOUS
10
199.426
20
-83.6569
11
199.426
21
-82.4381
0
LINE
8
BLACK
6
CONTINUOUS
10
201.314
20
-79.7203
11
199.426
21
-79.7203
0
LINE
8
BLACK
6
CONTINUOUS
10
201.314
20
-82.4381
11
199.426
21
-82.4381
0
LINE
8
BLACK
6
CONTINUOUS
10
201.314
20
-82.4381
11
201.314
21
-79.7203
0
ARC
8
BLACK
10
189.809
20
-81
40
1.88064
50
88.7333
51
179.693
0
ARC
8
BLACK
10
189.216
20
-86.185
40
0.855912
50
-229.221
51
49.262
0
ARC
8
BLACK
10
194.007
20
-85.9247
40
2.26789
50
89.3556
51
170.156
0
CIRCLE
8
BLACK
10
194.295
20
-86.1969
40
2
0
CIRCLE
8
BLACK
10
199.375
20
-86.1969
40
0.85
0
LINE
8
BLACK
6
CONTINUOUS
10
72.3002
20
-100.996
11
74.3322
21
-100.996
0
LINE
8
BLACK
6
CONTINUOUS
10
74.3322
20
-100.996
11
74.3322
21
-106.177
0
LINE
8
BLACK
6
CONTINUOUS
10
74.3322
20
-106.177
11
72.3002
21
-106.177
0
LINE
8
BLACK
6
CONTINUOUS
10
72.3002
20
-106.177
11
72.3002
21
-100.996
0
LINE
8
BLACK
6
CONTINUOUS
10
169.095
20
-122.121
11
177.069
21
-119.985
0
LINE
8
BLACK
6
CONTINUOUS
10
177.069
20
-119.985
11
177.562
21
-121.825
0
LINE
8
BLACK
6
CONTINUOUS
10
177.562
20
-121.825
11
169.588
21
-123.961
0
LINE
8
BLACK
6
CONTINUOUS
10
169.588
20
-123.961
11
169.095
21
-122.121
0
LINE
8
BLACK
6
CONTINUOUS
10
205.04
20
-79.3357
11
205.04
21
-82.0535
0
LINE
8
BLACK
6
CONTINUOUS
10
205.04
20
-79.3357
11
206.928
21
-79.3357
0
LINE
8
BLACK
6
CONTINUOUS
10
205.04
20
-82.0535
11
206.928
21
-82.0535
0
LINE
8
BLACK
6
CONTINUOUS
10
206.928
20
-77.9895
11
206.928
21
-79.3357
0
LINE
8
BLACK
6
CONTINUOUS
10
206.928
20
-82.0535
11
206.928
21
-82.5365
0
LINE
8
BLACK
6
CONTINUOUS
10
206.928
20
-82.5365
11
207.656
21
-82.5365
0
LINE
8
BLACK
6
CONTINUOUS
10
208.774
20
-82.5361
11
210.772
21
-82.5365
0
LINE
8
BLACK
6
CONTINUOUS
10
218.426
20
-76.1194
11
208.85
21
-76.1194
0
LINE
8
BLACK
6
CONTINUOUS
10
218.426
20
-76.7199
11
218.426
21
-76.1194
0
LINE
8
BLACK
6
CONTINUOUS
10
218.426
20
-80.6565
11
213.032
21
-80.6565
0
LINE
8
BLACK
6
CONTINUOUS
10
218.426
20
-80.6565
11
218.426
21
-79.4377
0
LINE
8
BLACK
6
CONTINUOUS
10
220.314
20
-76.7199
11
218.426
21
-76.7199
0
LINE
8
BLACK
6
CONTINUOUS
10
220.314
20
-79.4377
11
218.426
21
-79.4377
0
LINE
8
BLACK
6
CONTINUOUS
10
220.314
20
-79.4377
11
220.314
21
-76.7199
0
ARC
8
BLACK
10
208.808
20
-77.9996
40
1.88064
50
88.7333
51
179.693
0
ARC
8
BLACK
10
208.215
20
-83.1846
40
0.855912
50
-229.221
51
49.262
0
ARC
8
BLACK
10
213.006
20
-82.9243
40
2.26789
50
89.3556
51
170.156
0
CIRCLE
8
BLACK
10
213.295
20
-83.1965
40
2
0
CIRCLE
8
BLACK
10
218.375
20
-83.1965
40
0.85
0
LINE
8
BLACK
6
CONTINUOUS
10
205.04
20
-98.3361
11
205.04
21
-101.054
0
LINE
8
BLACK
6
CONTINUOUS
10
205.04
20
-98.3361
11
206.928
21
-98.3361
0
LINE
8
BLACK
6
CONTINUOUS
10
205.04
20
-101.054
11
206.928
21
-101.054
0
LINE
8
BLACK
6
CONTINUOUS
10
206.928
20
-96.9899
11
206.928
21
-98.3361
0
LINE
8
BLACK
6
CONTINUOUS
10
206.928
20
-101.054
11
206.928
21
-101.537
0
LINE
8
BLACK
6
CONTINUOUS
10
206.928
20
-101.537
11
207.656
21
-101.537
0
LINE
8
BLACK
6
CONTINUOUS
10
208.774
20
-101.537
11
210.772
21
-101.537
0
LINE
8
BLACK
6
CONTINUOUS
10
218.426
20
-95.1198
11
208.85
21
-95.1198
0
LINE
8
BLACK
6
CONTINUOUS
10
218.426
20
-95.7203
11
218.426
21
-95.1198
0
LINE
8
BLACK
6
CONTINUOUS
10
218.426
20
-99.6569
11
213.032
21
-99.6569
0
LINE
8
BLACK
6
CONTINUOUS
10
218.426
20
-99.6569
11
218.426
21
-98.4381
0
LINE
8
BLACK
6
CONTINUOUS
10
220.314
20
-95.7203
11
218.426
21
-95.7203
0
LINE
8
BLACK
6
CONTINUOUS
10
220.314
20
-98.4381
11
218.426
21
-98.4381
0
LINE
8
BLACK
6
CONTINUOUS
10
220.314
20
-98.4381
11
220.314
21
-95.7203
0
ARC
8
BLACK
10
208.808
20
-97
40
1.88064
50
88.7333
51
179.693
0
ARC
8
BLACK
10
208.215
20
-102.185
40
0.855912
50
-229.221
51
49.262
0
ARC
8
BLACK
10
213.006
20
-101.925
40
2.26789
50
89.3556
51
170.156
0
CIRCLE
8
BLACK
10
213.295
20
-102.197
40
2
0
CIRCLE
8
BLACK
10
218.375
20
-102.197
40
0.85
0
LINE
8
BLACK
6
CONTINUOUS
10
55.3328
20
-109.187
11
53.3008
21
-109.187
0
LINE
8
BLACK
6
CONTINUOUS
10
53.3008
20
-109.187
11
53.3008
21
-104.006
0
LINE
8
BLACK
6
CONTINUOUS
10
53.3008
20
-104.006
11
55.3328
21
-104.006
0
LINE
8
BLACK
6
CONTINUOUS
10
55.3328
20
-104.006
11
55.3328
21
-109.187
0
LINE
8
BLACK
6
CONTINUOUS
10
72.3002
20
-81.9955
11
74.3322
21
-81.9955
0
LINE
8
BLACK
6
CONTINUOUS
10
74.3322
20
-81.9955
11
74.3322
21
-87.1771
0
LINE
8
BLACK
6
CONTINUOUS
10
74.3322
20
-87.1771
11
72.3002
21
-87.1771
0
LINE
8
BLACK
6
CONTINUOUS
10
72.3002
20
-87.1771
11
72.3002
21
-81.9955
0
LINE
8
BLACK
6
CONTINUOUS
10
34.3006
20
-89.2053
11
36.3326
21
-89.2053
0
LINE
8
BLACK
6
CONTINUOUS
10
36.3326
20
-89.2053
11
36.3326
21
-94.3869
0
LINE
8
BLACK
6
CONTINUOUS
10
36.3326
20
-94.3869
11
34.3006
21
-94.3869
0
LINE
8
BLACK
6
CONTINUOUS
10
34.3006
20
-94.3869
11
34.3006
21
-89.2053
0
LINE
8
BLACK
6
CONTINUOUS
10
77.0614
20
-98.3361
11
77.0614
21
-101.054
0
LINE
8
BLACK
6
CONTINUOUS
10
77.0614
20
-98.3361
11
78.9492
21
-98.3361
0
LINE
8
BLACK
6
CONTINUOUS
10
77.0614
20
-101.054
11
78.9492
21
-101.054
0
LINE
8
BLACK
6
CONTINUOUS
10
78.9492
20
-96.9899
11
78.9492
21
-98.3361
0
LINE
8
BLACK
6
CONTINUOUS
10
78.9492
20
-101.054
11
78.9492
21
-101.537
0
LINE
8
BLACK
6
CONTINUOUS
10
78.9492
20
-101.537
11
79.6776
21
-101.537
0
LINE
8
BLACK
6
CONTINUOUS
10
80.7952
20
-101.537
11
82.7932
21
-101.537
0
LINE
8
BLACK
6
CONTINUOUS
10
90.4472
20
-95.1198
11
80.8714
21
-95.1198
0
LINE
8
BLACK
6
CONTINUOUS
10
90.4472
20
-95.7203
11
90.4472
21
-95.1198
0
LINE
8
BLACK
6
CONTINUOUS
10
90.4472
20
-99.6569
11
85.0532
21
-99.6569
0
LINE
8
BLACK
6
CONTINUOUS
10
90.4472
20
-99.6569
11
90.4472
21
-98.4381
0
LINE
8
BLACK
6
CONTINUOUS
10
92.335
20
-95.7203
11
90.4472
21
-95.7203
0
LINE
8
BLACK
6
CONTINUOUS
10
92.335
20
-98.4381
11
90.4472
21
-98.4381
0
LINE
8
BLACK
6
CONTINUOUS
10
92.335
20
-98.4381
11
92.335
21
-95.7203
0
ARC
8
BLACK
10
80.8299
20
-97
40
1.88064
50
88.7333
51
179.693
0
ARC
8
BLACK
10
80.2367
20
-102.185
40
0.855912
50
-229.221
51
49.262
0
ARC
8
BLACK
10
85.0277
20
-101.925
40
2.26789
50
89.3556
51
170.156
0
CIRCLE
8
BLACK
10
85.3164
20
-102.197
40
2
0
CIRCLE
8
BLACK
10
90.3964
20
-102.197
40
0.85
0
LINE
8
BLACK
6
CONTINUOUS
10
243.04
20
-60.3363
11
243.04
21
-63.0541
0
LINE
8
BLACK
6
CONTINUOUS
10
243.04
20
-60.3363
11
244.927
21
-60.3363
0
LINE
8
BLACK
6
CONTINUOUS
10
243.04
20
-63.0541
11
244.927
21
-63.0541
0
LINE
8
BLACK
6
CONTINUOUS
10
244.927
20
-58.9901
11
244.927
21
-60.3363
0
LINE
8
BLACK
6
CONTINUOUS
10
244.927
20
-63.0541
11
244.927
21
-63.5371
0
LINE
8
BLACK
6
CONTINUOUS
10
244.927
20
-63.5371
11
245.656
21
-63.5371
0
LINE
8
BLACK
6
CONTINUOUS
10
246.773
20
-63.5367
11
248.771
21
-63.5371
0
LINE
8
BLACK
6
CONTINUOUS
10
256.425
20
-57.12
11
246.85
21
-57.12
0
LINE
8
BLACK
6
CONTINUOUS
10
256.425
20
-57.7205
11
256.425
21
-57.12
0
LINE
8
BLACK
6
CONTINUOUS
10
256.425
20
-61.6571
11
251.031
21
-61.6571
0
LINE
8
BLACK
6
CONTINUOUS
10
256.425
20
-61.6571
11
256.425
21
-60.4383
0
LINE
8
BLACK
6
CONTINUOUS
10
258.313
20
-57.7205
11
256.425
21
-57.7205
0
LINE
8
BLACK
6
CONTINUOUS
10
258.313
20
-60.4383
11
256.425
21
-60.4383
0
LINE
8
BLACK
6
CONTINUOUS
10
258.313
20
-60.4383
11
258.313
21
-57.7205
0
ARC
8
BLACK
10
246.808
20
-59.0002
40
1.88064
50
88.7333
51
179.693
0
ARC
8
BLACK
10
246.215
20
-64.1852
40
0.855912
50
-229.221
51
49.262
0
ARC
8
BLACK
10
251.006
20
-63.9249
40
2.26789
50
89.3556
51
170.156
0
CIRCLE
8
BLACK
10
251.295
20
-64.1971
40
2
0
CIRCLE
8
BLACK
10
256.375
20
-64.1971
40
0.85
0
LINE
8
BLACK
6
CONTINUOUS
10
262.04
20
-102.336
11
262.04
21
-105.054
0
LINE
8
BLACK
6
CONTINUOUS
10
262.04
20
-102.336
11
263.928
21
-102.336
0
LINE
8
BLACK
6
CONTINUOUS
10
262.04
20
-105.054
11
263.928
21
-105.054
0
LINE
8
BLACK
6
CONTINUOUS
10
263.928
20
-100.99
11
263.928
21
-102.336
0
LINE
8
BLACK
6
CONTINUOUS
10
263.928
20
-105.054
11
263.928
21
-105.537
0
LINE
8
BLACK
6
CONTINUOUS
10
263.928
20
-105.537
11
264.656
21
-105.537
0
LINE
8
BLACK
6
CONTINUOUS
10
265.774
20
-105.536
11
267.772
21
-105.537
0
LINE
8
BLACK
6
CONTINUOUS
10
275.426
20
-99.1194
11
265.85
21
-99.1194
0
LINE
8
BLACK
6
CONTINUOUS
10
275.426
20
-99.7199
11
275.426
21
-99.1194
0
LINE
8
BLACK
6
CONTINUOUS
10
275.426
20
-103.657
11
270.032
21
-103.657
0
LINE
8
BLACK
6
CONTINUOUS
10
275.426
20
-103.657
11
275.426
21
-102.438
0
LINE
8
BLACK
6
CONTINUOUS
10
277.313
20
-99.7199
11
275.426
21
-99.7199
0
LINE
8
BLACK
6
CONTINUOUS
10
277.313
20
-102.438
11
275.426
21
-102.438
0
LINE
8
BLACK
6
CONTINUOUS
10
277.313
20
-102.438
11
277.313
21
-99.7199
0
ARC
8
BLACK
10
265.808
20
-101
40
1.88064
50
88.7333
51
179.693
0
ARC
8
BLACK
10
265.215
20
-106.185
40
0.855912
50
-229.221
51
49.262
0
ARC
8
BLACK
10
270.006
20
-105.924
40
2.26789
50
89.3556
51
170.156
0
CIRCLE
8
BLACK
10
270.295
20
-106.197
40
2
0
CIRCLE
8
BLACK
10
275.375
20
-106.197
40
0.85
0
LINE
8
BLACK
6
CONTINUOUS
10
224.04
20
-95.3257
11
224.04
21
-98.0435
0
LINE
8
BLACK
6
CONTINUOUS
10
224.04
20
-95.3257
11
225.928
21
-95.3257
0
LINE
8
BLACK
6
CONTINUOUS
10
224.04
20
-98.0435
11
225.928
21
-98.0435
0
LINE
8
BLACK
6
CONTINUOUS
10
225.928
20
-93.9795
11
225.928
21
-95.3257
0
LINE
8
BLACK
6
CONTINUOUS
10
225.928
20
-98.0435
11
225.928
21
-98.5265
0
LINE
8
BLACK
6
CONTINUOUS
10
225.928
20
-98.5265
11
226.656
21
-98.5265
0
LINE
8
BLACK
6
CONTINUOUS
10
227.774
20
-98.5261
11
229.772
21
-98.5265
0
LINE
8
BLACK
6
CONTINUOUS
10
237.426
20
-92.1094
11
227.85
21
-92.1094
0
LINE
8
BLACK
6
CONTINUOUS
10
237.426
20
-92.7099
11
237.426
21
-92.1094
0
LINE
8
BLACK
6
CONTINUOUS
10
237.426
20
-96.6465
11
232.032
21
-96.6465
0
LINE
8
BLACK
6
CONTINUOUS
10
237.426
20
-96.6465
11
237.426
21
-95.4277
0
LINE
8
BLACK
6
CONTINUOUS
10
239.314
20
-92.7099
11
237.426
21
-92.7099
0
LINE
8
BLACK
6
CONTINUOUS
10
239.314
20
-95.4277
11
237.426
21
-95.4277
0
LINE
8
BLACK
6
CONTINUOUS
10
239.314
20
-95.4277
11
239.314
21
-92.7099
0
ARC
8
BLACK
10
227.809
20
-93.9896
40
1.88064
50
88.7333
51
179.693
0
ARC
8
BLACK
10
227.215
20
-99.1746
40
0.855912
50
-229.221
51
49.262
0
ARC
8
BLACK
10
232.007
20
-98.9143
40
2.26789
50
89.3556
51
170.156
0
CIRCLE
8
BLACK
10
232.295
20
-99.1865
40
2
0
CIRCLE
8
BLACK
10
237.375
20
-99.1865
40
0.85
0
LINE
8
BLACK
6
CONTINUOUS
10
243.04
20
-98.3355
11
243.04
21
-101.053
0
LINE
8
BLACK
6
CONTINUOUS
10
243.04
20
-98.3355
11
244.927
21
-98.3355
0
LINE
8
BLACK
6
CONTINUOUS
10
243.04
20
-101.053
11
244.927
21
-101.053
0
LINE
8
BLACK
6
CONTINUOUS
10
244.927
20
-96.9893
11
244.927
21
-98.3355
0
LINE
8
BLACK
6
CONTINUOUS
10
244.927
20
-101.053
11
244.927
21
-101.536
0
LINE
8
BLACK
6
CONTINUOUS
10
244.927
20
-101.536
11
245.656
21
-101.536
0
LINE
8
BLACK
6
CONTINUOUS
10
246.773
20
-101.536
11
248.771
21
-101.536
0
LINE
8
BLACK
6
CONTINUOUS
10
256.425
20
-95.1192
11
246.85
21
-95.1192
0
LINE
8
BLACK
6
CONTINUOUS
10
256.425
20
-95.7197
11
256.425
21
-95.1192
0
LINE
8
BLACK
6
CONTINUOUS
10
256.425
20
-99.6563
11
251.031
21
-99.6563
0
LINE
8
BLACK
6
CONTINUOUS
10
256.425
20
-99.6563
11
256.425
21
-98.4375
0
LINE
8
BLACK
6
CONTINUOUS
10
258.313
20
-95.7197
11
256.425
21
-95.7197
0
LINE
8
BLACK
6
CONTINUOUS
10
258.313
20
-98.4375
11
256.425
21
-98.4375
0
LINE
8
BLACK
6
CONTINUOUS
10
258.313
20
-98.4375
11
258.313
21
-95.7197
0
ARC
8
BLACK
10
246.808
20
-96.9994
40
1.88064
50
88.7333
51
179.693
0
ARC
8
BLACK
10
246.215
20
-102.184
40
0.855912
50
-229.221
51
49.262
0
ARC
8
BLACK
10
251.006
20
-101.924
40
2.26789
50
89.3556
51
170.156
0
CIRCLE
8
BLACK
10
251.295
20
-102.196
40
2
0
CIRCLE
8
BLACK
10
256.375
20
-102.196
40
0.85
0
LINE
8
BLACK
6
CONTINUOUS
10
141.098
20
-120.911
11
140.656
21
-120.793
0
LINE
8
BLACK
6
CONTINUOUS
10
138.203
20
-120.135
11
137.761
21
-120.017
0
LINE
8
BLACK
6
CONTINUOUS
10
134.326
20
-119.097
11
133.885
21
-118.978
0
LINE
8
BLACK
6
CONTINUOUS
10
133.885
20
-118.978
11
133.287
21
-118.852
0
LINE
8
BLACK
6
CONTINUOUS
10
133.287
20
-118.852
11
132.846
21
-118.734
0
LINE
8
BLACK
6
CONTINUOUS
10
140.651
20
-122.579
11
140.209
21
-122.461
0
LINE
8
BLACK
6
CONTINUOUS
10
137.756
20
-121.804
11
137.314
21
-121.685
0
LINE
8
BLACK
6
CONTINUOUS
10
133.879
20
-120.765
11
133.438
21
-120.647
0
LINE
8
BLACK
6
CONTINUOUS
10
133.438
20
-120.647
11
132.84
21
-120.521
0
LINE
8
BLACK
6
CONTINUOUS
10
132.84
20
-120.521
11
132.399
21
-120.402
0
LINE
8
BLACK
6
CONTINUOUS
10
132.104
20
-123.271
11
131.662
21
-123.152
0
LINE
8
BLACK
6
CONTINUOUS
10
139.898
20
-125.39
11
139.456
21
-125.271
0
LINE
8
BLACK
6
CONTINUOUS
10
137.003
20
-124.614
11
136.561
21
-124.496
0
LINE
8
BLACK
6
CONTINUOUS
10
133.126
20
-123.578
11
132.684
21
-123.46
0
LINE
8
BLACK
6
CONTINUOUS
10
132.684
20
-123.46
11
132.104
21
-123.271
0
LINE
8
BLACK
6
CONTINUOUS
10
131.657
20
-124.939
11
131.215
21
-124.821
0
LINE
8
BLACK
6
CONTINUOUS
10
139.451
20
-127.058
11
139.009
21
-126.94
0
LINE
8
BLACK
6
CONTINUOUS
10
136.556
20
-126.282
11
136.114
21
-126.164
0
LINE
8
BLACK
6
CONTINUOUS
10
132.679
20
-125.247
11
132.237
21
-125.128
0
LINE
8
BLACK
6
CONTINUOUS
10
132.237
20
-125.128
11
131.657
21
-124.939
0
ARC
8
BLACK
10
140.874
20
-121.745
40
0.863599
50
-105
51
74.9999
0
ARC
8
BLACK
10
137.979
20
-120.969
40
0.8636
50
-105
51
75
0
ARC
8
BLACK
10
134.103
20
-119.931
40
0.863599
50
-105
51
75
0
ARC
8
BLACK
10
140.433
20
-121.627
40
0.8636
50
-285
51
-105
0
ARC
8
BLACK
10
137.538
20
-120.851
40
0.863599
50
-285
51
-105
0
ARC
8
BLACK
10
132.622
20
-119.568
40
0.8636
50
-285
51
-105
0
ARC
8
BLACK
10
139.674
20
-126.224
40
0.8636
50
-105
51
75
0
ARC
8
BLACK
10
136.779
20
-125.448
40
0.863599
50
-105
51
75
0
ARC
8
BLACK
10
132.902
20
-124.412
40
0.8636
50
-105
51
75
0
ARC
8
BLACK
10
131.438
20
-123.986
40
0.8636
50
-285
51
-105
0
ARC
8
BLACK
10
139.233
20
-126.105
40
0.863599
50
-285
51
-105
0
ARC
8
BLACK
10
136.338
20
-125.33
40
0.8636
50
-285
51
-105
0
CIRCLE
8
BLACK
10
141.619
20
-124.364
40
0.45
0
CIRCLE
8
BLACK
10
134.858
20
-122.552
40
0.45
0
LINE
8
BLACK
6
CONTINUOUS
10
34.3006
20
-70.0049
11
36.3326
21
-70.0049
0
LINE
8
BLACK
6
CONTINUOUS
10
36.3326
20
-70.0049
11
36.3326
21
-75.1865
0
LINE
8
BLACK
6
CONTINUOUS
10
36.3326
20
-75.1865
11
34.3006
21
-75.1865
0
LINE
8
BLACK
6
CONTINUOUS
10
34.3006
20
-75.1865
11
34.3006
21
-70.0049
0
LINE
8
BLACK
6
CONTINUOUS
10
106.672
20
-117.617
11
108.704
21
-117.617
0
LINE
8
BLACK
6
CONTINUOUS
10
108.704
20
-117.617
11
108.704
21
-122.799
0
LINE
8
BLACK
6
CONTINUOUS
10
108.704
20
-122.799
11
106.672
21
-122.799
0
LINE
8
BLACK
6
CONTINUOUS
10
106.672
20
-122.799
11
106.672
21
-117.617
0
LINE
8
BLACK
6
CONTINUOUS
10
243.04
20
-79.3359
11
243.04
21
-82.0537
0
LINE
8
BLACK
6
CONTINUOUS
10
243.04
20
-79.3359
11
244.927
21
-79.3359
0
LINE
8
BLACK
6
CONTINUOUS
10
243.04
20
-82.0537
11
244.927
21
-82.0537
0
LINE
8
BLACK
6
CONTINUOUS
10
244.927
20
-77.9897
11
244.927
21
-79.3359
0
LINE
8
BLACK
6
CONTINUOUS
10
244.927
20
-82.0537
11
244.927
21
-82.5367
0
LINE
8
BLACK
6
CONTINUOUS
10
244.927
20
-82.5367
11
245.656
21
-82.5367
0
LINE
8
BLACK
6
CONTINUOUS
10
246.773
20
-82.5363
11
248.771
21
-82.5367
0
LINE
8
BLACK
6
CONTINUOUS
10
256.425
20
-76.1196
11
246.85
21
-76.1196
0
LINE
8
BLACK
6
CONTINUOUS
10
256.425
20
-76.7201
11
256.425
21
-76.1196
0
LINE
8
BLACK
6
CONTINUOUS
10
256.425
20
-80.6567
11
251.031
21
-80.6567
0
LINE
8
BLACK
6
CONTINUOUS
10
256.425
20
-80.6567
11
256.425
21
-79.4379
0
LINE
8
BLACK
6
CONTINUOUS
10
258.313
20
-76.7201
11
256.425
21
-76.7201
0
LINE
8
BLACK
6
CONTINUOUS
10
258.313
20
-79.4379
11
256.425
21
-79.4379
0
LINE
8
BLACK
6
CONTINUOUS
10
258.313
20
-79.4379
11
258.313
21
-76.7201
0
ARC
8
BLACK
10
246.808
20
-77.9998
40
1.88064
50
88.7333
51
179.693
0
ARC
8
BLACK
10
246.215
20
-83.1848
40
0.855912
50
-229.221
51
49.262
0
ARC
8
BLACK
10
251.006
20
-82.9245
40
2.26789
50
89.3556
51
170.156
0
CIRCLE
8
BLACK
10
251.295
20
-83.1967
40
2
0
CIRCLE
8
BLACK
10
256.375
20
-83.1967
40
0.85
0
LINE
8
BLACK
6
CONTINUOUS
10
96.0611
20
-101.336
11
96.0611
21
-104.054
0
LINE
8
BLACK
6
CONTINUOUS
10
96.0611
20
-101.336
11
97.9489
21
-101.336
0
LINE
8
BLACK
6
CONTINUOUS
10
96.0611
20
-104.054
11
97.9489
21
-104.054
0
LINE
8
BLACK
6
CONTINUOUS
10
97.9489
20
-99.9899
11
97.9489
21
-101.336
0
LINE
8
BLACK
6
CONTINUOUS
10
97.9489
20
-104.054
11
97.9489
21
-104.537
0
LINE
8
BLACK
6
CONTINUOUS
10
97.9489
20
-104.537
11
98.6773
21
-104.537
0
LINE
8
BLACK
6
CONTINUOUS
10
99.7949
20
-104.537
11
101.793
21
-104.537
0
LINE
8
BLACK
6
CONTINUOUS
10
109.447
20
-98.1198
11
99.8711
21
-98.1198
0
LINE
8
BLACK
6
CONTINUOUS
10
109.447
20
-98.7203
11
109.447
21
-98.1198
0
LINE
8
BLACK
6
CONTINUOUS
10
109.447
20
-102.657
11
104.053
21
-102.657
0
LINE
8
BLACK
6
CONTINUOUS
10
109.447
20
-102.657
11
109.447
21
-101.438
0
LINE
8
BLACK
6
CONTINUOUS
10
111.335
20
-98.7203
11
109.447
21
-98.7203
0
LINE
8
BLACK
6
CONTINUOUS
10
111.335
20
-101.438
11
109.447
21
-101.438
0
LINE
8
BLACK
6
CONTINUOUS
10
111.335
20
-101.438
11
111.335
21
-98.7203
0
ARC
8
BLACK
10
99.8296
20
-100
40
1.88064
50
88.7333
51
179.693
0
ARC
8
BLACK
10
99.2364
20
-105.185
40
0.855912
50
-229.221
51
49.262
0
ARC
8
BLACK
10
104.027
20
-104.925
40
2.26789
50
89.3556
51
170.156
0
CIRCLE
8
BLACK
10
104.316
20
-105.197
40
2
0
CIRCLE
8
BLACK
10
109.396
20
-105.197
40
0.85
0
LINE
8
BLACK
6
CONTINUOUS
10
77.0614
20
-79.3357
11
77.0614
21
-82.0535
0
LINE
8
BLACK
6
CONTINUOUS
10
77.0614
20
-79.3357
11
78.9492
21
-79.3357
0
LINE
8
BLACK
6
CONTINUOUS
10
77.0614
20
-82.0535
11
78.9492
21
-82.0535
0
LINE
8
BLACK
6
CONTINUOUS
10
78.9492
20
-77.9895
11
78.9492
21
-79.3357
0
LINE
8
BLACK
6
CONTINUOUS
10
78.9492
20
-82.0535
11
78.9492
21
-82.5365
0
LINE
8
BLACK
6
CONTINUOUS
10
78.9492
20
-82.5365
11
79.6776
21
-82.5365
0
LINE
8
BLACK
6
CONTINUOUS
10
80.7952
20
-82.5361
11
82.7932
21
-82.5365
0
LINE
8
BLACK
6
CONTINUOUS
10
90.4472
20
-76.1194
11
80.8714
21
-76.1194
0
LINE
8
BLACK
6
CONTINUOUS
10
90.4472
20
-76.7199
11
90.4472
21
-76.1194
0
LINE
8
BLACK
6
CONTINUOUS
10
90.4472
20
-80.6565
11
85.0532
21
-80.6565
0
LINE
8
BLACK
6
CONTINUOUS
10
90.4472
20
-80.6565
11
90.4472
21
-79.4377
0
LINE
8
BLACK
6
CONTINUOUS
10
92.335
20
-76.7199
11
90.4472
21
-76.7199
0
LINE
8
BLACK
6
CONTINUOUS
10
92.335
20
-79.4377
11
90.4472
21
-79.4377
0
LINE
8
BLACK
6
CONTINUOUS
10
92.335
20
-79.4377
11
92.335
21
-76.7199
0
ARC
8
BLACK
10
80.8299
20
-77.9996
40
1.88064
50
88.7333
51
179.693
0
ARC
8
BLACK
10
80.2367
20
-83.1846
40
0.855912
50
-229.221
51
49.262
0
ARC
8
BLACK
10
85.0277
20
-82.9243
40
2.26789
50
89.3556
51
170.156
0
CIRCLE
8
BLACK
10
85.3164
20
-83.1965
40
2
0
CIRCLE
8
BLACK
10
90.3964
20
-83.1965
40
0.85
0
LINE
8
BLACK
6
CONTINUOUS
10
93.3324
20
-109.188
11
91.3004
21
-109.188
0
LINE
8
BLACK
6
CONTINUOUS
10
91.3004
20
-109.188
11
91.3004
21
-104.006
0
LINE
8
BLACK
6
CONTINUOUS
10
91.3004
20
-104.006
11
93.3324
21
-104.006
0
LINE
8
BLACK
6
CONTINUOUS
10
93.3324
20
-104.006
11
93.3324
21
-109.188
0
LINE
8
BLACK
6
CONTINUOUS
10
110.3
20
-69.0063
11
112.332
21
-69.0063
0
LINE
8
BLACK
6
CONTINUOUS
10
112.332
20
-69.0063
11
112.332
21
-74.1879
0
LINE
8
BLACK
6
CONTINUOUS
10
112.332
20
-74.1879
11
110.3
21
-74.1879
0
LINE
8
BLACK
6
CONTINUOUS
10
110.3
20
-74.1879
11
110.3
21
-69.0063
0
LINE
8
BLACK
6
CONTINUOUS
10
205.04
20
-60.3358
11
205.04
21
-63.0536
0
LINE
8
BLACK
6
CONTINUOUS
10
205.04
20
-60.3358
11
206.928
21
-60.3358
0
LINE
8
BLACK
6
CONTINUOUS
10
205.04
20
-63.0536
11
206.928
21
-63.0536
0
LINE
8
BLACK
6
CONTINUOUS
10
206.928
20
-58.9896
11
206.928
21
-60.3358
0
LINE
8
BLACK
6
CONTINUOUS
10
206.928
20
-63.0536
11
206.928
21
-63.5366
0
LINE
8
BLACK
6
CONTINUOUS
10
206.928
20
-63.5366
11
207.656
21
-63.5366
0
LINE
8
BLACK
6
CONTINUOUS
10
208.774
20
-63.5362
11
210.772
21
-63.5366
0
LINE
8
BLACK
6
CONTINUOUS
10
218.426
20
-57.1195
11
208.85
21
-57.1195
0
LINE
8
BLACK
6
CONTINUOUS
10
218.426
20
-57.72
11
218.426
21
-57.1195
0
LINE
8
BLACK
6
CONTINUOUS
10
218.426
20
-61.6566
11
213.032
21
-61.6566
0
LINE
8
BLACK
6
CONTINUOUS
10
218.426
20
-61.6566
11
218.426
21
-60.4378
0
LINE
8
BLACK
6
CONTINUOUS
10
220.314
20
-57.72
11
218.426
21
-57.72
0
LINE
8
BLACK
6
CONTINUOUS
10
220.314
20
-60.4378
11
218.426
21
-60.4378
0
LINE
8
BLACK
6
CONTINUOUS
10
220.314
20
-60.4378
11
220.314
21
-57.72
0
ARC
8
BLACK
10
208.808
20
-58.9996
40
1.88064
50
88.7333
51
179.693
0
ARC
8
BLACK
10
208.215
20
-64.1847
40
0.855912
50
-229.221
51
49.262
0
ARC
8
BLACK
10
213.006
20
-63.9243
40
2.26789
50
89.3556
51
170.156
0
CIRCLE
8
BLACK
10
213.295
20
-64.1966
40
2
0
CIRCLE
8
BLACK
10
218.375
20
-64.1966
40
0.85
0
LINE
8
BLACK
6
CONTINUOUS
10
34.3006
20
-108.206
11
36.3326
21
-108.206
0
LINE
8
BLACK
6
CONTINUOUS
10
36.3326
20
-108.206
11
36.3326
21
-113.387
0
LINE
8
BLACK
6
CONTINUOUS
10
36.3326
20
-113.387
11
34.3006
21
-113.387
0
LINE
8
BLACK
6
CONTINUOUS
10
34.3006
20
-113.387
11
34.3006
21
-108.206
0
LINE
8
BLACK
6
CONTINUOUS
10
186.04
20
-63.3363
11
186.04
21
-66.0541
0
LINE
8
BLACK
6
CONTINUOUS
10
186.04
20
-63.3363
11
187.928
21
-63.3363
0
LINE
8
BLACK
6
CONTINUOUS
10
186.04
20
-66.0541
11
187.928
21
-66.0541
0
LINE
8
BLACK
6
CONTINUOUS
10
187.928
20
-61.9901
11
187.928
21
-63.3363
0
LINE
8
BLACK
6
CONTINUOUS
10
187.928
20
-66.0541
11
187.928
21
-66.5371
0
LINE
8
BLACK
6
CONTINUOUS
10
187.928
20
-66.5371
11
188.657
21
-66.5371
0
LINE
8
BLACK
6
CONTINUOUS
10
189.774
20
-66.5367
11
191.772
21
-66.5371
0
LINE
8
BLACK
6
CONTINUOUS
10
199.426
20
-60.12
11
189.85
21
-60.12
0
LINE
8
BLACK
6
CONTINUOUS
10
199.426
20
-60.7205
11
199.426
21
-60.12
0
LINE
8
BLACK
6
CONTINUOUS
10
199.426
20
-64.6571
11
194.032
21
-64.6571
0
LINE
8
BLACK
6
CONTINUOUS
10
199.426
20
-64.6571
11
199.426
21
-63.4383
0
LINE
8
BLACK
6
CONTINUOUS
10
201.314
20
-60.7205
11
199.426
21
-60.7205
0
LINE
8
BLACK
6
CONTINUOUS
10
201.314
20
-63.4383
11
199.426
21
-63.4383
0
LINE
8
BLACK
6
CONTINUOUS
10
201.314
20
-63.4383
11
201.314
21
-60.7205
0
ARC
8
BLACK
10
189.809
20
-62.0002
40
1.88064
50
88.7333
51
179.693
0
ARC
8
BLACK
10
189.216
20
-67.1852
40
0.855912
50
-229.221
51
49.262
0
ARC
8
BLACK
10
194.007
20
-66.9249
40
2.26789
50
89.3556
51
170.156
0
CIRCLE
8
BLACK
10
194.295
20
-67.1971
40
2
0
CIRCLE
8
BLACK
10
199.375
20
-67.1971
40
0.85
0
LINE
8
BLACK
6
CONTINUOUS
10
262.04
20
-64.3349
11
262.04
21
-67.0527
0
LINE
8
BLACK
6
CONTINUOUS
10
262.04
20
-64.3349
11
263.928
21
-64.3349
0
LINE
8
BLACK
6
CONTINUOUS
10
262.04
20
-67.0527
11
263.928
21
-67.0527
0
LINE
8
BLACK
6
CONTINUOUS
10
263.928
20
-62.9887
11
263.928
21
-64.3349
0
LINE
8
BLACK
6
CONTINUOUS
10
263.928
20
-67.0527
11
263.928
21
-67.5357
0
LINE
8
BLACK
6
CONTINUOUS
10
263.928
20
-67.5357
11
264.656
21
-67.5357
0
LINE
8
BLACK
6
CONTINUOUS
10
265.774
20
-67.5353
11
267.772
21
-67.5357
0
LINE
8
BLACK
6
CONTINUOUS
10
275.426
20
-61.1186
11
265.85
21
-61.1186
0
LINE
8
BLACK
6
CONTINUOUS
10
275.426
20
-61.7191
11
275.426
21
-61.1186
0
LINE
8
BLACK
6
CONTINUOUS
10
275.426
20
-65.6557
11
270.032
21
-65.6557
0
LINE
8
BLACK
6
CONTINUOUS
10
275.426
20
-65.6557
11
275.426
21
-64.4369
0
LINE
8
BLACK
6
CONTINUOUS
10
277.313
20
-61.7191
11
275.426
21
-61.7191
0
LINE
8
BLACK
6
CONTINUOUS
10
277.313
20
-64.4369
11
275.426
21
-64.4369
0
LINE
8
BLACK
6
CONTINUOUS
10
277.313
20
-64.4369
11
277.313
21
-61.7191
0
ARC
8
BLACK
10
265.808
20
-62.9988
40
1.88064
50
88.7333
51
179.693
0
ARC
8
BLACK
10
265.215
20
-68.1838
40
0.855912
50
-229.221
51
49.262
0
ARC
8
BLACK
10
270.006
20
-67.9235
40
2.26789
50
89.3556
51
170.156
0
CIRCLE
8
BLACK
10
270.295
20
-68.1957
40
2
0
CIRCLE
8
BLACK
10
275.375
20
-68.1957
40
0.85
0
LINE
8
BLACK
6
CONTINUOUS
10
262.04
20
-83.3353
11
262.04
21
-86.0531
0
LINE
8
BLACK
6
CONTINUOUS
10
262.04
20
-83.3353
11
263.928
21
-83.3353
0
LINE
8
BLACK
6
CONTINUOUS
10
262.04
20
-86.0531
11
263.928
21
-86.0531
0
LINE
8
BLACK
6
CONTINUOUS
10
263.928
20
-81.9891
11
263.928
21
-83.3353
0
LINE
8
BLACK
6
CONTINUOUS
10
263.928
20
-86.0531
11
263.928
21
-86.5361
0
LINE
8
BLACK
6
CONTINUOUS
10
263.928
20
-86.5361
11
264.656
21
-86.5361
0
LINE
8
BLACK
6
CONTINUOUS
10
265.774
20
-86.5357
11
267.772
21
-86.5361
0
LINE
8
BLACK
6
CONTINUOUS
10
275.426
20
-80.119
11
265.85
21
-80.119
0
LINE
8
BLACK
6
CONTINUOUS
10
275.426
20
-80.7195
11
275.426
21
-80.119
0
LINE
8
BLACK
6
CONTINUOUS
10
275.426
20
-84.6561
11
270.032
21
-84.6561
0
LINE
8
BLACK
6
CONTINUOUS
10
275.426
20
-84.6561
11
275.426
21
-83.4373
0
LINE
8
BLACK
6
CONTINUOUS
10
277.313
20
-80.7195
11
275.426
21
-80.7195
0
LINE
8
BLACK
6
CONTINUOUS
10
277.313
20
-83.4373
11
275.426
21
-83.4373
0
LINE
8
BLACK
6
CONTINUOUS
10
277.313
20
-83.4373
11
277.313
21
-80.7195
0
ARC
8
BLACK
10
265.808
20
-81.9992
40
1.88064
50
88.7333
51
179.693
0
ARC
8
BLACK
10
265.215
20
-87.1842
40
0.855912
50
-229.221
51
49.262
0
ARC
8
BLACK
10
270.006
20
-86.9239
40
2.26789
50
89.3556
51
170.156
0
CIRCLE
8
BLACK
10
270.295
20
-87.1961
40
2
0
CIRCLE
8
BLACK
10
275.375
20
-87.1961
40
0.85
0
LINE
8
BLACK
6
CONTINUOUS
10
96.0611
20
-82.3361
11
96.0611
21
-85.0539
0
LINE
8
BLACK
6
CONTINUOUS
10
96.0611
20
-82.3361
11
97.9489
21
-82.3361
0
LINE
8
BLACK
6
CONTINUOUS
10
96.0611
20
-85.0539
11
97.9489
21
-85.0539
0
LINE
8
BLACK
6
CONTINUOUS
10
97.9489
20
-80.9899
11
97.9489
21
-82.3361
0
LINE
8
BLACK
6
CONTINUOUS
10
97.9489
20
-85.0539
11
97.9489
21
-85.5369
0
LINE
8
BLACK
6
CONTINUOUS
10
97.9489
20
-85.5369
11
98.6773
21
-85.5369
0
LINE
8
BLACK
6
CONTINUOUS
10
99.7949
20
-85.5365
11
101.793
21
-85.5369
0
LINE
8
BLACK
6
CONTINUOUS
10
109.447
20
-79.1198
11
99.8711
21
-79.1198
0
LINE
8
BLACK
6
CONTINUOUS
10
109.447
20
-79.7203
11
109.447
21
-79.1198
0
LINE
8
BLACK
6
CONTINUOUS
10
109.447
20
-83.6569
11
104.053
21
-83.6569
0
LINE
8
BLACK
6
CONTINUOUS
10
109.447
20
-83.6569
11
109.447
21
-82.4381
0
LINE
8
BLACK
6
CONTINUOUS
10
111.335
20
-79.7203
11
109.447
21
-79.7203
0
LINE
8
BLACK
6
CONTINUOUS
10
111.335
20
-82.4381
11
109.447
21
-82.4381
0
LINE
8
BLACK
6
CONTINUOUS
10
111.335
20
-82.4381
11
111.335
21
-79.7203
0
ARC
8
BLACK
10
99.8296
20
-81
40
1.88064
50
88.7333
51
179.693
0
ARC
8
BLACK
10
99.2364
20
-86.185
40
0.855912
50
-229.221
51
49.262
0
ARC
8
BLACK
10
104.027
20
-85.9247
40
2.26789
50
89.3556
51
170.156
0
CIRCLE
8
BLACK
10
104.316
20
-86.1969
40
2
0
CIRCLE
8
BLACK
10
109.396
20
-86.1969
40
0.85
0
LINE
8
BLACK
6
CONTINUOUS
10
224.04
20
-76.3255
11
224.04
21
-79.0433
0
LINE
8
BLACK
6
CONTINUOUS
10
224.04
20
-76.3255
11
225.928
21
-76.3255
0
LINE
8
BLACK
6
CONTINUOUS
10
224.04
20
-79.0433
11
225.928
21
-79.0433
0
LINE
8
BLACK
6
CONTINUOUS
10
225.928
20
-74.9793
11
225.928
21
-76.3255
0
LINE
8
BLACK
6
CONTINUOUS
10
225.928
20
-79.0433
11
225.928
21
-79.5263
0
LINE
8
BLACK
6
CONTINUOUS
10
225.928
20
-79.5263
11
226.656
21
-79.5263
0
LINE
8
BLACK
6
CONTINUOUS
10
227.774
20
-79.5259
11
229.772
21
-79.5263
0
LINE
8
BLACK
6
CONTINUOUS
10
237.426
20
-73.1092
11
227.85
21
-73.1092
0
LINE
8
BLACK
6
CONTINUOUS
10
237.426
20
-73.7097
11
237.426
21
-73.1092
0
LINE
8
BLACK
6
CONTINUOUS
10
237.426
20
-77.6463
11
232.032
21
-77.6463
0
LINE
8
BLACK
6
CONTINUOUS
10
237.426
20
-77.6463
11
237.426
21
-76.4275
0
LINE
8
BLACK
6
CONTINUOUS
10
239.314
20
-73.7097
11
237.426
21
-73.7097
0
LINE
8
BLACK
6
CONTINUOUS
10
239.314
20
-76.4275
11
237.426
21
-76.4275
0
LINE
8
BLACK
6
CONTINUOUS
10
239.314
20
-76.4275
11
239.314
21
-73.7097
0
ARC
8
BLACK
10
227.809
20
-74.9894
40
1.88064
50
88.7333
51
179.693
0
ARC
8
BLACK
10
227.215
20
-80.1744
40
0.855912
50
-229.221
51
49.262
0
ARC
8
BLACK
10
232.007
20
-79.9141
40
2.26789
50
89.3556
51
170.156
0
CIRCLE
8
BLACK
10
232.295
20
-80.1863
40
2
0
CIRCLE
8
BLACK
10
237.375
20
-80.1863
40
0.85
0
LINE
8
BLACK
6
CONTINUOUS
10
196.024
20
-124.184
11
196.727
21
-126.81
0
LINE
8
BLACK
6
CONTINUOUS
10
196.024
20
-124.184
11
197.847
21
-123.696
0
LINE
8
BLACK
6
CONTINUOUS
10
196.727
20
-126.81
11
198.551
21
-126.321
0
LINE
8
BLACK
6
CONTINUOUS
10
197.499
20
-122.395
11
197.847
21
-123.696
0
LINE
8
BLACK
6
CONTINUOUS
10
198.551
20
-126.321
11
198.676
21
-126.788
0
LINE
8
BLACK
6
CONTINUOUS
10
198.676
20
-126.788
11
199.379
21
-126.599
0
LINE
8
BLACK
6
CONTINUOUS
10
200.458
20
-126.309
11
202.389
21
-125.793
0
LINE
8
BLACK
6
CONTINUOUS
10
208.121
20
-117.613
11
198.871
21
-120.092
0
LINE
8
BLACK
6
CONTINUOUS
10
208.276
20
-118.193
11
208.121
21
-117.613
0
LINE
8
BLACK
6
CONTINUOUS
10
209.295
20
-121.996
11
204.085
21
-123.392
0
LINE
8
BLACK
6
CONTINUOUS
10
209.295
20
-121.996
11
208.98
21
-120.818
0
LINE
8
BLACK
6
CONTINUOUS
10
210.1
20
-117.705
11
208.276
21
-118.193
0
LINE
8
BLACK
6
CONTINUOUS
10
210.803
20
-120.33
11
208.98
21
-120.818
0
LINE
8
BLACK
6
CONTINUOUS
10
210.803
20
-120.33
11
210.1
21
-117.705
0
ARC
8
BLACK
10
199.318
20
-121.918
40
1.88064
50
-256.267
51
-165.307
0
ARC
8
BLACK
10
200.087
20
-127.08
40
0.855913
50
-214.221
51
64.2621
0
ARC
8
BLACK
10
204.647
20
-125.589
40
2.26789
50
-255.644
51
-174.844
0
CIRCLE
8
BLACK
10
204.997
20
-125.777
40
2
0
CIRCLE
8
BLACK
10
209.903
20
-124.462
40
0.85
0
LINE
8
BLACK
6
CONTINUOUS
10
58.0612
20
-57.3256
11
58.0612
21
-60.0434
0
LINE
8
BLACK
6
CONTINUOUS
10
58.0612
20
-57.3256
11
59.949
21
-57.3256
0
LINE
8
BLACK
6
CONTINUOUS
10
58.0612
20
-60.0434
11
59.949
21
-60.0434
0
LINE
8
BLACK
6
CONTINUOUS
10
59.949
20
-55.9794
11
59.949
21
-57.3256
0
LINE
8
BLACK
6
CONTINUOUS
10
59.949
20
-60.0434
11
59.949
21
-60.5264
0
LINE
8
BLACK
6
CONTINUOUS
10
59.949
20
-60.5264
11
60.6774
21
-60.5264
0
LINE
8
BLACK
6
CONTINUOUS
10
61.795
20
-60.526
11
63.793
21
-60.5264
0
LINE
8
BLACK
6
CONTINUOUS
10
71.447
20
-54.1093
11
61.8712
21
-54.1093
0
LINE
8
BLACK
6
CONTINUOUS
10
71.447
20
-54.7098
11
71.447
21
-54.1093
0
LINE
8
BLACK
6
CONTINUOUS
10
71.447
20
-58.6464
11
66.053
21
-58.6464
0
LINE
8
BLACK
6
CONTINUOUS
10
71.447
20
-58.6464
11
71.447
21
-57.4276
0
LINE
8
BLACK
6
CONTINUOUS
10
73.3348
20
-54.7098
11
71.447
21
-54.7098
0
LINE
8
BLACK
6
CONTINUOUS
10
73.3348
20
-57.4276
11
71.447
21
-57.4276
0
LINE
8
BLACK
6
CONTINUOUS
10
73.3348
20
-57.4276
11
73.3348
21
-54.7098
0
ARC
8
BLACK
10
61.8297
20
-55.9894
40
1.88064
50
88.7333
51
179.693
0
ARC
8
BLACK
10
61.2365
20
-61.1745
40
0.855912
50
-229.221
51
49.262
0
ARC
8
BLACK
10
66.0275
20
-60.9141
40
2.26789
50
89.3556
51
170.156
0
CIRCLE
8
BLACK
10
66.3162
20
-61.1864
40
2
0
CIRCLE
8
BLACK
10
71.3962
20
-61.1864
40
0.85
0
LINE
8
BLACK
6
CONTINUOUS
10
58.0612
20
-76.3255
11
58.0612
21
-79.0433
0
LINE
8
BLACK
6
CONTINUOUS
10
58.0612
20
-76.3255
11
59.949
21
-76.3255
0
LINE
8
BLACK
6
CONTINUOUS
10
58.0612
20
-79.0433
11
59.949
21
-79.0433
0
LINE
8
BLACK
6
CONTINUOUS
10
59.949
20
-74.9793
11
59.949
21
-76.3255
0
LINE
8
BLACK
6
CONTINUOUS
10
59.949
20
-79.0433
11
59.949
21
-79.5263
0
LINE
8
BLACK
6
CONTINUOUS
10
59.949
20
-79.5263
11
60.6774
21
-79.5263
0
LINE
8
BLACK
6
CONTINUOUS
10
61.795
20
-79.5259
11
63.793
21
-79.5263
0
LINE
8
BLACK
6
CONTINUOUS
10
71.447
20
-73.1092
11
61.8712
21
-73.1092
0
LINE
8
BLACK
6
CONTINUOUS
10
71.447
20
-73.7097
11
71.447
21
-73.1092
0
LINE
8
BLACK
6
CONTINUOUS
10
71.447
20
-77.6463
11
66.053
21
-77.6463
0
LINE
8
BLACK
6
CONTINUOUS
10
71.447
20
-77.6463
11
71.447
21
-76.4275
0
LINE
8
BLACK
6
CONTINUOUS
10
73.3348
20
-73.7097
11
71.447
21
-73.7097
0
LINE
8
BLACK
6
CONTINUOUS
10
73.3348
20
-76.4275
11
71.447
21
-76.4275
0
LINE
8
BLACK
6
CONTINUOUS
10
73.3348
20
-76.4275
11
73.3348
21
-73.7097
0
ARC
8
BLACK
10
61.8297
20
-74.9894
40
1.88064
50
88.7333
51
179.693
0
ARC
8
BLACK
10
61.2365
20
-80.1744
40
0.855912
50
-229.221
51
49.262
0
ARC
8
BLACK
10
66.0275
20
-79.9141
40
2.26789
50
89.3556
51
170.156
0
CIRCLE
8
BLACK
10
66.3162
20
-80.1863
40
2
0
CIRCLE
8
BLACK
10
71.3962
20
-80.1863
40
0.85
0
LINE
8
BLACK
6
CONTINUOUS
10
55.3328
20
-71.1879
11
53.3008
21
-71.1879
0
LINE
8
BLACK
6
CONTINUOUS
10
53.3008
20
-71.1879
11
53.3008
21
-66.0063
0
LINE
8
BLACK
6
CONTINUOUS
10
53.3008
20
-66.0063
11
55.3328
21
-66.0063
0
LINE
8
BLACK
6
CONTINUOUS
10
55.3328
20
-66.0063
11
55.3328
21
-71.1879
0
LINE
8
BLACK
6
CONTINUOUS
10
20.0616
20
-102.336
11
20.0616
21
-105.054
0
LINE
8
BLACK
6
CONTINUOUS
10
20.0616
20
-102.336
11
21.9494
21
-102.336
0
LINE
8
BLACK
6
CONTINUOUS
10
20.0616
20
-105.054
11
21.9494
21
-105.054
0
LINE
8
BLACK
6
CONTINUOUS
10
21.9494
20
-100.99
11
21.9494
21
-102.336
0
LINE
8
BLACK
6
CONTINUOUS
10
21.9494
20
-105.054
11
21.9494
21
-105.537
0
LINE
8
BLACK
6
CONTINUOUS
10
21.9494
20
-105.537
11
22.6778
21
-105.537
0
LINE
8
BLACK
6
CONTINUOUS
10
23.7954
20
-105.536
11
25.7934
21
-105.537
0
LINE
8
BLACK
6
CONTINUOUS
10
33.4474
20
-99.1194
11
23.8716
21
-99.1194
0
LINE
8
BLACK
6
CONTINUOUS
10
33.4474
20
-99.7199
11
33.4474
21
-99.1194
0
LINE
8
BLACK
6
CONTINUOUS
10
33.4474
20
-103.657
11
28.0534
21
-103.657
0
LINE
8
BLACK
6
CONTINUOUS
10
33.4474
20
-103.657
11
33.4474
21
-102.438
0
LINE
8
BLACK
6
CONTINUOUS
10
35.3352
20
-99.7199
11
33.4474
21
-99.7199
0
LINE
8
BLACK
6
CONTINUOUS
10
35.3352
20
-102.438
11
33.4474
21
-102.438
0
LINE
8
BLACK
6
CONTINUOUS
10
35.3352
20
-102.438
11
35.3352
21
-99.7199
0
ARC
8
BLACK
10
23.8301
20
-101
40
1.88064
50
88.7333
51
179.693
0
ARC
8
BLACK
10
23.2369
20
-106.185
40
0.855912
50
-229.221
51
49.262
0
ARC
8
BLACK
10
28.0279
20
-105.924
40
2.26789
50
89.3556
51
170.156
0
CIRCLE
8
BLACK
10
28.3166
20
-106.197
40
2
0
CIRCLE
8
BLACK
10
33.3966
20
-106.197
40
0.85
0
LINE
8
BLACK
6
CONTINUOUS
10
205.279
20
-109.188
11
207.311
21
-109.188
0
LINE
8
BLACK
6
CONTINUOUS
10
207.311
20
-109.188
11
207.311
21
-104.006
0
LINE
8
BLACK
6
CONTINUOUS
10
207.311
20
-104.006
11
205.279
21
-104.006
0
LINE
8
BLACK
6
CONTINUOUS
10
205.279
20
-104.006
11
205.279
21
-109.188
0
LINE
8
BLACK
6
CONTINUOUS
10
195.54
20
-117.617
11
193.508
21
-117.617
0
LINE
8
BLACK
6
CONTINUOUS
10
193.508
20
-117.617
11
193.508
21
-122.799
0
LINE
8
BLACK
6
CONTINUOUS
10
193.508
20
-122.799
11
195.54
21
-122.799
0
LINE
8
BLACK
6
CONTINUOUS
10
195.54
20
-122.799
11
195.54
21
-117.617
0
LINE
8
BLACK
6
CONTINUOUS
10
188.311
20
-88.0061
11
186.279
21
-88.0061
0
LINE
8
BLACK
6
CONTINUOUS
10
186.279
20
-88.0061
11
186.279
21
-93.1877
0
LINE
8
BLACK
6
CONTINUOUS
10
186.279
20
-93.1877
11
188.311
21
-93.1877
0
LINE
8
BLACK
6
CONTINUOUS
10
188.311
20
-93.1877
11
188.311
21
-88.0061
0
LINE
8
BLACK
6
CONTINUOUS
10
264.311
20
-89.2053
11
262.279
21
-89.2053
0
LINE
8
BLACK
6
CONTINUOUS
10
262.279
20
-89.2053
11
262.279
21
-94.3869
0
LINE
8
BLACK
6
CONTINUOUS
10
262.279
20
-94.3869
11
264.311
21
-94.3869
0
LINE
8
BLACK
6
CONTINUOUS
10
264.311
20
-94.3869
11
264.311
21
-89.2053
0
LINE
8
BLACK
6
CONTINUOUS
10
205.279
20
-90.1873
11
207.311
21
-90.1873
0
LINE
8
BLACK
6
CONTINUOUS
10
207.311
20
-90.1873
11
207.311
21
-85.0057
0
LINE
8
BLACK
6
CONTINUOUS
10
207.311
20
-85.0057
11
205.279
21
-85.0057
0
LINE
8
BLACK
6
CONTINUOUS
10
205.279
20
-85.0057
11
205.279
21
-90.1873
0
LINE
8
BLACK
6
CONTINUOUS
10
188.34
20
-117.617
11
186.308
21
-117.617
0
LINE
8
BLACK
6
CONTINUOUS
10
186.308
20
-117.617
11
186.308
21
-122.799
0
LINE
8
BLACK
6
CONTINUOUS
10
186.308
20
-122.799
11
188.34
21
-122.799
0
LINE
8
BLACK
6
CONTINUOUS
10
188.34
20
-122.799
11
188.34
21
-117.617
0
LINE
8
BLACK
6
CONTINUOUS
10
243.279
20
-90.1875
11
245.311
21
-90.1875
0
LINE
8
BLACK
6
CONTINUOUS
10
245.311
20
-90.1875
11
245.311
21
-85.0059
0
LINE
8
BLACK
6
CONTINUOUS
10
245.311
20
-85.0059
11
243.279
21
-85.0059
0
LINE
8
BLACK
6
CONTINUOUS
10
243.279
20
-85.0059
11
243.279
21
-90.1875
0
LINE
8
BLACK
6
CONTINUOUS
10
226.311
20
-62.9956
11
224.279
21
-62.9956
0
LINE
8
BLACK
6
CONTINUOUS
10
224.279
20
-62.9956
11
224.279
21
-68.1772
0
LINE
8
BLACK
6
CONTINUOUS
10
224.279
20
-68.1772
11
226.311
21
-68.1772
0
LINE
8
BLACK
6
CONTINUOUS
10
226.311
20
-68.1772
11
226.311
21
-62.9956
0
LINE
8
BLACK
6
CONTINUOUS
10
164.727
20
-118.978
11
165.324
21
-118.852
0
LINE
8
BLACK
6
CONTINUOUS
10
164.285
20
-119.097
11
164.727
21
-118.978
0
LINE
8
BLACK
6
CONTINUOUS
10
160.409
20
-120.135
11
160.85
21
-120.017
0
LINE
8
BLACK
6
CONTINUOUS
10
157.513
20
-120.911
11
157.955
21
-120.793
0
LINE
8
BLACK
6
CONTINUOUS
10
165.324
20
-118.852
11
165.766
21
-118.734
0
LINE
8
BLACK
6
CONTINUOUS
10
165.174
20
-120.647
11
165.771
21
-120.521
0
LINE
8
BLACK
6
CONTINUOUS
10
164.732
20
-120.765
11
165.174
21
-120.647
0
LINE
8
BLACK
6
CONTINUOUS
10
160.856
20
-121.804
11
161.297
21
-121.685
0
LINE
8
BLACK
6
CONTINUOUS
10
157.961
20
-122.579
11
158.402
21
-122.461
0
LINE
8
BLACK
6
CONTINUOUS
10
165.771
20
-120.521
11
166.213
21
-120.402
0
LINE
8
BLACK
6
CONTINUOUS
10
166.508
20
-123.271
11
166.949
21
-123.152
0
LINE
8
BLACK
6
CONTINUOUS
10
161.609
20
-124.614
11
162.05
21
-124.496
0
LINE
8
BLACK
6
CONTINUOUS
10
158.714
20
-125.39
11
159.155
21
-125.271
0
LINE
8
BLACK
6
CONTINUOUS
10
165.927
20
-123.46
11
166.508
21
-123.271
0
LINE
8
BLACK
6
CONTINUOUS
10
165.486
20
-123.578
11
165.927
21
-123.46
0
LINE
8
BLACK
6
CONTINUOUS
10
166.955
20
-124.939
11
167.396
21
-124.821
0
LINE
8
BLACK
6
CONTINUOUS
10
162.056
20
-126.282
11
162.497
21
-126.164
0
LINE
8
BLACK
6
CONTINUOUS
10
159.161
20
-127.058
11
159.602
21
-126.94
0
LINE
8
BLACK
6
CONTINUOUS
10
166.375
20
-125.128
11
166.955
21
-124.939
0
LINE
8
BLACK
6
CONTINUOUS
10
165.933
20
-125.247
11
166.375
21
-125.128
0
ARC
8
BLACK
10
161.074
20
-120.851
40
0.8636
50
-75
51
105
0
ARC
8
BLACK
10
158.179
20
-121.627
40
0.8636
50
-75
51
105
0
ARC
8
BLACK
10
165.989
20
-119.568
40
0.863599
50
-75
51
105
0
ARC
8
BLACK
10
164.509
20
-119.931
40
0.8636
50
-255
51
-75
0
ARC
8
BLACK
10
160.632
20
-120.969
40
0.863599
50
-255
51
-74.9999
0
ARC
8
BLACK
10
157.737
20
-121.745
40
0.8636
50
-255
51
-75
0
ARC
8
BLACK
10
167.173
20
-123.986
40
0.863599
50
-75
51
105
0
ARC
8
BLACK
10
162.274
20
-125.33
40
0.863599
50
-75
51
105
0
ARC
8
BLACK
10
159.379
20
-126.105
40
0.8636
50
-75
51
105
0
ARC
8
BLACK
10
161.832
20
-125.448
40
0.8636
50
-255
51
-75
0
ARC
8
BLACK
10
158.937
20
-126.224
40
0.863599
50
-255
51
-75
0
ARC
8
BLACK
10
165.709
20
-124.412
40
0.863599
50
-255
51
-75
0
CIRCLE
8
BLACK
10
163.754
20
-122.552
40
0.45
0
CIRCLE
8
BLACK
10
156.992
20
-124.364
40
0.45
0
LINE
8
BLACK
6
CONTINUOUS
10
191.94
20
-117.617
11
189.908
21
-117.617
0
LINE
8
BLACK
6
CONTINUOUS
10
189.908
20
-117.617
11
189.908
21
-122.799
0
LINE
8
BLACK
6
CONTINUOUS
10
189.908
20
-122.799
11
191.94
21
-122.799
0
LINE
8
BLACK
6
CONTINUOUS
10
191.94
20
-122.799
11
191.94
21
-117.617
0
LINE
8
BLACK
6
CONTINUOUS
10
264.311
20
-70.0049
11
262.279
21
-70.0049
0
LINE
8
BLACK
6
CONTINUOUS
10
262.279
20
-70.0049
11
262.279
21
-75.1865
0
LINE
8
BLACK
6
CONTINUOUS
10
262.279
20
-75.1865
11
264.311
21
-75.1865
0
LINE
8
BLACK
6
CONTINUOUS
10
264.311
20
-75.1865
11
264.311
21
-70.0049
0
LINE
8
BLACK
6
CONTINUOUS
10
243.279
20
-109.187
11
245.311
21
-109.187
0
LINE
8
BLACK
6
CONTINUOUS
10
245.311
20
-109.187
11
245.311
21
-104.006
0
LINE
8
BLACK
6
CONTINUOUS
10
245.311
20
-104.006
11
243.279
21
-104.006
0
LINE
8
BLACK
6
CONTINUOUS
10
243.279
20
-104.006
11
243.279
21
-109.187
0
LINE
8
BLACK
6
CONTINUOUS
10
205.279
20
-71.1874
11
207.311
21
-71.1874
0
LINE
8
BLACK
6
CONTINUOUS
10
207.311
20
-71.1874
11
207.311
21
-66.0058
0
LINE
8
BLACK
6
CONTINUOUS
10
207.311
20
-66.0058
11
205.279
21
-66.0058
0
LINE
8
BLACK
6
CONTINUOUS
10
205.279
20
-66.0058
11
205.279
21
-71.1874
0
LINE
8
BLACK
6
CONTINUOUS
10
188.311
20
-107.006
11
186.279
21
-107.006
0
LINE
8
BLACK
6
CONTINUOUS
10
186.279
20
-107.006
11
186.279
21
-112.188
0
LINE
8
BLACK
6
CONTINUOUS
10
186.279
20
-112.188
11
188.311
21
-112.188
0
LINE
8
BLACK
6
CONTINUOUS
10
188.311
20
-112.188
11
188.311
21
-107.006
0
LINE
8
BLACK
6
CONTINUOUS
10
226.311
20
-100.996
11
224.279
21
-100.996
0
LINE
8
BLACK
6
CONTINUOUS
10
224.279
20
-100.996
11
224.279
21
-106.177
0
LINE
8
BLACK
6
CONTINUOUS
10
224.279
20
-106.177
11
226.311
21
-106.177
0
LINE
8
BLACK
6
CONTINUOUS
10
226.311
20
-106.177
11
226.311
21
-100.996
0
LINE
8
BLACK
6
CONTINUOUS
10
264.311
20
-108.206
11
262.279
21
-108.206
0
LINE
8
BLACK
6
CONTINUOUS
10
262.279
20
-108.206
11
262.279
21
-113.387
0
LINE
8
BLACK
6
CONTINUOUS
10
262.279
20
-113.387
11
264.311
21
-113.387
0
LINE
8
BLACK
6
CONTINUOUS
10
264.311
20
-113.387
11
264.311
21
-108.206
0
LINE
8
BLACK
6
CONTINUOUS
10
24.4911
20
-118.59
11
41.8647
21
-118.59
0
LINE
8
BLACK
6
CONTINUOUS
10
41.8647
20
-118.59
11
41.8647
21
-122.959
0
LINE
8
BLACK
6
CONTINUOUS
10
41.8647
20
-122.959
11
24.4911
21
-122.959
0
LINE
8
BLACK
6
CONTINUOUS
10
24.4911
20
-122.959
11
24.4911
21
-118.59
0
LINE
8
BLACK
6
CONTINUOUS
10
24.4911
20
-131.696
11
41.8647
21
-131.696
0
LINE
8
BLACK
6
CONTINUOUS
10
41.8647
20
-131.696
11
41.8647
21
-136.065
0
LINE
8
BLACK
6
CONTINUOUS
10
41.8647
20
-136.065
11
24.4911
21
-136.065
0
LINE
8
BLACK
6
CONTINUOUS
10
24.4911
20
-136.065
11
24.4911
21
-131.696
0
LINE
8
BLACK
6
CONTINUOUS
10
243.279
20
-71.1879
11
245.311
21
-71.1879
0
LINE
8
BLACK
6
CONTINUOUS
10
245.311
20
-71.1879
11
245.311
21
-66.0063
0
LINE
8
BLACK
6
CONTINUOUS
10
245.311
20
-66.0063
11
243.279
21
-66.0063
0
LINE
8
BLACK
6
CONTINUOUS
10
243.279
20
-66.0063
11
243.279
21
-71.1879
0
LINE
8
BLACK
6
CONTINUOUS
10
188.311
20
-69.0063
11
186.279
21
-69.0063
0
LINE
8
BLACK
6
CONTINUOUS
10
186.279
20
-69.0063
11
186.279
21
-74.1879
0
LINE
8
BLACK
6
CONTINUOUS
10
186.279
20
-74.1879
11
188.311
21
-74.1879
0
LINE
8
BLACK
6
CONTINUOUS
10
188.311
20
-74.1879
11
188.311
21
-69.0063
0
LINE
8
BLACK
6
CONTINUOUS
10
226.311
20
-81.9955
11
224.279
21
-81.9955
0
LINE
8
BLACK
6
CONTINUOUS
10
224.279
20
-81.9955
11
224.279
21
-87.1771
0
LINE
8
BLACK
6
CONTINUOUS
10
224.279
20
-87.1771
11
226.311
21
-87.1771
0
LINE
8
BLACK
6
CONTINUOUS
10
226.311
20
-87.1771
11
226.311
21
-81.9955
  0
ENDSEC
  0
EOF
